%TF.GenerationSoftware,KiCad,Pcbnew,7.0.11-7.0.11~ubuntu22.04.1*%
%TF.CreationDate,2024-09-19T14:01:14-04:00*%
%TF.ProjectId,colecovision_controller,636f6c65-636f-4766-9973-696f6e5f636f,rev?*%
%TF.SameCoordinates,Original*%
%TF.FileFunction,Legend,Top*%
%TF.FilePolarity,Positive*%
%FSLAX46Y46*%
G04 Gerber Fmt 4.6, Leading zero omitted, Abs format (unit mm)*
G04 Created by KiCad (PCBNEW 7.0.11-7.0.11~ubuntu22.04.1) date 2024-09-19 14:01:14*
%MOMM*%
%LPD*%
G01*
G04 APERTURE LIST*
%ADD10C,0.300000*%
%ADD11C,0.150000*%
%ADD12C,0.120000*%
G04 APERTURE END LIST*
D10*
X160154115Y-123271185D02*
X160225543Y-123199757D01*
X160225543Y-123199757D02*
X160368401Y-123128328D01*
X160368401Y-123128328D02*
X160725543Y-123128328D01*
X160725543Y-123128328D02*
X160868401Y-123199757D01*
X160868401Y-123199757D02*
X160939829Y-123271185D01*
X160939829Y-123271185D02*
X161011258Y-123414042D01*
X161011258Y-123414042D02*
X161011258Y-123556900D01*
X161011258Y-123556900D02*
X160939829Y-123771185D01*
X160939829Y-123771185D02*
X160082686Y-124628328D01*
X160082686Y-124628328D02*
X161011258Y-124628328D01*
X161939829Y-123128328D02*
X162082686Y-123128328D01*
X162082686Y-123128328D02*
X162225543Y-123199757D01*
X162225543Y-123199757D02*
X162296972Y-123271185D01*
X162296972Y-123271185D02*
X162368400Y-123414042D01*
X162368400Y-123414042D02*
X162439829Y-123699757D01*
X162439829Y-123699757D02*
X162439829Y-124056900D01*
X162439829Y-124056900D02*
X162368400Y-124342614D01*
X162368400Y-124342614D02*
X162296972Y-124485471D01*
X162296972Y-124485471D02*
X162225543Y-124556900D01*
X162225543Y-124556900D02*
X162082686Y-124628328D01*
X162082686Y-124628328D02*
X161939829Y-124628328D01*
X161939829Y-124628328D02*
X161796972Y-124556900D01*
X161796972Y-124556900D02*
X161725543Y-124485471D01*
X161725543Y-124485471D02*
X161654114Y-124342614D01*
X161654114Y-124342614D02*
X161582686Y-124056900D01*
X161582686Y-124056900D02*
X161582686Y-123699757D01*
X161582686Y-123699757D02*
X161654114Y-123414042D01*
X161654114Y-123414042D02*
X161725543Y-123271185D01*
X161725543Y-123271185D02*
X161796972Y-123199757D01*
X161796972Y-123199757D02*
X161939829Y-123128328D01*
X163011257Y-123271185D02*
X163082685Y-123199757D01*
X163082685Y-123199757D02*
X163225543Y-123128328D01*
X163225543Y-123128328D02*
X163582685Y-123128328D01*
X163582685Y-123128328D02*
X163725543Y-123199757D01*
X163725543Y-123199757D02*
X163796971Y-123271185D01*
X163796971Y-123271185D02*
X163868400Y-123414042D01*
X163868400Y-123414042D02*
X163868400Y-123556900D01*
X163868400Y-123556900D02*
X163796971Y-123771185D01*
X163796971Y-123771185D02*
X162939828Y-124628328D01*
X162939828Y-124628328D02*
X163868400Y-124628328D01*
X165154114Y-123628328D02*
X165154114Y-124628328D01*
X164796971Y-123056900D02*
X164439828Y-124128328D01*
X164439828Y-124128328D02*
X165368399Y-124128328D01*
X167511256Y-123128328D02*
X167511256Y-124199757D01*
X167511256Y-124199757D02*
X167439827Y-124414042D01*
X167439827Y-124414042D02*
X167296970Y-124556900D01*
X167296970Y-124556900D02*
X167082684Y-124628328D01*
X167082684Y-124628328D02*
X166939827Y-124628328D01*
X168154113Y-124199757D02*
X168868399Y-124199757D01*
X168011256Y-124628328D02*
X168511256Y-123128328D01*
X168511256Y-123128328D02*
X169011256Y-124628328D01*
X169796970Y-123914042D02*
X169796970Y-124628328D01*
X169296970Y-123128328D02*
X169796970Y-123914042D01*
X169796970Y-123914042D02*
X170296970Y-123128328D01*
X172796969Y-124485471D02*
X172725541Y-124556900D01*
X172725541Y-124556900D02*
X172511255Y-124628328D01*
X172511255Y-124628328D02*
X172368398Y-124628328D01*
X172368398Y-124628328D02*
X172154112Y-124556900D01*
X172154112Y-124556900D02*
X172011255Y-124414042D01*
X172011255Y-124414042D02*
X171939826Y-124271185D01*
X171939826Y-124271185D02*
X171868398Y-123985471D01*
X171868398Y-123985471D02*
X171868398Y-123771185D01*
X171868398Y-123771185D02*
X171939826Y-123485471D01*
X171939826Y-123485471D02*
X172011255Y-123342614D01*
X172011255Y-123342614D02*
X172154112Y-123199757D01*
X172154112Y-123199757D02*
X172368398Y-123128328D01*
X172368398Y-123128328D02*
X172511255Y-123128328D01*
X172511255Y-123128328D02*
X172725541Y-123199757D01*
X172725541Y-123199757D02*
X172796969Y-123271185D01*
X173725541Y-123128328D02*
X174011255Y-123128328D01*
X174011255Y-123128328D02*
X174154112Y-123199757D01*
X174154112Y-123199757D02*
X174296969Y-123342614D01*
X174296969Y-123342614D02*
X174368398Y-123628328D01*
X174368398Y-123628328D02*
X174368398Y-124128328D01*
X174368398Y-124128328D02*
X174296969Y-124414042D01*
X174296969Y-124414042D02*
X174154112Y-124556900D01*
X174154112Y-124556900D02*
X174011255Y-124628328D01*
X174011255Y-124628328D02*
X173725541Y-124628328D01*
X173725541Y-124628328D02*
X173582684Y-124556900D01*
X173582684Y-124556900D02*
X173439826Y-124414042D01*
X173439826Y-124414042D02*
X173368398Y-124128328D01*
X173368398Y-124128328D02*
X173368398Y-123628328D01*
X173368398Y-123628328D02*
X173439826Y-123342614D01*
X173439826Y-123342614D02*
X173582684Y-123199757D01*
X173582684Y-123199757D02*
X173725541Y-123128328D01*
X175011255Y-124628328D02*
X175011255Y-123128328D01*
X175011255Y-123128328D02*
X175868398Y-124628328D01*
X175868398Y-124628328D02*
X175868398Y-123128328D01*
X176368399Y-123128328D02*
X176868399Y-124628328D01*
X176868399Y-124628328D02*
X177368399Y-123128328D01*
X177868398Y-123842614D02*
X178368398Y-123842614D01*
X178582684Y-124628328D02*
X177868398Y-124628328D01*
X177868398Y-124628328D02*
X177868398Y-123128328D01*
X177868398Y-123128328D02*
X178582684Y-123128328D01*
X180082684Y-124628328D02*
X179582684Y-123914042D01*
X179225541Y-124628328D02*
X179225541Y-123128328D01*
X179225541Y-123128328D02*
X179796970Y-123128328D01*
X179796970Y-123128328D02*
X179939827Y-123199757D01*
X179939827Y-123199757D02*
X180011256Y-123271185D01*
X180011256Y-123271185D02*
X180082684Y-123414042D01*
X180082684Y-123414042D02*
X180082684Y-123628328D01*
X180082684Y-123628328D02*
X180011256Y-123771185D01*
X180011256Y-123771185D02*
X179939827Y-123842614D01*
X179939827Y-123842614D02*
X179796970Y-123914042D01*
X179796970Y-123914042D02*
X179225541Y-123914042D01*
X180511256Y-123128328D02*
X181368399Y-123128328D01*
X180939827Y-124628328D02*
X180939827Y-123128328D01*
X181868398Y-124628328D02*
X181868398Y-123128328D01*
X182582684Y-124628328D02*
X182582684Y-123128328D01*
X182582684Y-123128328D02*
X183439827Y-124628328D01*
X183439827Y-124628328D02*
X183439827Y-123128328D01*
X184439828Y-123128328D02*
X184725542Y-123128328D01*
X184725542Y-123128328D02*
X184868399Y-123199757D01*
X184868399Y-123199757D02*
X185011256Y-123342614D01*
X185011256Y-123342614D02*
X185082685Y-123628328D01*
X185082685Y-123628328D02*
X185082685Y-124128328D01*
X185082685Y-124128328D02*
X185011256Y-124414042D01*
X185011256Y-124414042D02*
X184868399Y-124556900D01*
X184868399Y-124556900D02*
X184725542Y-124628328D01*
X184725542Y-124628328D02*
X184439828Y-124628328D01*
X184439828Y-124628328D02*
X184296971Y-124556900D01*
X184296971Y-124556900D02*
X184154113Y-124414042D01*
X184154113Y-124414042D02*
X184082685Y-124128328D01*
X184082685Y-124128328D02*
X184082685Y-123628328D01*
X184082685Y-123628328D02*
X184154113Y-123342614D01*
X184154113Y-123342614D02*
X184296971Y-123199757D01*
X184296971Y-123199757D02*
X184439828Y-123128328D01*
X158189826Y-126900471D02*
X158118398Y-126971900D01*
X158118398Y-126971900D02*
X157904112Y-127043328D01*
X157904112Y-127043328D02*
X157761255Y-127043328D01*
X157761255Y-127043328D02*
X157546969Y-126971900D01*
X157546969Y-126971900D02*
X157404112Y-126829042D01*
X157404112Y-126829042D02*
X157332683Y-126686185D01*
X157332683Y-126686185D02*
X157261255Y-126400471D01*
X157261255Y-126400471D02*
X157261255Y-126186185D01*
X157261255Y-126186185D02*
X157332683Y-125900471D01*
X157332683Y-125900471D02*
X157404112Y-125757614D01*
X157404112Y-125757614D02*
X157546969Y-125614757D01*
X157546969Y-125614757D02*
X157761255Y-125543328D01*
X157761255Y-125543328D02*
X157904112Y-125543328D01*
X157904112Y-125543328D02*
X158118398Y-125614757D01*
X158118398Y-125614757D02*
X158189826Y-125686185D01*
X159118398Y-125543328D02*
X159404112Y-125543328D01*
X159404112Y-125543328D02*
X159546969Y-125614757D01*
X159546969Y-125614757D02*
X159689826Y-125757614D01*
X159689826Y-125757614D02*
X159761255Y-126043328D01*
X159761255Y-126043328D02*
X159761255Y-126543328D01*
X159761255Y-126543328D02*
X159689826Y-126829042D01*
X159689826Y-126829042D02*
X159546969Y-126971900D01*
X159546969Y-126971900D02*
X159404112Y-127043328D01*
X159404112Y-127043328D02*
X159118398Y-127043328D01*
X159118398Y-127043328D02*
X158975541Y-126971900D01*
X158975541Y-126971900D02*
X158832683Y-126829042D01*
X158832683Y-126829042D02*
X158761255Y-126543328D01*
X158761255Y-126543328D02*
X158761255Y-126043328D01*
X158761255Y-126043328D02*
X158832683Y-125757614D01*
X158832683Y-125757614D02*
X158975541Y-125614757D01*
X158975541Y-125614757D02*
X159118398Y-125543328D01*
X161118398Y-127043328D02*
X160404112Y-127043328D01*
X160404112Y-127043328D02*
X160404112Y-125543328D01*
X161618398Y-126257614D02*
X162118398Y-126257614D01*
X162332684Y-127043328D02*
X161618398Y-127043328D01*
X161618398Y-127043328D02*
X161618398Y-125543328D01*
X161618398Y-125543328D02*
X162332684Y-125543328D01*
X163832684Y-126900471D02*
X163761256Y-126971900D01*
X163761256Y-126971900D02*
X163546970Y-127043328D01*
X163546970Y-127043328D02*
X163404113Y-127043328D01*
X163404113Y-127043328D02*
X163189827Y-126971900D01*
X163189827Y-126971900D02*
X163046970Y-126829042D01*
X163046970Y-126829042D02*
X162975541Y-126686185D01*
X162975541Y-126686185D02*
X162904113Y-126400471D01*
X162904113Y-126400471D02*
X162904113Y-126186185D01*
X162904113Y-126186185D02*
X162975541Y-125900471D01*
X162975541Y-125900471D02*
X163046970Y-125757614D01*
X163046970Y-125757614D02*
X163189827Y-125614757D01*
X163189827Y-125614757D02*
X163404113Y-125543328D01*
X163404113Y-125543328D02*
X163546970Y-125543328D01*
X163546970Y-125543328D02*
X163761256Y-125614757D01*
X163761256Y-125614757D02*
X163832684Y-125686185D01*
X164761256Y-125543328D02*
X165046970Y-125543328D01*
X165046970Y-125543328D02*
X165189827Y-125614757D01*
X165189827Y-125614757D02*
X165332684Y-125757614D01*
X165332684Y-125757614D02*
X165404113Y-126043328D01*
X165404113Y-126043328D02*
X165404113Y-126543328D01*
X165404113Y-126543328D02*
X165332684Y-126829042D01*
X165332684Y-126829042D02*
X165189827Y-126971900D01*
X165189827Y-126971900D02*
X165046970Y-127043328D01*
X165046970Y-127043328D02*
X164761256Y-127043328D01*
X164761256Y-127043328D02*
X164618399Y-126971900D01*
X164618399Y-126971900D02*
X164475541Y-126829042D01*
X164475541Y-126829042D02*
X164404113Y-126543328D01*
X164404113Y-126543328D02*
X164404113Y-126043328D01*
X164404113Y-126043328D02*
X164475541Y-125757614D01*
X164475541Y-125757614D02*
X164618399Y-125614757D01*
X164618399Y-125614757D02*
X164761256Y-125543328D01*
X165832685Y-125543328D02*
X166332685Y-127043328D01*
X166332685Y-127043328D02*
X166832685Y-125543328D01*
X167332684Y-127043328D02*
X167332684Y-125543328D01*
X167975542Y-126971900D02*
X168189828Y-127043328D01*
X168189828Y-127043328D02*
X168546970Y-127043328D01*
X168546970Y-127043328D02*
X168689828Y-126971900D01*
X168689828Y-126971900D02*
X168761256Y-126900471D01*
X168761256Y-126900471D02*
X168832685Y-126757614D01*
X168832685Y-126757614D02*
X168832685Y-126614757D01*
X168832685Y-126614757D02*
X168761256Y-126471900D01*
X168761256Y-126471900D02*
X168689828Y-126400471D01*
X168689828Y-126400471D02*
X168546970Y-126329042D01*
X168546970Y-126329042D02*
X168261256Y-126257614D01*
X168261256Y-126257614D02*
X168118399Y-126186185D01*
X168118399Y-126186185D02*
X168046970Y-126114757D01*
X168046970Y-126114757D02*
X167975542Y-125971900D01*
X167975542Y-125971900D02*
X167975542Y-125829042D01*
X167975542Y-125829042D02*
X168046970Y-125686185D01*
X168046970Y-125686185D02*
X168118399Y-125614757D01*
X168118399Y-125614757D02*
X168261256Y-125543328D01*
X168261256Y-125543328D02*
X168618399Y-125543328D01*
X168618399Y-125543328D02*
X168832685Y-125614757D01*
X169475541Y-127043328D02*
X169475541Y-125543328D01*
X170475542Y-125543328D02*
X170761256Y-125543328D01*
X170761256Y-125543328D02*
X170904113Y-125614757D01*
X170904113Y-125614757D02*
X171046970Y-125757614D01*
X171046970Y-125757614D02*
X171118399Y-126043328D01*
X171118399Y-126043328D02*
X171118399Y-126543328D01*
X171118399Y-126543328D02*
X171046970Y-126829042D01*
X171046970Y-126829042D02*
X170904113Y-126971900D01*
X170904113Y-126971900D02*
X170761256Y-127043328D01*
X170761256Y-127043328D02*
X170475542Y-127043328D01*
X170475542Y-127043328D02*
X170332685Y-126971900D01*
X170332685Y-126971900D02*
X170189827Y-126829042D01*
X170189827Y-126829042D02*
X170118399Y-126543328D01*
X170118399Y-126543328D02*
X170118399Y-126043328D01*
X170118399Y-126043328D02*
X170189827Y-125757614D01*
X170189827Y-125757614D02*
X170332685Y-125614757D01*
X170332685Y-125614757D02*
X170475542Y-125543328D01*
X171761256Y-127043328D02*
X171761256Y-125543328D01*
X171761256Y-125543328D02*
X172618399Y-127043328D01*
X172618399Y-127043328D02*
X172618399Y-125543328D01*
X175332685Y-126900471D02*
X175261257Y-126971900D01*
X175261257Y-126971900D02*
X175046971Y-127043328D01*
X175046971Y-127043328D02*
X174904114Y-127043328D01*
X174904114Y-127043328D02*
X174689828Y-126971900D01*
X174689828Y-126971900D02*
X174546971Y-126829042D01*
X174546971Y-126829042D02*
X174475542Y-126686185D01*
X174475542Y-126686185D02*
X174404114Y-126400471D01*
X174404114Y-126400471D02*
X174404114Y-126186185D01*
X174404114Y-126186185D02*
X174475542Y-125900471D01*
X174475542Y-125900471D02*
X174546971Y-125757614D01*
X174546971Y-125757614D02*
X174689828Y-125614757D01*
X174689828Y-125614757D02*
X174904114Y-125543328D01*
X174904114Y-125543328D02*
X175046971Y-125543328D01*
X175046971Y-125543328D02*
X175261257Y-125614757D01*
X175261257Y-125614757D02*
X175332685Y-125686185D01*
X176261257Y-125543328D02*
X176546971Y-125543328D01*
X176546971Y-125543328D02*
X176689828Y-125614757D01*
X176689828Y-125614757D02*
X176832685Y-125757614D01*
X176832685Y-125757614D02*
X176904114Y-126043328D01*
X176904114Y-126043328D02*
X176904114Y-126543328D01*
X176904114Y-126543328D02*
X176832685Y-126829042D01*
X176832685Y-126829042D02*
X176689828Y-126971900D01*
X176689828Y-126971900D02*
X176546971Y-127043328D01*
X176546971Y-127043328D02*
X176261257Y-127043328D01*
X176261257Y-127043328D02*
X176118400Y-126971900D01*
X176118400Y-126971900D02*
X175975542Y-126829042D01*
X175975542Y-126829042D02*
X175904114Y-126543328D01*
X175904114Y-126543328D02*
X175904114Y-126043328D01*
X175904114Y-126043328D02*
X175975542Y-125757614D01*
X175975542Y-125757614D02*
X176118400Y-125614757D01*
X176118400Y-125614757D02*
X176261257Y-125543328D01*
X177546971Y-127043328D02*
X177546971Y-125543328D01*
X177546971Y-125543328D02*
X178404114Y-127043328D01*
X178404114Y-127043328D02*
X178404114Y-125543328D01*
X178904115Y-125543328D02*
X179761258Y-125543328D01*
X179332686Y-127043328D02*
X179332686Y-125543328D01*
X181118400Y-127043328D02*
X180618400Y-126329042D01*
X180261257Y-127043328D02*
X180261257Y-125543328D01*
X180261257Y-125543328D02*
X180832686Y-125543328D01*
X180832686Y-125543328D02*
X180975543Y-125614757D01*
X180975543Y-125614757D02*
X181046972Y-125686185D01*
X181046972Y-125686185D02*
X181118400Y-125829042D01*
X181118400Y-125829042D02*
X181118400Y-126043328D01*
X181118400Y-126043328D02*
X181046972Y-126186185D01*
X181046972Y-126186185D02*
X180975543Y-126257614D01*
X180975543Y-126257614D02*
X180832686Y-126329042D01*
X180832686Y-126329042D02*
X180261257Y-126329042D01*
X182046972Y-125543328D02*
X182332686Y-125543328D01*
X182332686Y-125543328D02*
X182475543Y-125614757D01*
X182475543Y-125614757D02*
X182618400Y-125757614D01*
X182618400Y-125757614D02*
X182689829Y-126043328D01*
X182689829Y-126043328D02*
X182689829Y-126543328D01*
X182689829Y-126543328D02*
X182618400Y-126829042D01*
X182618400Y-126829042D02*
X182475543Y-126971900D01*
X182475543Y-126971900D02*
X182332686Y-127043328D01*
X182332686Y-127043328D02*
X182046972Y-127043328D01*
X182046972Y-127043328D02*
X181904115Y-126971900D01*
X181904115Y-126971900D02*
X181761257Y-126829042D01*
X181761257Y-126829042D02*
X181689829Y-126543328D01*
X181689829Y-126543328D02*
X181689829Y-126043328D01*
X181689829Y-126043328D02*
X181761257Y-125757614D01*
X181761257Y-125757614D02*
X181904115Y-125614757D01*
X181904115Y-125614757D02*
X182046972Y-125543328D01*
X184046972Y-127043328D02*
X183332686Y-127043328D01*
X183332686Y-127043328D02*
X183332686Y-125543328D01*
X185261258Y-127043328D02*
X184546972Y-127043328D01*
X184546972Y-127043328D02*
X184546972Y-125543328D01*
X185761258Y-126257614D02*
X186261258Y-126257614D01*
X186475544Y-127043328D02*
X185761258Y-127043328D01*
X185761258Y-127043328D02*
X185761258Y-125543328D01*
X185761258Y-125543328D02*
X186475544Y-125543328D01*
X187975544Y-127043328D02*
X187475544Y-126329042D01*
X187118401Y-127043328D02*
X187118401Y-125543328D01*
X187118401Y-125543328D02*
X187689830Y-125543328D01*
X187689830Y-125543328D02*
X187832687Y-125614757D01*
X187832687Y-125614757D02*
X187904116Y-125686185D01*
X187904116Y-125686185D02*
X187975544Y-125829042D01*
X187975544Y-125829042D02*
X187975544Y-126043328D01*
X187975544Y-126043328D02*
X187904116Y-126186185D01*
X187904116Y-126186185D02*
X187832687Y-126257614D01*
X187832687Y-126257614D02*
X187689830Y-126329042D01*
X187689830Y-126329042D02*
X187118401Y-126329042D01*
X169404114Y-128458328D02*
X169761257Y-129458328D01*
X169761257Y-129458328D02*
X170118400Y-128458328D01*
X171475543Y-129458328D02*
X170618400Y-129458328D01*
X171046971Y-129458328D02*
X171046971Y-127958328D01*
X171046971Y-127958328D02*
X170904114Y-128172614D01*
X170904114Y-128172614D02*
X170761257Y-128315471D01*
X170761257Y-128315471D02*
X170618400Y-128386900D01*
X172118399Y-129315471D02*
X172189828Y-129386900D01*
X172189828Y-129386900D02*
X172118399Y-129458328D01*
X172118399Y-129458328D02*
X172046971Y-129386900D01*
X172046971Y-129386900D02*
X172118399Y-129315471D01*
X172118399Y-129315471D02*
X172118399Y-129458328D01*
X173118400Y-127958328D02*
X173261257Y-127958328D01*
X173261257Y-127958328D02*
X173404114Y-128029757D01*
X173404114Y-128029757D02*
X173475543Y-128101185D01*
X173475543Y-128101185D02*
X173546971Y-128244042D01*
X173546971Y-128244042D02*
X173618400Y-128529757D01*
X173618400Y-128529757D02*
X173618400Y-128886900D01*
X173618400Y-128886900D02*
X173546971Y-129172614D01*
X173546971Y-129172614D02*
X173475543Y-129315471D01*
X173475543Y-129315471D02*
X173404114Y-129386900D01*
X173404114Y-129386900D02*
X173261257Y-129458328D01*
X173261257Y-129458328D02*
X173118400Y-129458328D01*
X173118400Y-129458328D02*
X172975543Y-129386900D01*
X172975543Y-129386900D02*
X172904114Y-129315471D01*
X172904114Y-129315471D02*
X172832685Y-129172614D01*
X172832685Y-129172614D02*
X172761257Y-128886900D01*
X172761257Y-128886900D02*
X172761257Y-128529757D01*
X172761257Y-128529757D02*
X172832685Y-128244042D01*
X172832685Y-128244042D02*
X172904114Y-128101185D01*
X172904114Y-128101185D02*
X172975543Y-128029757D01*
X172975543Y-128029757D02*
X173118400Y-127958328D01*
X174261256Y-129315471D02*
X174332685Y-129386900D01*
X174332685Y-129386900D02*
X174261256Y-129458328D01*
X174261256Y-129458328D02*
X174189828Y-129386900D01*
X174189828Y-129386900D02*
X174261256Y-129315471D01*
X174261256Y-129315471D02*
X174261256Y-129458328D01*
X175761257Y-129458328D02*
X174904114Y-129458328D01*
X175332685Y-129458328D02*
X175332685Y-127958328D01*
X175332685Y-127958328D02*
X175189828Y-128172614D01*
X175189828Y-128172614D02*
X175046971Y-128315471D01*
X175046971Y-128315471D02*
X174904114Y-128386900D01*
D11*
X129740819Y-88622094D02*
X128740819Y-88622094D01*
X128740819Y-88622094D02*
X128740819Y-88383999D01*
X128740819Y-88383999D02*
X128788438Y-88241142D01*
X128788438Y-88241142D02*
X128883676Y-88145904D01*
X128883676Y-88145904D02*
X128978914Y-88098285D01*
X128978914Y-88098285D02*
X129169390Y-88050666D01*
X129169390Y-88050666D02*
X129312247Y-88050666D01*
X129312247Y-88050666D02*
X129502723Y-88098285D01*
X129502723Y-88098285D02*
X129597961Y-88145904D01*
X129597961Y-88145904D02*
X129693200Y-88241142D01*
X129693200Y-88241142D02*
X129740819Y-88383999D01*
X129740819Y-88383999D02*
X129740819Y-88622094D01*
X129740819Y-87098285D02*
X129740819Y-87669713D01*
X129740819Y-87383999D02*
X128740819Y-87383999D01*
X128740819Y-87383999D02*
X128883676Y-87479237D01*
X128883676Y-87479237D02*
X128978914Y-87574475D01*
X128978914Y-87574475D02*
X129026533Y-87669713D01*
X128343819Y-87637904D02*
X127343819Y-87637904D01*
X128343819Y-87066476D02*
X127772390Y-87495047D01*
X127343819Y-87066476D02*
X127915247Y-87637904D01*
X132661819Y-88622094D02*
X131661819Y-88622094D01*
X131661819Y-88622094D02*
X131661819Y-88383999D01*
X131661819Y-88383999D02*
X131709438Y-88241142D01*
X131709438Y-88241142D02*
X131804676Y-88145904D01*
X131804676Y-88145904D02*
X131899914Y-88098285D01*
X131899914Y-88098285D02*
X132090390Y-88050666D01*
X132090390Y-88050666D02*
X132233247Y-88050666D01*
X132233247Y-88050666D02*
X132423723Y-88098285D01*
X132423723Y-88098285D02*
X132518961Y-88145904D01*
X132518961Y-88145904D02*
X132614200Y-88241142D01*
X132614200Y-88241142D02*
X132661819Y-88383999D01*
X132661819Y-88383999D02*
X132661819Y-88622094D01*
X131757057Y-87669713D02*
X131709438Y-87622094D01*
X131709438Y-87622094D02*
X131661819Y-87526856D01*
X131661819Y-87526856D02*
X131661819Y-87288761D01*
X131661819Y-87288761D02*
X131709438Y-87193523D01*
X131709438Y-87193523D02*
X131757057Y-87145904D01*
X131757057Y-87145904D02*
X131852295Y-87098285D01*
X131852295Y-87098285D02*
X131947533Y-87098285D01*
X131947533Y-87098285D02*
X132090390Y-87145904D01*
X132090390Y-87145904D02*
X132661819Y-87717332D01*
X132661819Y-87717332D02*
X132661819Y-87098285D01*
X131264819Y-87637904D02*
X130264819Y-87637904D01*
X131264819Y-87066476D02*
X130693390Y-87495047D01*
X130264819Y-87066476D02*
X130836247Y-87637904D01*
X123898819Y-88622094D02*
X122898819Y-88622094D01*
X122898819Y-88622094D02*
X122898819Y-88383999D01*
X122898819Y-88383999D02*
X122946438Y-88241142D01*
X122946438Y-88241142D02*
X123041676Y-88145904D01*
X123041676Y-88145904D02*
X123136914Y-88098285D01*
X123136914Y-88098285D02*
X123327390Y-88050666D01*
X123327390Y-88050666D02*
X123470247Y-88050666D01*
X123470247Y-88050666D02*
X123660723Y-88098285D01*
X123660723Y-88098285D02*
X123755961Y-88145904D01*
X123755961Y-88145904D02*
X123851200Y-88241142D01*
X123851200Y-88241142D02*
X123898819Y-88383999D01*
X123898819Y-88383999D02*
X123898819Y-88622094D01*
X123232152Y-87193523D02*
X123898819Y-87193523D01*
X122851200Y-87431618D02*
X123565485Y-87669713D01*
X123565485Y-87669713D02*
X123565485Y-87050666D01*
X122501819Y-87637904D02*
X121501819Y-87637904D01*
X122501819Y-87066476D02*
X121930390Y-87495047D01*
X121501819Y-87066476D02*
X122073247Y-87637904D01*
X111960819Y-88622094D02*
X110960819Y-88622094D01*
X110960819Y-88622094D02*
X110960819Y-88383999D01*
X110960819Y-88383999D02*
X111008438Y-88241142D01*
X111008438Y-88241142D02*
X111103676Y-88145904D01*
X111103676Y-88145904D02*
X111198914Y-88098285D01*
X111198914Y-88098285D02*
X111389390Y-88050666D01*
X111389390Y-88050666D02*
X111532247Y-88050666D01*
X111532247Y-88050666D02*
X111722723Y-88098285D01*
X111722723Y-88098285D02*
X111817961Y-88145904D01*
X111817961Y-88145904D02*
X111913200Y-88241142D01*
X111913200Y-88241142D02*
X111960819Y-88383999D01*
X111960819Y-88383999D02*
X111960819Y-88622094D01*
X110960819Y-87145904D02*
X110960819Y-87622094D01*
X110960819Y-87622094D02*
X111437009Y-87669713D01*
X111437009Y-87669713D02*
X111389390Y-87622094D01*
X111389390Y-87622094D02*
X111341771Y-87526856D01*
X111341771Y-87526856D02*
X111341771Y-87288761D01*
X111341771Y-87288761D02*
X111389390Y-87193523D01*
X111389390Y-87193523D02*
X111437009Y-87145904D01*
X111437009Y-87145904D02*
X111532247Y-87098285D01*
X111532247Y-87098285D02*
X111770342Y-87098285D01*
X111770342Y-87098285D02*
X111865580Y-87145904D01*
X111865580Y-87145904D02*
X111913200Y-87193523D01*
X111913200Y-87193523D02*
X111960819Y-87288761D01*
X111960819Y-87288761D02*
X111960819Y-87526856D01*
X111960819Y-87526856D02*
X111913200Y-87622094D01*
X111913200Y-87622094D02*
X111865580Y-87669713D01*
X110563819Y-87637904D02*
X109563819Y-87637904D01*
X110563819Y-87066476D02*
X109992390Y-87495047D01*
X109563819Y-87066476D02*
X110135247Y-87637904D01*
X115008819Y-88495094D02*
X114008819Y-88495094D01*
X114008819Y-88495094D02*
X114008819Y-88256999D01*
X114008819Y-88256999D02*
X114056438Y-88114142D01*
X114056438Y-88114142D02*
X114151676Y-88018904D01*
X114151676Y-88018904D02*
X114246914Y-87971285D01*
X114246914Y-87971285D02*
X114437390Y-87923666D01*
X114437390Y-87923666D02*
X114580247Y-87923666D01*
X114580247Y-87923666D02*
X114770723Y-87971285D01*
X114770723Y-87971285D02*
X114865961Y-88018904D01*
X114865961Y-88018904D02*
X114961200Y-88114142D01*
X114961200Y-88114142D02*
X115008819Y-88256999D01*
X115008819Y-88256999D02*
X115008819Y-88495094D01*
X114008819Y-87066523D02*
X114008819Y-87256999D01*
X114008819Y-87256999D02*
X114056438Y-87352237D01*
X114056438Y-87352237D02*
X114104057Y-87399856D01*
X114104057Y-87399856D02*
X114246914Y-87495094D01*
X114246914Y-87495094D02*
X114437390Y-87542713D01*
X114437390Y-87542713D02*
X114818342Y-87542713D01*
X114818342Y-87542713D02*
X114913580Y-87495094D01*
X114913580Y-87495094D02*
X114961200Y-87447475D01*
X114961200Y-87447475D02*
X115008819Y-87352237D01*
X115008819Y-87352237D02*
X115008819Y-87161761D01*
X115008819Y-87161761D02*
X114961200Y-87066523D01*
X114961200Y-87066523D02*
X114913580Y-87018904D01*
X114913580Y-87018904D02*
X114818342Y-86971285D01*
X114818342Y-86971285D02*
X114580247Y-86971285D01*
X114580247Y-86971285D02*
X114485009Y-87018904D01*
X114485009Y-87018904D02*
X114437390Y-87066523D01*
X114437390Y-87066523D02*
X114389771Y-87161761D01*
X114389771Y-87161761D02*
X114389771Y-87352237D01*
X114389771Y-87352237D02*
X114437390Y-87447475D01*
X114437390Y-87447475D02*
X114485009Y-87495094D01*
X114485009Y-87495094D02*
X114580247Y-87542713D01*
X113611819Y-87637904D02*
X112611819Y-87637904D01*
X113611819Y-87066476D02*
X113040390Y-87495047D01*
X112611819Y-87066476D02*
X113183247Y-87637904D01*
X118056819Y-88622094D02*
X117056819Y-88622094D01*
X117056819Y-88622094D02*
X117056819Y-88383999D01*
X117056819Y-88383999D02*
X117104438Y-88241142D01*
X117104438Y-88241142D02*
X117199676Y-88145904D01*
X117199676Y-88145904D02*
X117294914Y-88098285D01*
X117294914Y-88098285D02*
X117485390Y-88050666D01*
X117485390Y-88050666D02*
X117628247Y-88050666D01*
X117628247Y-88050666D02*
X117818723Y-88098285D01*
X117818723Y-88098285D02*
X117913961Y-88145904D01*
X117913961Y-88145904D02*
X118009200Y-88241142D01*
X118009200Y-88241142D02*
X118056819Y-88383999D01*
X118056819Y-88383999D02*
X118056819Y-88622094D01*
X117056819Y-87717332D02*
X117056819Y-87050666D01*
X117056819Y-87050666D02*
X118056819Y-87479237D01*
X116659819Y-87637904D02*
X115659819Y-87637904D01*
X116659819Y-87066476D02*
X116088390Y-87495047D01*
X115659819Y-87066476D02*
X116231247Y-87637904D01*
X120977819Y-88622094D02*
X119977819Y-88622094D01*
X119977819Y-88622094D02*
X119977819Y-88383999D01*
X119977819Y-88383999D02*
X120025438Y-88241142D01*
X120025438Y-88241142D02*
X120120676Y-88145904D01*
X120120676Y-88145904D02*
X120215914Y-88098285D01*
X120215914Y-88098285D02*
X120406390Y-88050666D01*
X120406390Y-88050666D02*
X120549247Y-88050666D01*
X120549247Y-88050666D02*
X120739723Y-88098285D01*
X120739723Y-88098285D02*
X120834961Y-88145904D01*
X120834961Y-88145904D02*
X120930200Y-88241142D01*
X120930200Y-88241142D02*
X120977819Y-88383999D01*
X120977819Y-88383999D02*
X120977819Y-88622094D01*
X120406390Y-87479237D02*
X120358771Y-87574475D01*
X120358771Y-87574475D02*
X120311152Y-87622094D01*
X120311152Y-87622094D02*
X120215914Y-87669713D01*
X120215914Y-87669713D02*
X120168295Y-87669713D01*
X120168295Y-87669713D02*
X120073057Y-87622094D01*
X120073057Y-87622094D02*
X120025438Y-87574475D01*
X120025438Y-87574475D02*
X119977819Y-87479237D01*
X119977819Y-87479237D02*
X119977819Y-87288761D01*
X119977819Y-87288761D02*
X120025438Y-87193523D01*
X120025438Y-87193523D02*
X120073057Y-87145904D01*
X120073057Y-87145904D02*
X120168295Y-87098285D01*
X120168295Y-87098285D02*
X120215914Y-87098285D01*
X120215914Y-87098285D02*
X120311152Y-87145904D01*
X120311152Y-87145904D02*
X120358771Y-87193523D01*
X120358771Y-87193523D02*
X120406390Y-87288761D01*
X120406390Y-87288761D02*
X120406390Y-87479237D01*
X120406390Y-87479237D02*
X120454009Y-87574475D01*
X120454009Y-87574475D02*
X120501628Y-87622094D01*
X120501628Y-87622094D02*
X120596866Y-87669713D01*
X120596866Y-87669713D02*
X120787342Y-87669713D01*
X120787342Y-87669713D02*
X120882580Y-87622094D01*
X120882580Y-87622094D02*
X120930200Y-87574475D01*
X120930200Y-87574475D02*
X120977819Y-87479237D01*
X120977819Y-87479237D02*
X120977819Y-87288761D01*
X120977819Y-87288761D02*
X120930200Y-87193523D01*
X120930200Y-87193523D02*
X120882580Y-87145904D01*
X120882580Y-87145904D02*
X120787342Y-87098285D01*
X120787342Y-87098285D02*
X120596866Y-87098285D01*
X120596866Y-87098285D02*
X120501628Y-87145904D01*
X120501628Y-87145904D02*
X120454009Y-87193523D01*
X120454009Y-87193523D02*
X120406390Y-87288761D01*
X119580819Y-87637904D02*
X118580819Y-87637904D01*
X119580819Y-87066476D02*
X119009390Y-87495047D01*
X118580819Y-87066476D02*
X119152247Y-87637904D01*
X153108819Y-88622094D02*
X152108819Y-88622094D01*
X152108819Y-88622094D02*
X152108819Y-88383999D01*
X152108819Y-88383999D02*
X152156438Y-88241142D01*
X152156438Y-88241142D02*
X152251676Y-88145904D01*
X152251676Y-88145904D02*
X152346914Y-88098285D01*
X152346914Y-88098285D02*
X152537390Y-88050666D01*
X152537390Y-88050666D02*
X152680247Y-88050666D01*
X152680247Y-88050666D02*
X152870723Y-88098285D01*
X152870723Y-88098285D02*
X152965961Y-88145904D01*
X152965961Y-88145904D02*
X153061200Y-88241142D01*
X153061200Y-88241142D02*
X153108819Y-88383999D01*
X153108819Y-88383999D02*
X153108819Y-88622094D01*
X153108819Y-87574475D02*
X153108819Y-87383999D01*
X153108819Y-87383999D02*
X153061200Y-87288761D01*
X153061200Y-87288761D02*
X153013580Y-87241142D01*
X153013580Y-87241142D02*
X152870723Y-87145904D01*
X152870723Y-87145904D02*
X152680247Y-87098285D01*
X152680247Y-87098285D02*
X152299295Y-87098285D01*
X152299295Y-87098285D02*
X152204057Y-87145904D01*
X152204057Y-87145904D02*
X152156438Y-87193523D01*
X152156438Y-87193523D02*
X152108819Y-87288761D01*
X152108819Y-87288761D02*
X152108819Y-87479237D01*
X152108819Y-87479237D02*
X152156438Y-87574475D01*
X152156438Y-87574475D02*
X152204057Y-87622094D01*
X152204057Y-87622094D02*
X152299295Y-87669713D01*
X152299295Y-87669713D02*
X152537390Y-87669713D01*
X152537390Y-87669713D02*
X152632628Y-87622094D01*
X152632628Y-87622094D02*
X152680247Y-87574475D01*
X152680247Y-87574475D02*
X152727866Y-87479237D01*
X152727866Y-87479237D02*
X152727866Y-87288761D01*
X152727866Y-87288761D02*
X152680247Y-87193523D01*
X152680247Y-87193523D02*
X152632628Y-87145904D01*
X152632628Y-87145904D02*
X152537390Y-87098285D01*
X151711819Y-87637904D02*
X150711819Y-87637904D01*
X151711819Y-87066476D02*
X151140390Y-87495047D01*
X150711819Y-87066476D02*
X151283247Y-87637904D01*
X155902819Y-89606285D02*
X154902819Y-89606285D01*
X154902819Y-89606285D02*
X154902819Y-89368190D01*
X154902819Y-89368190D02*
X154950438Y-89225333D01*
X154950438Y-89225333D02*
X155045676Y-89130095D01*
X155045676Y-89130095D02*
X155140914Y-89082476D01*
X155140914Y-89082476D02*
X155331390Y-89034857D01*
X155331390Y-89034857D02*
X155474247Y-89034857D01*
X155474247Y-89034857D02*
X155664723Y-89082476D01*
X155664723Y-89082476D02*
X155759961Y-89130095D01*
X155759961Y-89130095D02*
X155855200Y-89225333D01*
X155855200Y-89225333D02*
X155902819Y-89368190D01*
X155902819Y-89368190D02*
X155902819Y-89606285D01*
X155902819Y-88082476D02*
X155902819Y-88653904D01*
X155902819Y-88368190D02*
X154902819Y-88368190D01*
X154902819Y-88368190D02*
X155045676Y-88463428D01*
X155045676Y-88463428D02*
X155140914Y-88558666D01*
X155140914Y-88558666D02*
X155188533Y-88653904D01*
X154902819Y-87463428D02*
X154902819Y-87368190D01*
X154902819Y-87368190D02*
X154950438Y-87272952D01*
X154950438Y-87272952D02*
X154998057Y-87225333D01*
X154998057Y-87225333D02*
X155093295Y-87177714D01*
X155093295Y-87177714D02*
X155283771Y-87130095D01*
X155283771Y-87130095D02*
X155521866Y-87130095D01*
X155521866Y-87130095D02*
X155712342Y-87177714D01*
X155712342Y-87177714D02*
X155807580Y-87225333D01*
X155807580Y-87225333D02*
X155855200Y-87272952D01*
X155855200Y-87272952D02*
X155902819Y-87368190D01*
X155902819Y-87368190D02*
X155902819Y-87463428D01*
X155902819Y-87463428D02*
X155855200Y-87558666D01*
X155855200Y-87558666D02*
X155807580Y-87606285D01*
X155807580Y-87606285D02*
X155712342Y-87653904D01*
X155712342Y-87653904D02*
X155521866Y-87701523D01*
X155521866Y-87701523D02*
X155283771Y-87701523D01*
X155283771Y-87701523D02*
X155093295Y-87653904D01*
X155093295Y-87653904D02*
X154998057Y-87606285D01*
X154998057Y-87606285D02*
X154950438Y-87558666D01*
X154950438Y-87558666D02*
X154902819Y-87463428D01*
X154505819Y-87637904D02*
X153505819Y-87637904D01*
X154505819Y-87066476D02*
X153934390Y-87495047D01*
X153505819Y-87066476D02*
X154077247Y-87637904D01*
X150187819Y-89606285D02*
X149187819Y-89606285D01*
X149187819Y-89606285D02*
X149187819Y-89368190D01*
X149187819Y-89368190D02*
X149235438Y-89225333D01*
X149235438Y-89225333D02*
X149330676Y-89130095D01*
X149330676Y-89130095D02*
X149425914Y-89082476D01*
X149425914Y-89082476D02*
X149616390Y-89034857D01*
X149616390Y-89034857D02*
X149759247Y-89034857D01*
X149759247Y-89034857D02*
X149949723Y-89082476D01*
X149949723Y-89082476D02*
X150044961Y-89130095D01*
X150044961Y-89130095D02*
X150140200Y-89225333D01*
X150140200Y-89225333D02*
X150187819Y-89368190D01*
X150187819Y-89368190D02*
X150187819Y-89606285D01*
X150187819Y-88082476D02*
X150187819Y-88653904D01*
X150187819Y-88368190D02*
X149187819Y-88368190D01*
X149187819Y-88368190D02*
X149330676Y-88463428D01*
X149330676Y-88463428D02*
X149425914Y-88558666D01*
X149425914Y-88558666D02*
X149473533Y-88653904D01*
X150187819Y-87130095D02*
X150187819Y-87701523D01*
X150187819Y-87415809D02*
X149187819Y-87415809D01*
X149187819Y-87415809D02*
X149330676Y-87511047D01*
X149330676Y-87511047D02*
X149425914Y-87606285D01*
X149425914Y-87606285D02*
X149473533Y-87701523D01*
X148790819Y-87637904D02*
X147790819Y-87637904D01*
X148790819Y-87066476D02*
X148219390Y-87495047D01*
X147790819Y-87066476D02*
X148362247Y-87637904D01*
X147266819Y-89606285D02*
X146266819Y-89606285D01*
X146266819Y-89606285D02*
X146266819Y-89368190D01*
X146266819Y-89368190D02*
X146314438Y-89225333D01*
X146314438Y-89225333D02*
X146409676Y-89130095D01*
X146409676Y-89130095D02*
X146504914Y-89082476D01*
X146504914Y-89082476D02*
X146695390Y-89034857D01*
X146695390Y-89034857D02*
X146838247Y-89034857D01*
X146838247Y-89034857D02*
X147028723Y-89082476D01*
X147028723Y-89082476D02*
X147123961Y-89130095D01*
X147123961Y-89130095D02*
X147219200Y-89225333D01*
X147219200Y-89225333D02*
X147266819Y-89368190D01*
X147266819Y-89368190D02*
X147266819Y-89606285D01*
X147266819Y-88082476D02*
X147266819Y-88653904D01*
X147266819Y-88368190D02*
X146266819Y-88368190D01*
X146266819Y-88368190D02*
X146409676Y-88463428D01*
X146409676Y-88463428D02*
X146504914Y-88558666D01*
X146504914Y-88558666D02*
X146552533Y-88653904D01*
X146362057Y-87701523D02*
X146314438Y-87653904D01*
X146314438Y-87653904D02*
X146266819Y-87558666D01*
X146266819Y-87558666D02*
X146266819Y-87320571D01*
X146266819Y-87320571D02*
X146314438Y-87225333D01*
X146314438Y-87225333D02*
X146362057Y-87177714D01*
X146362057Y-87177714D02*
X146457295Y-87130095D01*
X146457295Y-87130095D02*
X146552533Y-87130095D01*
X146552533Y-87130095D02*
X146695390Y-87177714D01*
X146695390Y-87177714D02*
X147266819Y-87749142D01*
X147266819Y-87749142D02*
X147266819Y-87130095D01*
X145869819Y-87637904D02*
X144869819Y-87637904D01*
X145869819Y-87066476D02*
X145298390Y-87495047D01*
X144869819Y-87066476D02*
X145441247Y-87637904D01*
X144345819Y-89606285D02*
X143345819Y-89606285D01*
X143345819Y-89606285D02*
X143345819Y-89368190D01*
X143345819Y-89368190D02*
X143393438Y-89225333D01*
X143393438Y-89225333D02*
X143488676Y-89130095D01*
X143488676Y-89130095D02*
X143583914Y-89082476D01*
X143583914Y-89082476D02*
X143774390Y-89034857D01*
X143774390Y-89034857D02*
X143917247Y-89034857D01*
X143917247Y-89034857D02*
X144107723Y-89082476D01*
X144107723Y-89082476D02*
X144202961Y-89130095D01*
X144202961Y-89130095D02*
X144298200Y-89225333D01*
X144298200Y-89225333D02*
X144345819Y-89368190D01*
X144345819Y-89368190D02*
X144345819Y-89606285D01*
X144345819Y-88082476D02*
X144345819Y-88653904D01*
X144345819Y-88368190D02*
X143345819Y-88368190D01*
X143345819Y-88368190D02*
X143488676Y-88463428D01*
X143488676Y-88463428D02*
X143583914Y-88558666D01*
X143583914Y-88558666D02*
X143631533Y-88653904D01*
X143345819Y-87749142D02*
X143345819Y-87130095D01*
X143345819Y-87130095D02*
X143726771Y-87463428D01*
X143726771Y-87463428D02*
X143726771Y-87320571D01*
X143726771Y-87320571D02*
X143774390Y-87225333D01*
X143774390Y-87225333D02*
X143822009Y-87177714D01*
X143822009Y-87177714D02*
X143917247Y-87130095D01*
X143917247Y-87130095D02*
X144155342Y-87130095D01*
X144155342Y-87130095D02*
X144250580Y-87177714D01*
X144250580Y-87177714D02*
X144298200Y-87225333D01*
X144298200Y-87225333D02*
X144345819Y-87320571D01*
X144345819Y-87320571D02*
X144345819Y-87606285D01*
X144345819Y-87606285D02*
X144298200Y-87701523D01*
X144298200Y-87701523D02*
X144250580Y-87749142D01*
X142948819Y-87637904D02*
X141948819Y-87637904D01*
X142948819Y-87066476D02*
X142377390Y-87495047D01*
X141948819Y-87066476D02*
X142520247Y-87637904D01*
X141424819Y-89606285D02*
X140424819Y-89606285D01*
X140424819Y-89606285D02*
X140424819Y-89368190D01*
X140424819Y-89368190D02*
X140472438Y-89225333D01*
X140472438Y-89225333D02*
X140567676Y-89130095D01*
X140567676Y-89130095D02*
X140662914Y-89082476D01*
X140662914Y-89082476D02*
X140853390Y-89034857D01*
X140853390Y-89034857D02*
X140996247Y-89034857D01*
X140996247Y-89034857D02*
X141186723Y-89082476D01*
X141186723Y-89082476D02*
X141281961Y-89130095D01*
X141281961Y-89130095D02*
X141377200Y-89225333D01*
X141377200Y-89225333D02*
X141424819Y-89368190D01*
X141424819Y-89368190D02*
X141424819Y-89606285D01*
X141424819Y-88082476D02*
X141424819Y-88653904D01*
X141424819Y-88368190D02*
X140424819Y-88368190D01*
X140424819Y-88368190D02*
X140567676Y-88463428D01*
X140567676Y-88463428D02*
X140662914Y-88558666D01*
X140662914Y-88558666D02*
X140710533Y-88653904D01*
X140758152Y-87225333D02*
X141424819Y-87225333D01*
X140377200Y-87463428D02*
X141091485Y-87701523D01*
X141091485Y-87701523D02*
X141091485Y-87082476D01*
X140027819Y-87637904D02*
X139027819Y-87637904D01*
X140027819Y-87066476D02*
X139456390Y-87495047D01*
X139027819Y-87066476D02*
X139599247Y-87637904D01*
X138503819Y-89606285D02*
X137503819Y-89606285D01*
X137503819Y-89606285D02*
X137503819Y-89368190D01*
X137503819Y-89368190D02*
X137551438Y-89225333D01*
X137551438Y-89225333D02*
X137646676Y-89130095D01*
X137646676Y-89130095D02*
X137741914Y-89082476D01*
X137741914Y-89082476D02*
X137932390Y-89034857D01*
X137932390Y-89034857D02*
X138075247Y-89034857D01*
X138075247Y-89034857D02*
X138265723Y-89082476D01*
X138265723Y-89082476D02*
X138360961Y-89130095D01*
X138360961Y-89130095D02*
X138456200Y-89225333D01*
X138456200Y-89225333D02*
X138503819Y-89368190D01*
X138503819Y-89368190D02*
X138503819Y-89606285D01*
X138503819Y-88082476D02*
X138503819Y-88653904D01*
X138503819Y-88368190D02*
X137503819Y-88368190D01*
X137503819Y-88368190D02*
X137646676Y-88463428D01*
X137646676Y-88463428D02*
X137741914Y-88558666D01*
X137741914Y-88558666D02*
X137789533Y-88653904D01*
X137503819Y-87177714D02*
X137503819Y-87653904D01*
X137503819Y-87653904D02*
X137980009Y-87701523D01*
X137980009Y-87701523D02*
X137932390Y-87653904D01*
X137932390Y-87653904D02*
X137884771Y-87558666D01*
X137884771Y-87558666D02*
X137884771Y-87320571D01*
X137884771Y-87320571D02*
X137932390Y-87225333D01*
X137932390Y-87225333D02*
X137980009Y-87177714D01*
X137980009Y-87177714D02*
X138075247Y-87130095D01*
X138075247Y-87130095D02*
X138313342Y-87130095D01*
X138313342Y-87130095D02*
X138408580Y-87177714D01*
X138408580Y-87177714D02*
X138456200Y-87225333D01*
X138456200Y-87225333D02*
X138503819Y-87320571D01*
X138503819Y-87320571D02*
X138503819Y-87558666D01*
X138503819Y-87558666D02*
X138456200Y-87653904D01*
X138456200Y-87653904D02*
X138408580Y-87701523D01*
X137106819Y-87637904D02*
X136106819Y-87637904D01*
X137106819Y-87066476D02*
X136535390Y-87495047D01*
X136106819Y-87066476D02*
X136678247Y-87637904D01*
X135582819Y-89606285D02*
X134582819Y-89606285D01*
X134582819Y-89606285D02*
X134582819Y-89368190D01*
X134582819Y-89368190D02*
X134630438Y-89225333D01*
X134630438Y-89225333D02*
X134725676Y-89130095D01*
X134725676Y-89130095D02*
X134820914Y-89082476D01*
X134820914Y-89082476D02*
X135011390Y-89034857D01*
X135011390Y-89034857D02*
X135154247Y-89034857D01*
X135154247Y-89034857D02*
X135344723Y-89082476D01*
X135344723Y-89082476D02*
X135439961Y-89130095D01*
X135439961Y-89130095D02*
X135535200Y-89225333D01*
X135535200Y-89225333D02*
X135582819Y-89368190D01*
X135582819Y-89368190D02*
X135582819Y-89606285D01*
X135582819Y-88082476D02*
X135582819Y-88653904D01*
X135582819Y-88368190D02*
X134582819Y-88368190D01*
X134582819Y-88368190D02*
X134725676Y-88463428D01*
X134725676Y-88463428D02*
X134820914Y-88558666D01*
X134820914Y-88558666D02*
X134868533Y-88653904D01*
X134582819Y-87225333D02*
X134582819Y-87415809D01*
X134582819Y-87415809D02*
X134630438Y-87511047D01*
X134630438Y-87511047D02*
X134678057Y-87558666D01*
X134678057Y-87558666D02*
X134820914Y-87653904D01*
X134820914Y-87653904D02*
X135011390Y-87701523D01*
X135011390Y-87701523D02*
X135392342Y-87701523D01*
X135392342Y-87701523D02*
X135487580Y-87653904D01*
X135487580Y-87653904D02*
X135535200Y-87606285D01*
X135535200Y-87606285D02*
X135582819Y-87511047D01*
X135582819Y-87511047D02*
X135582819Y-87320571D01*
X135582819Y-87320571D02*
X135535200Y-87225333D01*
X135535200Y-87225333D02*
X135487580Y-87177714D01*
X135487580Y-87177714D02*
X135392342Y-87130095D01*
X135392342Y-87130095D02*
X135154247Y-87130095D01*
X135154247Y-87130095D02*
X135059009Y-87177714D01*
X135059009Y-87177714D02*
X135011390Y-87225333D01*
X135011390Y-87225333D02*
X134963771Y-87320571D01*
X134963771Y-87320571D02*
X134963771Y-87511047D01*
X134963771Y-87511047D02*
X135011390Y-87606285D01*
X135011390Y-87606285D02*
X135059009Y-87653904D01*
X135059009Y-87653904D02*
X135154247Y-87701523D01*
X134185819Y-87637904D02*
X133185819Y-87637904D01*
X134185819Y-87066476D02*
X133614390Y-87495047D01*
X133185819Y-87066476D02*
X133757247Y-87637904D01*
X170380819Y-89479285D02*
X169380819Y-89479285D01*
X169380819Y-89479285D02*
X169380819Y-89241190D01*
X169380819Y-89241190D02*
X169428438Y-89098333D01*
X169428438Y-89098333D02*
X169523676Y-89003095D01*
X169523676Y-89003095D02*
X169618914Y-88955476D01*
X169618914Y-88955476D02*
X169809390Y-88907857D01*
X169809390Y-88907857D02*
X169952247Y-88907857D01*
X169952247Y-88907857D02*
X170142723Y-88955476D01*
X170142723Y-88955476D02*
X170237961Y-89003095D01*
X170237961Y-89003095D02*
X170333200Y-89098333D01*
X170333200Y-89098333D02*
X170380819Y-89241190D01*
X170380819Y-89241190D02*
X170380819Y-89479285D01*
X170380819Y-87955476D02*
X170380819Y-88526904D01*
X170380819Y-88241190D02*
X169380819Y-88241190D01*
X169380819Y-88241190D02*
X169523676Y-88336428D01*
X169523676Y-88336428D02*
X169618914Y-88431666D01*
X169618914Y-88431666D02*
X169666533Y-88526904D01*
X169380819Y-87622142D02*
X169380819Y-86955476D01*
X169380819Y-86955476D02*
X170380819Y-87384047D01*
X168856819Y-87637904D02*
X167856819Y-87637904D01*
X168856819Y-87066476D02*
X168285390Y-87495047D01*
X167856819Y-87066476D02*
X168428247Y-87637904D01*
X173301819Y-89479285D02*
X172301819Y-89479285D01*
X172301819Y-89479285D02*
X172301819Y-89241190D01*
X172301819Y-89241190D02*
X172349438Y-89098333D01*
X172349438Y-89098333D02*
X172444676Y-89003095D01*
X172444676Y-89003095D02*
X172539914Y-88955476D01*
X172539914Y-88955476D02*
X172730390Y-88907857D01*
X172730390Y-88907857D02*
X172873247Y-88907857D01*
X172873247Y-88907857D02*
X173063723Y-88955476D01*
X173063723Y-88955476D02*
X173158961Y-89003095D01*
X173158961Y-89003095D02*
X173254200Y-89098333D01*
X173254200Y-89098333D02*
X173301819Y-89241190D01*
X173301819Y-89241190D02*
X173301819Y-89479285D01*
X173301819Y-87955476D02*
X173301819Y-88526904D01*
X173301819Y-88241190D02*
X172301819Y-88241190D01*
X172301819Y-88241190D02*
X172444676Y-88336428D01*
X172444676Y-88336428D02*
X172539914Y-88431666D01*
X172539914Y-88431666D02*
X172587533Y-88526904D01*
X172730390Y-87384047D02*
X172682771Y-87479285D01*
X172682771Y-87479285D02*
X172635152Y-87526904D01*
X172635152Y-87526904D02*
X172539914Y-87574523D01*
X172539914Y-87574523D02*
X172492295Y-87574523D01*
X172492295Y-87574523D02*
X172397057Y-87526904D01*
X172397057Y-87526904D02*
X172349438Y-87479285D01*
X172349438Y-87479285D02*
X172301819Y-87384047D01*
X172301819Y-87384047D02*
X172301819Y-87193571D01*
X172301819Y-87193571D02*
X172349438Y-87098333D01*
X172349438Y-87098333D02*
X172397057Y-87050714D01*
X172397057Y-87050714D02*
X172492295Y-87003095D01*
X172492295Y-87003095D02*
X172539914Y-87003095D01*
X172539914Y-87003095D02*
X172635152Y-87050714D01*
X172635152Y-87050714D02*
X172682771Y-87098333D01*
X172682771Y-87098333D02*
X172730390Y-87193571D01*
X172730390Y-87193571D02*
X172730390Y-87384047D01*
X172730390Y-87384047D02*
X172778009Y-87479285D01*
X172778009Y-87479285D02*
X172825628Y-87526904D01*
X172825628Y-87526904D02*
X172920866Y-87574523D01*
X172920866Y-87574523D02*
X173111342Y-87574523D01*
X173111342Y-87574523D02*
X173206580Y-87526904D01*
X173206580Y-87526904D02*
X173254200Y-87479285D01*
X173254200Y-87479285D02*
X173301819Y-87384047D01*
X173301819Y-87384047D02*
X173301819Y-87193571D01*
X173301819Y-87193571D02*
X173254200Y-87098333D01*
X173254200Y-87098333D02*
X173206580Y-87050714D01*
X173206580Y-87050714D02*
X173111342Y-87003095D01*
X173111342Y-87003095D02*
X172920866Y-87003095D01*
X172920866Y-87003095D02*
X172825628Y-87050714D01*
X172825628Y-87050714D02*
X172778009Y-87098333D01*
X172778009Y-87098333D02*
X172730390Y-87193571D01*
X171904819Y-87510904D02*
X170904819Y-87510904D01*
X171904819Y-86939476D02*
X171333390Y-87368047D01*
X170904819Y-86939476D02*
X171476247Y-87510904D01*
X167332819Y-89606285D02*
X166332819Y-89606285D01*
X166332819Y-89606285D02*
X166332819Y-89368190D01*
X166332819Y-89368190D02*
X166380438Y-89225333D01*
X166380438Y-89225333D02*
X166475676Y-89130095D01*
X166475676Y-89130095D02*
X166570914Y-89082476D01*
X166570914Y-89082476D02*
X166761390Y-89034857D01*
X166761390Y-89034857D02*
X166904247Y-89034857D01*
X166904247Y-89034857D02*
X167094723Y-89082476D01*
X167094723Y-89082476D02*
X167189961Y-89130095D01*
X167189961Y-89130095D02*
X167285200Y-89225333D01*
X167285200Y-89225333D02*
X167332819Y-89368190D01*
X167332819Y-89368190D02*
X167332819Y-89606285D01*
X167332819Y-88082476D02*
X167332819Y-88653904D01*
X167332819Y-88368190D02*
X166332819Y-88368190D01*
X166332819Y-88368190D02*
X166475676Y-88463428D01*
X166475676Y-88463428D02*
X166570914Y-88558666D01*
X166570914Y-88558666D02*
X166618533Y-88653904D01*
X167332819Y-87606285D02*
X167332819Y-87415809D01*
X167332819Y-87415809D02*
X167285200Y-87320571D01*
X167285200Y-87320571D02*
X167237580Y-87272952D01*
X167237580Y-87272952D02*
X167094723Y-87177714D01*
X167094723Y-87177714D02*
X166904247Y-87130095D01*
X166904247Y-87130095D02*
X166523295Y-87130095D01*
X166523295Y-87130095D02*
X166428057Y-87177714D01*
X166428057Y-87177714D02*
X166380438Y-87225333D01*
X166380438Y-87225333D02*
X166332819Y-87320571D01*
X166332819Y-87320571D02*
X166332819Y-87511047D01*
X166332819Y-87511047D02*
X166380438Y-87606285D01*
X166380438Y-87606285D02*
X166428057Y-87653904D01*
X166428057Y-87653904D02*
X166523295Y-87701523D01*
X166523295Y-87701523D02*
X166761390Y-87701523D01*
X166761390Y-87701523D02*
X166856628Y-87653904D01*
X166856628Y-87653904D02*
X166904247Y-87606285D01*
X166904247Y-87606285D02*
X166951866Y-87511047D01*
X166951866Y-87511047D02*
X166951866Y-87320571D01*
X166951866Y-87320571D02*
X166904247Y-87225333D01*
X166904247Y-87225333D02*
X166856628Y-87177714D01*
X166856628Y-87177714D02*
X166761390Y-87130095D01*
X165935819Y-87637904D02*
X164935819Y-87637904D01*
X165935819Y-87066476D02*
X165364390Y-87495047D01*
X164935819Y-87066476D02*
X165507247Y-87637904D01*
X164538819Y-89606285D02*
X163538819Y-89606285D01*
X163538819Y-89606285D02*
X163538819Y-89368190D01*
X163538819Y-89368190D02*
X163586438Y-89225333D01*
X163586438Y-89225333D02*
X163681676Y-89130095D01*
X163681676Y-89130095D02*
X163776914Y-89082476D01*
X163776914Y-89082476D02*
X163967390Y-89034857D01*
X163967390Y-89034857D02*
X164110247Y-89034857D01*
X164110247Y-89034857D02*
X164300723Y-89082476D01*
X164300723Y-89082476D02*
X164395961Y-89130095D01*
X164395961Y-89130095D02*
X164491200Y-89225333D01*
X164491200Y-89225333D02*
X164538819Y-89368190D01*
X164538819Y-89368190D02*
X164538819Y-89606285D01*
X163634057Y-88653904D02*
X163586438Y-88606285D01*
X163586438Y-88606285D02*
X163538819Y-88511047D01*
X163538819Y-88511047D02*
X163538819Y-88272952D01*
X163538819Y-88272952D02*
X163586438Y-88177714D01*
X163586438Y-88177714D02*
X163634057Y-88130095D01*
X163634057Y-88130095D02*
X163729295Y-88082476D01*
X163729295Y-88082476D02*
X163824533Y-88082476D01*
X163824533Y-88082476D02*
X163967390Y-88130095D01*
X163967390Y-88130095D02*
X164538819Y-88701523D01*
X164538819Y-88701523D02*
X164538819Y-88082476D01*
X163538819Y-87463428D02*
X163538819Y-87368190D01*
X163538819Y-87368190D02*
X163586438Y-87272952D01*
X163586438Y-87272952D02*
X163634057Y-87225333D01*
X163634057Y-87225333D02*
X163729295Y-87177714D01*
X163729295Y-87177714D02*
X163919771Y-87130095D01*
X163919771Y-87130095D02*
X164157866Y-87130095D01*
X164157866Y-87130095D02*
X164348342Y-87177714D01*
X164348342Y-87177714D02*
X164443580Y-87225333D01*
X164443580Y-87225333D02*
X164491200Y-87272952D01*
X164491200Y-87272952D02*
X164538819Y-87368190D01*
X164538819Y-87368190D02*
X164538819Y-87463428D01*
X164538819Y-87463428D02*
X164491200Y-87558666D01*
X164491200Y-87558666D02*
X164443580Y-87606285D01*
X164443580Y-87606285D02*
X164348342Y-87653904D01*
X164348342Y-87653904D02*
X164157866Y-87701523D01*
X164157866Y-87701523D02*
X163919771Y-87701523D01*
X163919771Y-87701523D02*
X163729295Y-87653904D01*
X163729295Y-87653904D02*
X163634057Y-87606285D01*
X163634057Y-87606285D02*
X163586438Y-87558666D01*
X163586438Y-87558666D02*
X163538819Y-87463428D01*
X163141819Y-87637904D02*
X162141819Y-87637904D01*
X163141819Y-87066476D02*
X162570390Y-87495047D01*
X162141819Y-87066476D02*
X162713247Y-87637904D01*
X158569819Y-89479285D02*
X157569819Y-89479285D01*
X157569819Y-89479285D02*
X157569819Y-89241190D01*
X157569819Y-89241190D02*
X157617438Y-89098333D01*
X157617438Y-89098333D02*
X157712676Y-89003095D01*
X157712676Y-89003095D02*
X157807914Y-88955476D01*
X157807914Y-88955476D02*
X157998390Y-88907857D01*
X157998390Y-88907857D02*
X158141247Y-88907857D01*
X158141247Y-88907857D02*
X158331723Y-88955476D01*
X158331723Y-88955476D02*
X158426961Y-89003095D01*
X158426961Y-89003095D02*
X158522200Y-89098333D01*
X158522200Y-89098333D02*
X158569819Y-89241190D01*
X158569819Y-89241190D02*
X158569819Y-89479285D01*
X157665057Y-88526904D02*
X157617438Y-88479285D01*
X157617438Y-88479285D02*
X157569819Y-88384047D01*
X157569819Y-88384047D02*
X157569819Y-88145952D01*
X157569819Y-88145952D02*
X157617438Y-88050714D01*
X157617438Y-88050714D02*
X157665057Y-88003095D01*
X157665057Y-88003095D02*
X157760295Y-87955476D01*
X157760295Y-87955476D02*
X157855533Y-87955476D01*
X157855533Y-87955476D02*
X157998390Y-88003095D01*
X157998390Y-88003095D02*
X158569819Y-88574523D01*
X158569819Y-88574523D02*
X158569819Y-87955476D01*
X158569819Y-87003095D02*
X158569819Y-87574523D01*
X158569819Y-87288809D02*
X157569819Y-87288809D01*
X157569819Y-87288809D02*
X157712676Y-87384047D01*
X157712676Y-87384047D02*
X157807914Y-87479285D01*
X157807914Y-87479285D02*
X157855533Y-87574523D01*
X157299819Y-87637904D02*
X156299819Y-87637904D01*
X157299819Y-87066476D02*
X156728390Y-87495047D01*
X156299819Y-87066476D02*
X156871247Y-87637904D01*
X161617819Y-89606285D02*
X160617819Y-89606285D01*
X160617819Y-89606285D02*
X160617819Y-89368190D01*
X160617819Y-89368190D02*
X160665438Y-89225333D01*
X160665438Y-89225333D02*
X160760676Y-89130095D01*
X160760676Y-89130095D02*
X160855914Y-89082476D01*
X160855914Y-89082476D02*
X161046390Y-89034857D01*
X161046390Y-89034857D02*
X161189247Y-89034857D01*
X161189247Y-89034857D02*
X161379723Y-89082476D01*
X161379723Y-89082476D02*
X161474961Y-89130095D01*
X161474961Y-89130095D02*
X161570200Y-89225333D01*
X161570200Y-89225333D02*
X161617819Y-89368190D01*
X161617819Y-89368190D02*
X161617819Y-89606285D01*
X160713057Y-88653904D02*
X160665438Y-88606285D01*
X160665438Y-88606285D02*
X160617819Y-88511047D01*
X160617819Y-88511047D02*
X160617819Y-88272952D01*
X160617819Y-88272952D02*
X160665438Y-88177714D01*
X160665438Y-88177714D02*
X160713057Y-88130095D01*
X160713057Y-88130095D02*
X160808295Y-88082476D01*
X160808295Y-88082476D02*
X160903533Y-88082476D01*
X160903533Y-88082476D02*
X161046390Y-88130095D01*
X161046390Y-88130095D02*
X161617819Y-88701523D01*
X161617819Y-88701523D02*
X161617819Y-88082476D01*
X160713057Y-87701523D02*
X160665438Y-87653904D01*
X160665438Y-87653904D02*
X160617819Y-87558666D01*
X160617819Y-87558666D02*
X160617819Y-87320571D01*
X160617819Y-87320571D02*
X160665438Y-87225333D01*
X160665438Y-87225333D02*
X160713057Y-87177714D01*
X160713057Y-87177714D02*
X160808295Y-87130095D01*
X160808295Y-87130095D02*
X160903533Y-87130095D01*
X160903533Y-87130095D02*
X161046390Y-87177714D01*
X161046390Y-87177714D02*
X161617819Y-87749142D01*
X161617819Y-87749142D02*
X161617819Y-87130095D01*
X160220819Y-87637904D02*
X159220819Y-87637904D01*
X160220819Y-87066476D02*
X159649390Y-87495047D01*
X159220819Y-87066476D02*
X159792247Y-87637904D01*
X181276666Y-85052819D02*
X181276666Y-85767104D01*
X181276666Y-85767104D02*
X181229047Y-85909961D01*
X181229047Y-85909961D02*
X181133809Y-86005200D01*
X181133809Y-86005200D02*
X180990952Y-86052819D01*
X180990952Y-86052819D02*
X180895714Y-86052819D01*
X182276666Y-86052819D02*
X181705238Y-86052819D01*
X181990952Y-86052819D02*
X181990952Y-85052819D01*
X181990952Y-85052819D02*
X181895714Y-85195676D01*
X181895714Y-85195676D02*
X181800476Y-85290914D01*
X181800476Y-85290914D02*
X181705238Y-85338533D01*
X126373200Y-124067332D02*
X126420819Y-123924475D01*
X126420819Y-123924475D02*
X126420819Y-123686380D01*
X126420819Y-123686380D02*
X126373200Y-123591142D01*
X126373200Y-123591142D02*
X126325580Y-123543523D01*
X126325580Y-123543523D02*
X126230342Y-123495904D01*
X126230342Y-123495904D02*
X126135104Y-123495904D01*
X126135104Y-123495904D02*
X126039866Y-123543523D01*
X126039866Y-123543523D02*
X125992247Y-123591142D01*
X125992247Y-123591142D02*
X125944628Y-123686380D01*
X125944628Y-123686380D02*
X125897009Y-123876856D01*
X125897009Y-123876856D02*
X125849390Y-123972094D01*
X125849390Y-123972094D02*
X125801771Y-124019713D01*
X125801771Y-124019713D02*
X125706533Y-124067332D01*
X125706533Y-124067332D02*
X125611295Y-124067332D01*
X125611295Y-124067332D02*
X125516057Y-124019713D01*
X125516057Y-124019713D02*
X125468438Y-123972094D01*
X125468438Y-123972094D02*
X125420819Y-123876856D01*
X125420819Y-123876856D02*
X125420819Y-123638761D01*
X125420819Y-123638761D02*
X125468438Y-123495904D01*
X125420819Y-123162570D02*
X126420819Y-122924475D01*
X126420819Y-122924475D02*
X125706533Y-122733999D01*
X125706533Y-122733999D02*
X126420819Y-122543523D01*
X126420819Y-122543523D02*
X125420819Y-122305428D01*
X126420819Y-121400666D02*
X126420819Y-121972094D01*
X126420819Y-121686380D02*
X125420819Y-121686380D01*
X125420819Y-121686380D02*
X125563676Y-121781618D01*
X125563676Y-121781618D02*
X125658914Y-121876856D01*
X125658914Y-121876856D02*
X125706533Y-121972094D01*
X126373200Y-115473664D02*
X126420819Y-115330807D01*
X126420819Y-115330807D02*
X126420819Y-115092712D01*
X126420819Y-115092712D02*
X126373200Y-114997474D01*
X126373200Y-114997474D02*
X126325580Y-114949855D01*
X126325580Y-114949855D02*
X126230342Y-114902236D01*
X126230342Y-114902236D02*
X126135104Y-114902236D01*
X126135104Y-114902236D02*
X126039866Y-114949855D01*
X126039866Y-114949855D02*
X125992247Y-114997474D01*
X125992247Y-114997474D02*
X125944628Y-115092712D01*
X125944628Y-115092712D02*
X125897009Y-115283188D01*
X125897009Y-115283188D02*
X125849390Y-115378426D01*
X125849390Y-115378426D02*
X125801771Y-115426045D01*
X125801771Y-115426045D02*
X125706533Y-115473664D01*
X125706533Y-115473664D02*
X125611295Y-115473664D01*
X125611295Y-115473664D02*
X125516057Y-115426045D01*
X125516057Y-115426045D02*
X125468438Y-115378426D01*
X125468438Y-115378426D02*
X125420819Y-115283188D01*
X125420819Y-115283188D02*
X125420819Y-115045093D01*
X125420819Y-115045093D02*
X125468438Y-114902236D01*
X125420819Y-114568902D02*
X126420819Y-114330807D01*
X126420819Y-114330807D02*
X125706533Y-114140331D01*
X125706533Y-114140331D02*
X126420819Y-113949855D01*
X126420819Y-113949855D02*
X125420819Y-113711760D01*
X125516057Y-113378426D02*
X125468438Y-113330807D01*
X125468438Y-113330807D02*
X125420819Y-113235569D01*
X125420819Y-113235569D02*
X125420819Y-112997474D01*
X125420819Y-112997474D02*
X125468438Y-112902236D01*
X125468438Y-112902236D02*
X125516057Y-112854617D01*
X125516057Y-112854617D02*
X125611295Y-112806998D01*
X125611295Y-112806998D02*
X125706533Y-112806998D01*
X125706533Y-112806998D02*
X125849390Y-112854617D01*
X125849390Y-112854617D02*
X126420819Y-113426045D01*
X126420819Y-113426045D02*
X126420819Y-112806998D01*
X126373200Y-98286332D02*
X126420819Y-98143475D01*
X126420819Y-98143475D02*
X126420819Y-97905380D01*
X126420819Y-97905380D02*
X126373200Y-97810142D01*
X126373200Y-97810142D02*
X126325580Y-97762523D01*
X126325580Y-97762523D02*
X126230342Y-97714904D01*
X126230342Y-97714904D02*
X126135104Y-97714904D01*
X126135104Y-97714904D02*
X126039866Y-97762523D01*
X126039866Y-97762523D02*
X125992247Y-97810142D01*
X125992247Y-97810142D02*
X125944628Y-97905380D01*
X125944628Y-97905380D02*
X125897009Y-98095856D01*
X125897009Y-98095856D02*
X125849390Y-98191094D01*
X125849390Y-98191094D02*
X125801771Y-98238713D01*
X125801771Y-98238713D02*
X125706533Y-98286332D01*
X125706533Y-98286332D02*
X125611295Y-98286332D01*
X125611295Y-98286332D02*
X125516057Y-98238713D01*
X125516057Y-98238713D02*
X125468438Y-98191094D01*
X125468438Y-98191094D02*
X125420819Y-98095856D01*
X125420819Y-98095856D02*
X125420819Y-97857761D01*
X125420819Y-97857761D02*
X125468438Y-97714904D01*
X125420819Y-97381570D02*
X126420819Y-97143475D01*
X126420819Y-97143475D02*
X125706533Y-96952999D01*
X125706533Y-96952999D02*
X126420819Y-96762523D01*
X126420819Y-96762523D02*
X125420819Y-96524428D01*
X125420819Y-96238713D02*
X125420819Y-95619666D01*
X125420819Y-95619666D02*
X125801771Y-95952999D01*
X125801771Y-95952999D02*
X125801771Y-95810142D01*
X125801771Y-95810142D02*
X125849390Y-95714904D01*
X125849390Y-95714904D02*
X125897009Y-95667285D01*
X125897009Y-95667285D02*
X125992247Y-95619666D01*
X125992247Y-95619666D02*
X126230342Y-95619666D01*
X126230342Y-95619666D02*
X126325580Y-95667285D01*
X126325580Y-95667285D02*
X126373200Y-95714904D01*
X126373200Y-95714904D02*
X126420819Y-95810142D01*
X126420819Y-95810142D02*
X126420819Y-96095856D01*
X126420819Y-96095856D02*
X126373200Y-96191094D01*
X126373200Y-96191094D02*
X126325580Y-96238713D01*
X126373200Y-106879998D02*
X126420819Y-106737141D01*
X126420819Y-106737141D02*
X126420819Y-106499046D01*
X126420819Y-106499046D02*
X126373200Y-106403808D01*
X126373200Y-106403808D02*
X126325580Y-106356189D01*
X126325580Y-106356189D02*
X126230342Y-106308570D01*
X126230342Y-106308570D02*
X126135104Y-106308570D01*
X126135104Y-106308570D02*
X126039866Y-106356189D01*
X126039866Y-106356189D02*
X125992247Y-106403808D01*
X125992247Y-106403808D02*
X125944628Y-106499046D01*
X125944628Y-106499046D02*
X125897009Y-106689522D01*
X125897009Y-106689522D02*
X125849390Y-106784760D01*
X125849390Y-106784760D02*
X125801771Y-106832379D01*
X125801771Y-106832379D02*
X125706533Y-106879998D01*
X125706533Y-106879998D02*
X125611295Y-106879998D01*
X125611295Y-106879998D02*
X125516057Y-106832379D01*
X125516057Y-106832379D02*
X125468438Y-106784760D01*
X125468438Y-106784760D02*
X125420819Y-106689522D01*
X125420819Y-106689522D02*
X125420819Y-106451427D01*
X125420819Y-106451427D02*
X125468438Y-106308570D01*
X125420819Y-105975236D02*
X126420819Y-105737141D01*
X126420819Y-105737141D02*
X125706533Y-105546665D01*
X125706533Y-105546665D02*
X126420819Y-105356189D01*
X126420819Y-105356189D02*
X125420819Y-105118094D01*
X125754152Y-104308570D02*
X126420819Y-104308570D01*
X125373200Y-104546665D02*
X126087485Y-104784760D01*
X126087485Y-104784760D02*
X126087485Y-104165713D01*
X136787200Y-124067332D02*
X136834819Y-123924475D01*
X136834819Y-123924475D02*
X136834819Y-123686380D01*
X136834819Y-123686380D02*
X136787200Y-123591142D01*
X136787200Y-123591142D02*
X136739580Y-123543523D01*
X136739580Y-123543523D02*
X136644342Y-123495904D01*
X136644342Y-123495904D02*
X136549104Y-123495904D01*
X136549104Y-123495904D02*
X136453866Y-123543523D01*
X136453866Y-123543523D02*
X136406247Y-123591142D01*
X136406247Y-123591142D02*
X136358628Y-123686380D01*
X136358628Y-123686380D02*
X136311009Y-123876856D01*
X136311009Y-123876856D02*
X136263390Y-123972094D01*
X136263390Y-123972094D02*
X136215771Y-124019713D01*
X136215771Y-124019713D02*
X136120533Y-124067332D01*
X136120533Y-124067332D02*
X136025295Y-124067332D01*
X136025295Y-124067332D02*
X135930057Y-124019713D01*
X135930057Y-124019713D02*
X135882438Y-123972094D01*
X135882438Y-123972094D02*
X135834819Y-123876856D01*
X135834819Y-123876856D02*
X135834819Y-123638761D01*
X135834819Y-123638761D02*
X135882438Y-123495904D01*
X135834819Y-123162570D02*
X136834819Y-122924475D01*
X136834819Y-122924475D02*
X136120533Y-122733999D01*
X136120533Y-122733999D02*
X136834819Y-122543523D01*
X136834819Y-122543523D02*
X135834819Y-122305428D01*
X135834819Y-121448285D02*
X135834819Y-121924475D01*
X135834819Y-121924475D02*
X136311009Y-121972094D01*
X136311009Y-121972094D02*
X136263390Y-121924475D01*
X136263390Y-121924475D02*
X136215771Y-121829237D01*
X136215771Y-121829237D02*
X136215771Y-121591142D01*
X136215771Y-121591142D02*
X136263390Y-121495904D01*
X136263390Y-121495904D02*
X136311009Y-121448285D01*
X136311009Y-121448285D02*
X136406247Y-121400666D01*
X136406247Y-121400666D02*
X136644342Y-121400666D01*
X136644342Y-121400666D02*
X136739580Y-121448285D01*
X136739580Y-121448285D02*
X136787200Y-121495904D01*
X136787200Y-121495904D02*
X136834819Y-121591142D01*
X136834819Y-121591142D02*
X136834819Y-121829237D01*
X136834819Y-121829237D02*
X136787200Y-121924475D01*
X136787200Y-121924475D02*
X136739580Y-121972094D01*
X136787200Y-115431332D02*
X136834819Y-115288475D01*
X136834819Y-115288475D02*
X136834819Y-115050380D01*
X136834819Y-115050380D02*
X136787200Y-114955142D01*
X136787200Y-114955142D02*
X136739580Y-114907523D01*
X136739580Y-114907523D02*
X136644342Y-114859904D01*
X136644342Y-114859904D02*
X136549104Y-114859904D01*
X136549104Y-114859904D02*
X136453866Y-114907523D01*
X136453866Y-114907523D02*
X136406247Y-114955142D01*
X136406247Y-114955142D02*
X136358628Y-115050380D01*
X136358628Y-115050380D02*
X136311009Y-115240856D01*
X136311009Y-115240856D02*
X136263390Y-115336094D01*
X136263390Y-115336094D02*
X136215771Y-115383713D01*
X136215771Y-115383713D02*
X136120533Y-115431332D01*
X136120533Y-115431332D02*
X136025295Y-115431332D01*
X136025295Y-115431332D02*
X135930057Y-115383713D01*
X135930057Y-115383713D02*
X135882438Y-115336094D01*
X135882438Y-115336094D02*
X135834819Y-115240856D01*
X135834819Y-115240856D02*
X135834819Y-115002761D01*
X135834819Y-115002761D02*
X135882438Y-114859904D01*
X135834819Y-114526570D02*
X136834819Y-114288475D01*
X136834819Y-114288475D02*
X136120533Y-114097999D01*
X136120533Y-114097999D02*
X136834819Y-113907523D01*
X136834819Y-113907523D02*
X135834819Y-113669428D01*
X135834819Y-112859904D02*
X135834819Y-113050380D01*
X135834819Y-113050380D02*
X135882438Y-113145618D01*
X135882438Y-113145618D02*
X135930057Y-113193237D01*
X135930057Y-113193237D02*
X136072914Y-113288475D01*
X136072914Y-113288475D02*
X136263390Y-113336094D01*
X136263390Y-113336094D02*
X136644342Y-113336094D01*
X136644342Y-113336094D02*
X136739580Y-113288475D01*
X136739580Y-113288475D02*
X136787200Y-113240856D01*
X136787200Y-113240856D02*
X136834819Y-113145618D01*
X136834819Y-113145618D02*
X136834819Y-112955142D01*
X136834819Y-112955142D02*
X136787200Y-112859904D01*
X136787200Y-112859904D02*
X136739580Y-112812285D01*
X136739580Y-112812285D02*
X136644342Y-112764666D01*
X136644342Y-112764666D02*
X136406247Y-112764666D01*
X136406247Y-112764666D02*
X136311009Y-112812285D01*
X136311009Y-112812285D02*
X136263390Y-112859904D01*
X136263390Y-112859904D02*
X136215771Y-112955142D01*
X136215771Y-112955142D02*
X136215771Y-113145618D01*
X136215771Y-113145618D02*
X136263390Y-113240856D01*
X136263390Y-113240856D02*
X136311009Y-113288475D01*
X136311009Y-113288475D02*
X136406247Y-113336094D01*
X136787200Y-106795332D02*
X136834819Y-106652475D01*
X136834819Y-106652475D02*
X136834819Y-106414380D01*
X136834819Y-106414380D02*
X136787200Y-106319142D01*
X136787200Y-106319142D02*
X136739580Y-106271523D01*
X136739580Y-106271523D02*
X136644342Y-106223904D01*
X136644342Y-106223904D02*
X136549104Y-106223904D01*
X136549104Y-106223904D02*
X136453866Y-106271523D01*
X136453866Y-106271523D02*
X136406247Y-106319142D01*
X136406247Y-106319142D02*
X136358628Y-106414380D01*
X136358628Y-106414380D02*
X136311009Y-106604856D01*
X136311009Y-106604856D02*
X136263390Y-106700094D01*
X136263390Y-106700094D02*
X136215771Y-106747713D01*
X136215771Y-106747713D02*
X136120533Y-106795332D01*
X136120533Y-106795332D02*
X136025295Y-106795332D01*
X136025295Y-106795332D02*
X135930057Y-106747713D01*
X135930057Y-106747713D02*
X135882438Y-106700094D01*
X135882438Y-106700094D02*
X135834819Y-106604856D01*
X135834819Y-106604856D02*
X135834819Y-106366761D01*
X135834819Y-106366761D02*
X135882438Y-106223904D01*
X135834819Y-105890570D02*
X136834819Y-105652475D01*
X136834819Y-105652475D02*
X136120533Y-105461999D01*
X136120533Y-105461999D02*
X136834819Y-105271523D01*
X136834819Y-105271523D02*
X135834819Y-105033428D01*
X135834819Y-104747713D02*
X135834819Y-104081047D01*
X135834819Y-104081047D02*
X136834819Y-104509618D01*
X136787200Y-98159332D02*
X136834819Y-98016475D01*
X136834819Y-98016475D02*
X136834819Y-97778380D01*
X136834819Y-97778380D02*
X136787200Y-97683142D01*
X136787200Y-97683142D02*
X136739580Y-97635523D01*
X136739580Y-97635523D02*
X136644342Y-97587904D01*
X136644342Y-97587904D02*
X136549104Y-97587904D01*
X136549104Y-97587904D02*
X136453866Y-97635523D01*
X136453866Y-97635523D02*
X136406247Y-97683142D01*
X136406247Y-97683142D02*
X136358628Y-97778380D01*
X136358628Y-97778380D02*
X136311009Y-97968856D01*
X136311009Y-97968856D02*
X136263390Y-98064094D01*
X136263390Y-98064094D02*
X136215771Y-98111713D01*
X136215771Y-98111713D02*
X136120533Y-98159332D01*
X136120533Y-98159332D02*
X136025295Y-98159332D01*
X136025295Y-98159332D02*
X135930057Y-98111713D01*
X135930057Y-98111713D02*
X135882438Y-98064094D01*
X135882438Y-98064094D02*
X135834819Y-97968856D01*
X135834819Y-97968856D02*
X135834819Y-97730761D01*
X135834819Y-97730761D02*
X135882438Y-97587904D01*
X135834819Y-97254570D02*
X136834819Y-97016475D01*
X136834819Y-97016475D02*
X136120533Y-96825999D01*
X136120533Y-96825999D02*
X136834819Y-96635523D01*
X136834819Y-96635523D02*
X135834819Y-96397428D01*
X136263390Y-95873618D02*
X136215771Y-95968856D01*
X136215771Y-95968856D02*
X136168152Y-96016475D01*
X136168152Y-96016475D02*
X136072914Y-96064094D01*
X136072914Y-96064094D02*
X136025295Y-96064094D01*
X136025295Y-96064094D02*
X135930057Y-96016475D01*
X135930057Y-96016475D02*
X135882438Y-95968856D01*
X135882438Y-95968856D02*
X135834819Y-95873618D01*
X135834819Y-95873618D02*
X135834819Y-95683142D01*
X135834819Y-95683142D02*
X135882438Y-95587904D01*
X135882438Y-95587904D02*
X135930057Y-95540285D01*
X135930057Y-95540285D02*
X136025295Y-95492666D01*
X136025295Y-95492666D02*
X136072914Y-95492666D01*
X136072914Y-95492666D02*
X136168152Y-95540285D01*
X136168152Y-95540285D02*
X136215771Y-95587904D01*
X136215771Y-95587904D02*
X136263390Y-95683142D01*
X136263390Y-95683142D02*
X136263390Y-95873618D01*
X136263390Y-95873618D02*
X136311009Y-95968856D01*
X136311009Y-95968856D02*
X136358628Y-96016475D01*
X136358628Y-96016475D02*
X136453866Y-96064094D01*
X136453866Y-96064094D02*
X136644342Y-96064094D01*
X136644342Y-96064094D02*
X136739580Y-96016475D01*
X136739580Y-96016475D02*
X136787200Y-95968856D01*
X136787200Y-95968856D02*
X136834819Y-95873618D01*
X136834819Y-95873618D02*
X136834819Y-95683142D01*
X136834819Y-95683142D02*
X136787200Y-95587904D01*
X136787200Y-95587904D02*
X136739580Y-95540285D01*
X136739580Y-95540285D02*
X136644342Y-95492666D01*
X136644342Y-95492666D02*
X136453866Y-95492666D01*
X136453866Y-95492666D02*
X136358628Y-95540285D01*
X136358628Y-95540285D02*
X136311009Y-95587904D01*
X136311009Y-95587904D02*
X136263390Y-95683142D01*
X146820200Y-123940332D02*
X146867819Y-123797475D01*
X146867819Y-123797475D02*
X146867819Y-123559380D01*
X146867819Y-123559380D02*
X146820200Y-123464142D01*
X146820200Y-123464142D02*
X146772580Y-123416523D01*
X146772580Y-123416523D02*
X146677342Y-123368904D01*
X146677342Y-123368904D02*
X146582104Y-123368904D01*
X146582104Y-123368904D02*
X146486866Y-123416523D01*
X146486866Y-123416523D02*
X146439247Y-123464142D01*
X146439247Y-123464142D02*
X146391628Y-123559380D01*
X146391628Y-123559380D02*
X146344009Y-123749856D01*
X146344009Y-123749856D02*
X146296390Y-123845094D01*
X146296390Y-123845094D02*
X146248771Y-123892713D01*
X146248771Y-123892713D02*
X146153533Y-123940332D01*
X146153533Y-123940332D02*
X146058295Y-123940332D01*
X146058295Y-123940332D02*
X145963057Y-123892713D01*
X145963057Y-123892713D02*
X145915438Y-123845094D01*
X145915438Y-123845094D02*
X145867819Y-123749856D01*
X145867819Y-123749856D02*
X145867819Y-123511761D01*
X145867819Y-123511761D02*
X145915438Y-123368904D01*
X145867819Y-123035570D02*
X146867819Y-122797475D01*
X146867819Y-122797475D02*
X146153533Y-122606999D01*
X146153533Y-122606999D02*
X146867819Y-122416523D01*
X146867819Y-122416523D02*
X145867819Y-122178428D01*
X146867819Y-121749856D02*
X146867819Y-121559380D01*
X146867819Y-121559380D02*
X146820200Y-121464142D01*
X146820200Y-121464142D02*
X146772580Y-121416523D01*
X146772580Y-121416523D02*
X146629723Y-121321285D01*
X146629723Y-121321285D02*
X146439247Y-121273666D01*
X146439247Y-121273666D02*
X146058295Y-121273666D01*
X146058295Y-121273666D02*
X145963057Y-121321285D01*
X145963057Y-121321285D02*
X145915438Y-121368904D01*
X145915438Y-121368904D02*
X145867819Y-121464142D01*
X145867819Y-121464142D02*
X145867819Y-121654618D01*
X145867819Y-121654618D02*
X145915438Y-121749856D01*
X145915438Y-121749856D02*
X145963057Y-121797475D01*
X145963057Y-121797475D02*
X146058295Y-121845094D01*
X146058295Y-121845094D02*
X146296390Y-121845094D01*
X146296390Y-121845094D02*
X146391628Y-121797475D01*
X146391628Y-121797475D02*
X146439247Y-121749856D01*
X146439247Y-121749856D02*
X146486866Y-121654618D01*
X146486866Y-121654618D02*
X146486866Y-121464142D01*
X146486866Y-121464142D02*
X146439247Y-121368904D01*
X146439247Y-121368904D02*
X146391628Y-121321285D01*
X146391628Y-121321285D02*
X146296390Y-121273666D01*
X146820200Y-115822855D02*
X146867819Y-115679998D01*
X146867819Y-115679998D02*
X146867819Y-115441903D01*
X146867819Y-115441903D02*
X146820200Y-115346665D01*
X146820200Y-115346665D02*
X146772580Y-115299046D01*
X146772580Y-115299046D02*
X146677342Y-115251427D01*
X146677342Y-115251427D02*
X146582104Y-115251427D01*
X146582104Y-115251427D02*
X146486866Y-115299046D01*
X146486866Y-115299046D02*
X146439247Y-115346665D01*
X146439247Y-115346665D02*
X146391628Y-115441903D01*
X146391628Y-115441903D02*
X146344009Y-115632379D01*
X146344009Y-115632379D02*
X146296390Y-115727617D01*
X146296390Y-115727617D02*
X146248771Y-115775236D01*
X146248771Y-115775236D02*
X146153533Y-115822855D01*
X146153533Y-115822855D02*
X146058295Y-115822855D01*
X146058295Y-115822855D02*
X145963057Y-115775236D01*
X145963057Y-115775236D02*
X145915438Y-115727617D01*
X145915438Y-115727617D02*
X145867819Y-115632379D01*
X145867819Y-115632379D02*
X145867819Y-115394284D01*
X145867819Y-115394284D02*
X145915438Y-115251427D01*
X145867819Y-114918093D02*
X146867819Y-114679998D01*
X146867819Y-114679998D02*
X146153533Y-114489522D01*
X146153533Y-114489522D02*
X146867819Y-114299046D01*
X146867819Y-114299046D02*
X145867819Y-114060951D01*
X146867819Y-113156189D02*
X146867819Y-113727617D01*
X146867819Y-113441903D02*
X145867819Y-113441903D01*
X145867819Y-113441903D02*
X146010676Y-113537141D01*
X146010676Y-113537141D02*
X146105914Y-113632379D01*
X146105914Y-113632379D02*
X146153533Y-113727617D01*
X145867819Y-112537141D02*
X145867819Y-112441903D01*
X145867819Y-112441903D02*
X145915438Y-112346665D01*
X145915438Y-112346665D02*
X145963057Y-112299046D01*
X145963057Y-112299046D02*
X146058295Y-112251427D01*
X146058295Y-112251427D02*
X146248771Y-112203808D01*
X146248771Y-112203808D02*
X146486866Y-112203808D01*
X146486866Y-112203808D02*
X146677342Y-112251427D01*
X146677342Y-112251427D02*
X146772580Y-112299046D01*
X146772580Y-112299046D02*
X146820200Y-112346665D01*
X146820200Y-112346665D02*
X146867819Y-112441903D01*
X146867819Y-112441903D02*
X146867819Y-112537141D01*
X146867819Y-112537141D02*
X146820200Y-112632379D01*
X146820200Y-112632379D02*
X146772580Y-112679998D01*
X146772580Y-112679998D02*
X146677342Y-112727617D01*
X146677342Y-112727617D02*
X146486866Y-112775236D01*
X146486866Y-112775236D02*
X146248771Y-112775236D01*
X146248771Y-112775236D02*
X146058295Y-112727617D01*
X146058295Y-112727617D02*
X145963057Y-112679998D01*
X145963057Y-112679998D02*
X145915438Y-112632379D01*
X145915438Y-112632379D02*
X145867819Y-112537141D01*
X146820200Y-107229189D02*
X146867819Y-107086332D01*
X146867819Y-107086332D02*
X146867819Y-106848237D01*
X146867819Y-106848237D02*
X146820200Y-106752999D01*
X146820200Y-106752999D02*
X146772580Y-106705380D01*
X146772580Y-106705380D02*
X146677342Y-106657761D01*
X146677342Y-106657761D02*
X146582104Y-106657761D01*
X146582104Y-106657761D02*
X146486866Y-106705380D01*
X146486866Y-106705380D02*
X146439247Y-106752999D01*
X146439247Y-106752999D02*
X146391628Y-106848237D01*
X146391628Y-106848237D02*
X146344009Y-107038713D01*
X146344009Y-107038713D02*
X146296390Y-107133951D01*
X146296390Y-107133951D02*
X146248771Y-107181570D01*
X146248771Y-107181570D02*
X146153533Y-107229189D01*
X146153533Y-107229189D02*
X146058295Y-107229189D01*
X146058295Y-107229189D02*
X145963057Y-107181570D01*
X145963057Y-107181570D02*
X145915438Y-107133951D01*
X145915438Y-107133951D02*
X145867819Y-107038713D01*
X145867819Y-107038713D02*
X145867819Y-106800618D01*
X145867819Y-106800618D02*
X145915438Y-106657761D01*
X145867819Y-106324427D02*
X146867819Y-106086332D01*
X146867819Y-106086332D02*
X146153533Y-105895856D01*
X146153533Y-105895856D02*
X146867819Y-105705380D01*
X146867819Y-105705380D02*
X145867819Y-105467285D01*
X146867819Y-104562523D02*
X146867819Y-105133951D01*
X146867819Y-104848237D02*
X145867819Y-104848237D01*
X145867819Y-104848237D02*
X146010676Y-104943475D01*
X146010676Y-104943475D02*
X146105914Y-105038713D01*
X146105914Y-105038713D02*
X146153533Y-105133951D01*
X146867819Y-103610142D02*
X146867819Y-104181570D01*
X146867819Y-103895856D02*
X145867819Y-103895856D01*
X145867819Y-103895856D02*
X146010676Y-103991094D01*
X146010676Y-103991094D02*
X146105914Y-104086332D01*
X146105914Y-104086332D02*
X146153533Y-104181570D01*
X146820200Y-98635523D02*
X146867819Y-98492666D01*
X146867819Y-98492666D02*
X146867819Y-98254571D01*
X146867819Y-98254571D02*
X146820200Y-98159333D01*
X146820200Y-98159333D02*
X146772580Y-98111714D01*
X146772580Y-98111714D02*
X146677342Y-98064095D01*
X146677342Y-98064095D02*
X146582104Y-98064095D01*
X146582104Y-98064095D02*
X146486866Y-98111714D01*
X146486866Y-98111714D02*
X146439247Y-98159333D01*
X146439247Y-98159333D02*
X146391628Y-98254571D01*
X146391628Y-98254571D02*
X146344009Y-98445047D01*
X146344009Y-98445047D02*
X146296390Y-98540285D01*
X146296390Y-98540285D02*
X146248771Y-98587904D01*
X146248771Y-98587904D02*
X146153533Y-98635523D01*
X146153533Y-98635523D02*
X146058295Y-98635523D01*
X146058295Y-98635523D02*
X145963057Y-98587904D01*
X145963057Y-98587904D02*
X145915438Y-98540285D01*
X145915438Y-98540285D02*
X145867819Y-98445047D01*
X145867819Y-98445047D02*
X145867819Y-98206952D01*
X145867819Y-98206952D02*
X145915438Y-98064095D01*
X145867819Y-97730761D02*
X146867819Y-97492666D01*
X146867819Y-97492666D02*
X146153533Y-97302190D01*
X146153533Y-97302190D02*
X146867819Y-97111714D01*
X146867819Y-97111714D02*
X145867819Y-96873619D01*
X146867819Y-95968857D02*
X146867819Y-96540285D01*
X146867819Y-96254571D02*
X145867819Y-96254571D01*
X145867819Y-96254571D02*
X146010676Y-96349809D01*
X146010676Y-96349809D02*
X146105914Y-96445047D01*
X146105914Y-96445047D02*
X146153533Y-96540285D01*
X145963057Y-95587904D02*
X145915438Y-95540285D01*
X145915438Y-95540285D02*
X145867819Y-95445047D01*
X145867819Y-95445047D02*
X145867819Y-95206952D01*
X145867819Y-95206952D02*
X145915438Y-95111714D01*
X145915438Y-95111714D02*
X145963057Y-95064095D01*
X145963057Y-95064095D02*
X146058295Y-95016476D01*
X146058295Y-95016476D02*
X146153533Y-95016476D01*
X146153533Y-95016476D02*
X146296390Y-95064095D01*
X146296390Y-95064095D02*
X146867819Y-95635523D01*
X146867819Y-95635523D02*
X146867819Y-95016476D01*
X99086200Y-110433523D02*
X99133819Y-110290666D01*
X99133819Y-110290666D02*
X99133819Y-110052571D01*
X99133819Y-110052571D02*
X99086200Y-109957333D01*
X99086200Y-109957333D02*
X99038580Y-109909714D01*
X99038580Y-109909714D02*
X98943342Y-109862095D01*
X98943342Y-109862095D02*
X98848104Y-109862095D01*
X98848104Y-109862095D02*
X98752866Y-109909714D01*
X98752866Y-109909714D02*
X98705247Y-109957333D01*
X98705247Y-109957333D02*
X98657628Y-110052571D01*
X98657628Y-110052571D02*
X98610009Y-110243047D01*
X98610009Y-110243047D02*
X98562390Y-110338285D01*
X98562390Y-110338285D02*
X98514771Y-110385904D01*
X98514771Y-110385904D02*
X98419533Y-110433523D01*
X98419533Y-110433523D02*
X98324295Y-110433523D01*
X98324295Y-110433523D02*
X98229057Y-110385904D01*
X98229057Y-110385904D02*
X98181438Y-110338285D01*
X98181438Y-110338285D02*
X98133819Y-110243047D01*
X98133819Y-110243047D02*
X98133819Y-110004952D01*
X98133819Y-110004952D02*
X98181438Y-109862095D01*
X98133819Y-109528761D02*
X99133819Y-109290666D01*
X99133819Y-109290666D02*
X98419533Y-109100190D01*
X98419533Y-109100190D02*
X99133819Y-108909714D01*
X99133819Y-108909714D02*
X98133819Y-108671619D01*
X99133819Y-107766857D02*
X99133819Y-108338285D01*
X99133819Y-108052571D02*
X98133819Y-108052571D01*
X98133819Y-108052571D02*
X98276676Y-108147809D01*
X98276676Y-108147809D02*
X98371914Y-108243047D01*
X98371914Y-108243047D02*
X98419533Y-108338285D01*
X98133819Y-107433523D02*
X98133819Y-106814476D01*
X98133819Y-106814476D02*
X98514771Y-107147809D01*
X98514771Y-107147809D02*
X98514771Y-107004952D01*
X98514771Y-107004952D02*
X98562390Y-106909714D01*
X98562390Y-106909714D02*
X98610009Y-106862095D01*
X98610009Y-106862095D02*
X98705247Y-106814476D01*
X98705247Y-106814476D02*
X98943342Y-106814476D01*
X98943342Y-106814476D02*
X99038580Y-106862095D01*
X99038580Y-106862095D02*
X99086200Y-106909714D01*
X99086200Y-106909714D02*
X99133819Y-107004952D01*
X99133819Y-107004952D02*
X99133819Y-107290666D01*
X99133819Y-107290666D02*
X99086200Y-107385904D01*
X99086200Y-107385904D02*
X99038580Y-107433523D01*
X99485200Y-101429523D02*
X99532819Y-101286666D01*
X99532819Y-101286666D02*
X99532819Y-101048571D01*
X99532819Y-101048571D02*
X99485200Y-100953333D01*
X99485200Y-100953333D02*
X99437580Y-100905714D01*
X99437580Y-100905714D02*
X99342342Y-100858095D01*
X99342342Y-100858095D02*
X99247104Y-100858095D01*
X99247104Y-100858095D02*
X99151866Y-100905714D01*
X99151866Y-100905714D02*
X99104247Y-100953333D01*
X99104247Y-100953333D02*
X99056628Y-101048571D01*
X99056628Y-101048571D02*
X99009009Y-101239047D01*
X99009009Y-101239047D02*
X98961390Y-101334285D01*
X98961390Y-101334285D02*
X98913771Y-101381904D01*
X98913771Y-101381904D02*
X98818533Y-101429523D01*
X98818533Y-101429523D02*
X98723295Y-101429523D01*
X98723295Y-101429523D02*
X98628057Y-101381904D01*
X98628057Y-101381904D02*
X98580438Y-101334285D01*
X98580438Y-101334285D02*
X98532819Y-101239047D01*
X98532819Y-101239047D02*
X98532819Y-101000952D01*
X98532819Y-101000952D02*
X98580438Y-100858095D01*
X98532819Y-100524761D02*
X99532819Y-100286666D01*
X99532819Y-100286666D02*
X98818533Y-100096190D01*
X98818533Y-100096190D02*
X99532819Y-99905714D01*
X99532819Y-99905714D02*
X98532819Y-99667619D01*
X99532819Y-98762857D02*
X99532819Y-99334285D01*
X99532819Y-99048571D02*
X98532819Y-99048571D01*
X98532819Y-99048571D02*
X98675676Y-99143809D01*
X98675676Y-99143809D02*
X98770914Y-99239047D01*
X98770914Y-99239047D02*
X98818533Y-99334285D01*
X98866152Y-97905714D02*
X99532819Y-97905714D01*
X98485200Y-98143809D02*
X99199485Y-98381904D01*
X99199485Y-98381904D02*
X99199485Y-97762857D01*
X99485200Y-119082523D02*
X99532819Y-118939666D01*
X99532819Y-118939666D02*
X99532819Y-118701571D01*
X99532819Y-118701571D02*
X99485200Y-118606333D01*
X99485200Y-118606333D02*
X99437580Y-118558714D01*
X99437580Y-118558714D02*
X99342342Y-118511095D01*
X99342342Y-118511095D02*
X99247104Y-118511095D01*
X99247104Y-118511095D02*
X99151866Y-118558714D01*
X99151866Y-118558714D02*
X99104247Y-118606333D01*
X99104247Y-118606333D02*
X99056628Y-118701571D01*
X99056628Y-118701571D02*
X99009009Y-118892047D01*
X99009009Y-118892047D02*
X98961390Y-118987285D01*
X98961390Y-118987285D02*
X98913771Y-119034904D01*
X98913771Y-119034904D02*
X98818533Y-119082523D01*
X98818533Y-119082523D02*
X98723295Y-119082523D01*
X98723295Y-119082523D02*
X98628057Y-119034904D01*
X98628057Y-119034904D02*
X98580438Y-118987285D01*
X98580438Y-118987285D02*
X98532819Y-118892047D01*
X98532819Y-118892047D02*
X98532819Y-118653952D01*
X98532819Y-118653952D02*
X98580438Y-118511095D01*
X98532819Y-118177761D02*
X99532819Y-117939666D01*
X99532819Y-117939666D02*
X98818533Y-117749190D01*
X98818533Y-117749190D02*
X99532819Y-117558714D01*
X99532819Y-117558714D02*
X98532819Y-117320619D01*
X99532819Y-116415857D02*
X99532819Y-116987285D01*
X99532819Y-116701571D02*
X98532819Y-116701571D01*
X98532819Y-116701571D02*
X98675676Y-116796809D01*
X98675676Y-116796809D02*
X98770914Y-116892047D01*
X98770914Y-116892047D02*
X98818533Y-116987285D01*
X98532819Y-115511095D02*
X98532819Y-115987285D01*
X98532819Y-115987285D02*
X99009009Y-116034904D01*
X99009009Y-116034904D02*
X98961390Y-115987285D01*
X98961390Y-115987285D02*
X98913771Y-115892047D01*
X98913771Y-115892047D02*
X98913771Y-115653952D01*
X98913771Y-115653952D02*
X98961390Y-115558714D01*
X98961390Y-115558714D02*
X99009009Y-115511095D01*
X99009009Y-115511095D02*
X99104247Y-115463476D01*
X99104247Y-115463476D02*
X99342342Y-115463476D01*
X99342342Y-115463476D02*
X99437580Y-115511095D01*
X99437580Y-115511095D02*
X99485200Y-115558714D01*
X99485200Y-115558714D02*
X99532819Y-115653952D01*
X99532819Y-115653952D02*
X99532819Y-115892047D01*
X99532819Y-115892047D02*
X99485200Y-115987285D01*
X99485200Y-115987285D02*
X99437580Y-116034904D01*
X117011200Y-110231523D02*
X117058819Y-110088666D01*
X117058819Y-110088666D02*
X117058819Y-109850571D01*
X117058819Y-109850571D02*
X117011200Y-109755333D01*
X117011200Y-109755333D02*
X116963580Y-109707714D01*
X116963580Y-109707714D02*
X116868342Y-109660095D01*
X116868342Y-109660095D02*
X116773104Y-109660095D01*
X116773104Y-109660095D02*
X116677866Y-109707714D01*
X116677866Y-109707714D02*
X116630247Y-109755333D01*
X116630247Y-109755333D02*
X116582628Y-109850571D01*
X116582628Y-109850571D02*
X116535009Y-110041047D01*
X116535009Y-110041047D02*
X116487390Y-110136285D01*
X116487390Y-110136285D02*
X116439771Y-110183904D01*
X116439771Y-110183904D02*
X116344533Y-110231523D01*
X116344533Y-110231523D02*
X116249295Y-110231523D01*
X116249295Y-110231523D02*
X116154057Y-110183904D01*
X116154057Y-110183904D02*
X116106438Y-110136285D01*
X116106438Y-110136285D02*
X116058819Y-110041047D01*
X116058819Y-110041047D02*
X116058819Y-109802952D01*
X116058819Y-109802952D02*
X116106438Y-109660095D01*
X116058819Y-109326761D02*
X117058819Y-109088666D01*
X117058819Y-109088666D02*
X116344533Y-108898190D01*
X116344533Y-108898190D02*
X117058819Y-108707714D01*
X117058819Y-108707714D02*
X116058819Y-108469619D01*
X117058819Y-107564857D02*
X117058819Y-108136285D01*
X117058819Y-107850571D02*
X116058819Y-107850571D01*
X116058819Y-107850571D02*
X116201676Y-107945809D01*
X116201676Y-107945809D02*
X116296914Y-108041047D01*
X116296914Y-108041047D02*
X116344533Y-108136285D01*
X116058819Y-106707714D02*
X116058819Y-106898190D01*
X116058819Y-106898190D02*
X116106438Y-106993428D01*
X116106438Y-106993428D02*
X116154057Y-107041047D01*
X116154057Y-107041047D02*
X116296914Y-107136285D01*
X116296914Y-107136285D02*
X116487390Y-107183904D01*
X116487390Y-107183904D02*
X116868342Y-107183904D01*
X116868342Y-107183904D02*
X116963580Y-107136285D01*
X116963580Y-107136285D02*
X117011200Y-107088666D01*
X117011200Y-107088666D02*
X117058819Y-106993428D01*
X117058819Y-106993428D02*
X117058819Y-106802952D01*
X117058819Y-106802952D02*
X117011200Y-106707714D01*
X117011200Y-106707714D02*
X116963580Y-106660095D01*
X116963580Y-106660095D02*
X116868342Y-106612476D01*
X116868342Y-106612476D02*
X116630247Y-106612476D01*
X116630247Y-106612476D02*
X116535009Y-106660095D01*
X116535009Y-106660095D02*
X116487390Y-106707714D01*
X116487390Y-106707714D02*
X116439771Y-106802952D01*
X116439771Y-106802952D02*
X116439771Y-106993428D01*
X116439771Y-106993428D02*
X116487390Y-107088666D01*
X116487390Y-107088666D02*
X116535009Y-107136285D01*
X116535009Y-107136285D02*
X116630247Y-107183904D01*
X167775200Y-118574523D02*
X167822819Y-118431666D01*
X167822819Y-118431666D02*
X167822819Y-118193571D01*
X167822819Y-118193571D02*
X167775200Y-118098333D01*
X167775200Y-118098333D02*
X167727580Y-118050714D01*
X167727580Y-118050714D02*
X167632342Y-118003095D01*
X167632342Y-118003095D02*
X167537104Y-118003095D01*
X167537104Y-118003095D02*
X167441866Y-118050714D01*
X167441866Y-118050714D02*
X167394247Y-118098333D01*
X167394247Y-118098333D02*
X167346628Y-118193571D01*
X167346628Y-118193571D02*
X167299009Y-118384047D01*
X167299009Y-118384047D02*
X167251390Y-118479285D01*
X167251390Y-118479285D02*
X167203771Y-118526904D01*
X167203771Y-118526904D02*
X167108533Y-118574523D01*
X167108533Y-118574523D02*
X167013295Y-118574523D01*
X167013295Y-118574523D02*
X166918057Y-118526904D01*
X166918057Y-118526904D02*
X166870438Y-118479285D01*
X166870438Y-118479285D02*
X166822819Y-118384047D01*
X166822819Y-118384047D02*
X166822819Y-118145952D01*
X166822819Y-118145952D02*
X166870438Y-118003095D01*
X166822819Y-117669761D02*
X167822819Y-117431666D01*
X167822819Y-117431666D02*
X167108533Y-117241190D01*
X167108533Y-117241190D02*
X167822819Y-117050714D01*
X167822819Y-117050714D02*
X166822819Y-116812619D01*
X167822819Y-115907857D02*
X167822819Y-116479285D01*
X167822819Y-116193571D02*
X166822819Y-116193571D01*
X166822819Y-116193571D02*
X166965676Y-116288809D01*
X166965676Y-116288809D02*
X167060914Y-116384047D01*
X167060914Y-116384047D02*
X167108533Y-116479285D01*
X166822819Y-115574523D02*
X166822819Y-114907857D01*
X166822819Y-114907857D02*
X167822819Y-115336428D01*
X192322200Y-110231523D02*
X192369819Y-110088666D01*
X192369819Y-110088666D02*
X192369819Y-109850571D01*
X192369819Y-109850571D02*
X192322200Y-109755333D01*
X192322200Y-109755333D02*
X192274580Y-109707714D01*
X192274580Y-109707714D02*
X192179342Y-109660095D01*
X192179342Y-109660095D02*
X192084104Y-109660095D01*
X192084104Y-109660095D02*
X191988866Y-109707714D01*
X191988866Y-109707714D02*
X191941247Y-109755333D01*
X191941247Y-109755333D02*
X191893628Y-109850571D01*
X191893628Y-109850571D02*
X191846009Y-110041047D01*
X191846009Y-110041047D02*
X191798390Y-110136285D01*
X191798390Y-110136285D02*
X191750771Y-110183904D01*
X191750771Y-110183904D02*
X191655533Y-110231523D01*
X191655533Y-110231523D02*
X191560295Y-110231523D01*
X191560295Y-110231523D02*
X191465057Y-110183904D01*
X191465057Y-110183904D02*
X191417438Y-110136285D01*
X191417438Y-110136285D02*
X191369819Y-110041047D01*
X191369819Y-110041047D02*
X191369819Y-109802952D01*
X191369819Y-109802952D02*
X191417438Y-109660095D01*
X191369819Y-109326761D02*
X192369819Y-109088666D01*
X192369819Y-109088666D02*
X191655533Y-108898190D01*
X191655533Y-108898190D02*
X192369819Y-108707714D01*
X192369819Y-108707714D02*
X191369819Y-108469619D01*
X192369819Y-107564857D02*
X192369819Y-108136285D01*
X192369819Y-107850571D02*
X191369819Y-107850571D01*
X191369819Y-107850571D02*
X191512676Y-107945809D01*
X191512676Y-107945809D02*
X191607914Y-108041047D01*
X191607914Y-108041047D02*
X191655533Y-108136285D01*
X191798390Y-106993428D02*
X191750771Y-107088666D01*
X191750771Y-107088666D02*
X191703152Y-107136285D01*
X191703152Y-107136285D02*
X191607914Y-107183904D01*
X191607914Y-107183904D02*
X191560295Y-107183904D01*
X191560295Y-107183904D02*
X191465057Y-107136285D01*
X191465057Y-107136285D02*
X191417438Y-107088666D01*
X191417438Y-107088666D02*
X191369819Y-106993428D01*
X191369819Y-106993428D02*
X191369819Y-106802952D01*
X191369819Y-106802952D02*
X191417438Y-106707714D01*
X191417438Y-106707714D02*
X191465057Y-106660095D01*
X191465057Y-106660095D02*
X191560295Y-106612476D01*
X191560295Y-106612476D02*
X191607914Y-106612476D01*
X191607914Y-106612476D02*
X191703152Y-106660095D01*
X191703152Y-106660095D02*
X191750771Y-106707714D01*
X191750771Y-106707714D02*
X191798390Y-106802952D01*
X191798390Y-106802952D02*
X191798390Y-106993428D01*
X191798390Y-106993428D02*
X191846009Y-107088666D01*
X191846009Y-107088666D02*
X191893628Y-107136285D01*
X191893628Y-107136285D02*
X191988866Y-107183904D01*
X191988866Y-107183904D02*
X192179342Y-107183904D01*
X192179342Y-107183904D02*
X192274580Y-107136285D01*
X192274580Y-107136285D02*
X192322200Y-107088666D01*
X192322200Y-107088666D02*
X192369819Y-106993428D01*
X192369819Y-106993428D02*
X192369819Y-106802952D01*
X192369819Y-106802952D02*
X192322200Y-106707714D01*
X192322200Y-106707714D02*
X192274580Y-106660095D01*
X192274580Y-106660095D02*
X192179342Y-106612476D01*
X192179342Y-106612476D02*
X191988866Y-106612476D01*
X191988866Y-106612476D02*
X191893628Y-106660095D01*
X191893628Y-106660095D02*
X191846009Y-106707714D01*
X191846009Y-106707714D02*
X191798390Y-106802952D01*
X90409819Y-100020285D02*
X89409819Y-100020285D01*
X89409819Y-100020285D02*
X89409819Y-99782190D01*
X89409819Y-99782190D02*
X89457438Y-99639333D01*
X89457438Y-99639333D02*
X89552676Y-99544095D01*
X89552676Y-99544095D02*
X89647914Y-99496476D01*
X89647914Y-99496476D02*
X89838390Y-99448857D01*
X89838390Y-99448857D02*
X89981247Y-99448857D01*
X89981247Y-99448857D02*
X90171723Y-99496476D01*
X90171723Y-99496476D02*
X90266961Y-99544095D01*
X90266961Y-99544095D02*
X90362200Y-99639333D01*
X90362200Y-99639333D02*
X90409819Y-99782190D01*
X90409819Y-99782190D02*
X90409819Y-100020285D01*
X89505057Y-99067904D02*
X89457438Y-99020285D01*
X89457438Y-99020285D02*
X89409819Y-98925047D01*
X89409819Y-98925047D02*
X89409819Y-98686952D01*
X89409819Y-98686952D02*
X89457438Y-98591714D01*
X89457438Y-98591714D02*
X89505057Y-98544095D01*
X89505057Y-98544095D02*
X89600295Y-98496476D01*
X89600295Y-98496476D02*
X89695533Y-98496476D01*
X89695533Y-98496476D02*
X89838390Y-98544095D01*
X89838390Y-98544095D02*
X90409819Y-99115523D01*
X90409819Y-99115523D02*
X90409819Y-98496476D01*
X89409819Y-98163142D02*
X89409819Y-97544095D01*
X89409819Y-97544095D02*
X89790771Y-97877428D01*
X89790771Y-97877428D02*
X89790771Y-97734571D01*
X89790771Y-97734571D02*
X89838390Y-97639333D01*
X89838390Y-97639333D02*
X89886009Y-97591714D01*
X89886009Y-97591714D02*
X89981247Y-97544095D01*
X89981247Y-97544095D02*
X90219342Y-97544095D01*
X90219342Y-97544095D02*
X90314580Y-97591714D01*
X90314580Y-97591714D02*
X90362200Y-97639333D01*
X90362200Y-97639333D02*
X90409819Y-97734571D01*
X90409819Y-97734571D02*
X90409819Y-98020285D01*
X90409819Y-98020285D02*
X90362200Y-98115523D01*
X90362200Y-98115523D02*
X90314580Y-98163142D01*
X90729819Y-102877904D02*
X89729819Y-102877904D01*
X90729819Y-102306476D02*
X90158390Y-102735047D01*
X89729819Y-102306476D02*
X90301247Y-102877904D01*
X94854819Y-100020285D02*
X93854819Y-100020285D01*
X93854819Y-100020285D02*
X93854819Y-99782190D01*
X93854819Y-99782190D02*
X93902438Y-99639333D01*
X93902438Y-99639333D02*
X93997676Y-99544095D01*
X93997676Y-99544095D02*
X94092914Y-99496476D01*
X94092914Y-99496476D02*
X94283390Y-99448857D01*
X94283390Y-99448857D02*
X94426247Y-99448857D01*
X94426247Y-99448857D02*
X94616723Y-99496476D01*
X94616723Y-99496476D02*
X94711961Y-99544095D01*
X94711961Y-99544095D02*
X94807200Y-99639333D01*
X94807200Y-99639333D02*
X94854819Y-99782190D01*
X94854819Y-99782190D02*
X94854819Y-100020285D01*
X93950057Y-99067904D02*
X93902438Y-99020285D01*
X93902438Y-99020285D02*
X93854819Y-98925047D01*
X93854819Y-98925047D02*
X93854819Y-98686952D01*
X93854819Y-98686952D02*
X93902438Y-98591714D01*
X93902438Y-98591714D02*
X93950057Y-98544095D01*
X93950057Y-98544095D02*
X94045295Y-98496476D01*
X94045295Y-98496476D02*
X94140533Y-98496476D01*
X94140533Y-98496476D02*
X94283390Y-98544095D01*
X94283390Y-98544095D02*
X94854819Y-99115523D01*
X94854819Y-99115523D02*
X94854819Y-98496476D01*
X94188152Y-97639333D02*
X94854819Y-97639333D01*
X93807200Y-97877428D02*
X94521485Y-98115523D01*
X94521485Y-98115523D02*
X94521485Y-97496476D01*
X95174819Y-102877904D02*
X94174819Y-102877904D01*
X95174819Y-102306476D02*
X94603390Y-102735047D01*
X94174819Y-102306476D02*
X94746247Y-102877904D01*
X108824819Y-100020285D02*
X107824819Y-100020285D01*
X107824819Y-100020285D02*
X107824819Y-99782190D01*
X107824819Y-99782190D02*
X107872438Y-99639333D01*
X107872438Y-99639333D02*
X107967676Y-99544095D01*
X107967676Y-99544095D02*
X108062914Y-99496476D01*
X108062914Y-99496476D02*
X108253390Y-99448857D01*
X108253390Y-99448857D02*
X108396247Y-99448857D01*
X108396247Y-99448857D02*
X108586723Y-99496476D01*
X108586723Y-99496476D02*
X108681961Y-99544095D01*
X108681961Y-99544095D02*
X108777200Y-99639333D01*
X108777200Y-99639333D02*
X108824819Y-99782190D01*
X108824819Y-99782190D02*
X108824819Y-100020285D01*
X107920057Y-99067904D02*
X107872438Y-99020285D01*
X107872438Y-99020285D02*
X107824819Y-98925047D01*
X107824819Y-98925047D02*
X107824819Y-98686952D01*
X107824819Y-98686952D02*
X107872438Y-98591714D01*
X107872438Y-98591714D02*
X107920057Y-98544095D01*
X107920057Y-98544095D02*
X108015295Y-98496476D01*
X108015295Y-98496476D02*
X108110533Y-98496476D01*
X108110533Y-98496476D02*
X108253390Y-98544095D01*
X108253390Y-98544095D02*
X108824819Y-99115523D01*
X108824819Y-99115523D02*
X108824819Y-98496476D01*
X107824819Y-97591714D02*
X107824819Y-98067904D01*
X107824819Y-98067904D02*
X108301009Y-98115523D01*
X108301009Y-98115523D02*
X108253390Y-98067904D01*
X108253390Y-98067904D02*
X108205771Y-97972666D01*
X108205771Y-97972666D02*
X108205771Y-97734571D01*
X108205771Y-97734571D02*
X108253390Y-97639333D01*
X108253390Y-97639333D02*
X108301009Y-97591714D01*
X108301009Y-97591714D02*
X108396247Y-97544095D01*
X108396247Y-97544095D02*
X108634342Y-97544095D01*
X108634342Y-97544095D02*
X108729580Y-97591714D01*
X108729580Y-97591714D02*
X108777200Y-97639333D01*
X108777200Y-97639333D02*
X108824819Y-97734571D01*
X108824819Y-97734571D02*
X108824819Y-97972666D01*
X108824819Y-97972666D02*
X108777200Y-98067904D01*
X108777200Y-98067904D02*
X108729580Y-98115523D01*
X109144819Y-102877904D02*
X108144819Y-102877904D01*
X109144819Y-102306476D02*
X108573390Y-102735047D01*
X108144819Y-102306476D02*
X108716247Y-102877904D01*
X113523819Y-100020285D02*
X112523819Y-100020285D01*
X112523819Y-100020285D02*
X112523819Y-99782190D01*
X112523819Y-99782190D02*
X112571438Y-99639333D01*
X112571438Y-99639333D02*
X112666676Y-99544095D01*
X112666676Y-99544095D02*
X112761914Y-99496476D01*
X112761914Y-99496476D02*
X112952390Y-99448857D01*
X112952390Y-99448857D02*
X113095247Y-99448857D01*
X113095247Y-99448857D02*
X113285723Y-99496476D01*
X113285723Y-99496476D02*
X113380961Y-99544095D01*
X113380961Y-99544095D02*
X113476200Y-99639333D01*
X113476200Y-99639333D02*
X113523819Y-99782190D01*
X113523819Y-99782190D02*
X113523819Y-100020285D01*
X112619057Y-99067904D02*
X112571438Y-99020285D01*
X112571438Y-99020285D02*
X112523819Y-98925047D01*
X112523819Y-98925047D02*
X112523819Y-98686952D01*
X112523819Y-98686952D02*
X112571438Y-98591714D01*
X112571438Y-98591714D02*
X112619057Y-98544095D01*
X112619057Y-98544095D02*
X112714295Y-98496476D01*
X112714295Y-98496476D02*
X112809533Y-98496476D01*
X112809533Y-98496476D02*
X112952390Y-98544095D01*
X112952390Y-98544095D02*
X113523819Y-99115523D01*
X113523819Y-99115523D02*
X113523819Y-98496476D01*
X112523819Y-97639333D02*
X112523819Y-97829809D01*
X112523819Y-97829809D02*
X112571438Y-97925047D01*
X112571438Y-97925047D02*
X112619057Y-97972666D01*
X112619057Y-97972666D02*
X112761914Y-98067904D01*
X112761914Y-98067904D02*
X112952390Y-98115523D01*
X112952390Y-98115523D02*
X113333342Y-98115523D01*
X113333342Y-98115523D02*
X113428580Y-98067904D01*
X113428580Y-98067904D02*
X113476200Y-98020285D01*
X113476200Y-98020285D02*
X113523819Y-97925047D01*
X113523819Y-97925047D02*
X113523819Y-97734571D01*
X113523819Y-97734571D02*
X113476200Y-97639333D01*
X113476200Y-97639333D02*
X113428580Y-97591714D01*
X113428580Y-97591714D02*
X113333342Y-97544095D01*
X113333342Y-97544095D02*
X113095247Y-97544095D01*
X113095247Y-97544095D02*
X113000009Y-97591714D01*
X113000009Y-97591714D02*
X112952390Y-97639333D01*
X112952390Y-97639333D02*
X112904771Y-97734571D01*
X112904771Y-97734571D02*
X112904771Y-97925047D01*
X112904771Y-97925047D02*
X112952390Y-98020285D01*
X112952390Y-98020285D02*
X113000009Y-98067904D01*
X113000009Y-98067904D02*
X113095247Y-98115523D01*
X113843819Y-102877904D02*
X112843819Y-102877904D01*
X113843819Y-102306476D02*
X113272390Y-102735047D01*
X112843819Y-102306476D02*
X113415247Y-102877904D01*
X178000819Y-110180285D02*
X177000819Y-110180285D01*
X177000819Y-110180285D02*
X177000819Y-109942190D01*
X177000819Y-109942190D02*
X177048438Y-109799333D01*
X177048438Y-109799333D02*
X177143676Y-109704095D01*
X177143676Y-109704095D02*
X177238914Y-109656476D01*
X177238914Y-109656476D02*
X177429390Y-109608857D01*
X177429390Y-109608857D02*
X177572247Y-109608857D01*
X177572247Y-109608857D02*
X177762723Y-109656476D01*
X177762723Y-109656476D02*
X177857961Y-109704095D01*
X177857961Y-109704095D02*
X177953200Y-109799333D01*
X177953200Y-109799333D02*
X178000819Y-109942190D01*
X178000819Y-109942190D02*
X178000819Y-110180285D01*
X177096057Y-109227904D02*
X177048438Y-109180285D01*
X177048438Y-109180285D02*
X177000819Y-109085047D01*
X177000819Y-109085047D02*
X177000819Y-108846952D01*
X177000819Y-108846952D02*
X177048438Y-108751714D01*
X177048438Y-108751714D02*
X177096057Y-108704095D01*
X177096057Y-108704095D02*
X177191295Y-108656476D01*
X177191295Y-108656476D02*
X177286533Y-108656476D01*
X177286533Y-108656476D02*
X177429390Y-108704095D01*
X177429390Y-108704095D02*
X178000819Y-109275523D01*
X178000819Y-109275523D02*
X178000819Y-108656476D01*
X177000819Y-108323142D02*
X177000819Y-107656476D01*
X177000819Y-107656476D02*
X178000819Y-108085047D01*
X178000819Y-122054904D02*
X177000819Y-122054904D01*
X178000819Y-121483476D02*
X177429390Y-121912047D01*
X177000819Y-121483476D02*
X177572247Y-122054904D01*
X182191819Y-102052285D02*
X181191819Y-102052285D01*
X181191819Y-102052285D02*
X181191819Y-101814190D01*
X181191819Y-101814190D02*
X181239438Y-101671333D01*
X181239438Y-101671333D02*
X181334676Y-101576095D01*
X181334676Y-101576095D02*
X181429914Y-101528476D01*
X181429914Y-101528476D02*
X181620390Y-101480857D01*
X181620390Y-101480857D02*
X181763247Y-101480857D01*
X181763247Y-101480857D02*
X181953723Y-101528476D01*
X181953723Y-101528476D02*
X182048961Y-101576095D01*
X182048961Y-101576095D02*
X182144200Y-101671333D01*
X182144200Y-101671333D02*
X182191819Y-101814190D01*
X182191819Y-101814190D02*
X182191819Y-102052285D01*
X181287057Y-101099904D02*
X181239438Y-101052285D01*
X181239438Y-101052285D02*
X181191819Y-100957047D01*
X181191819Y-100957047D02*
X181191819Y-100718952D01*
X181191819Y-100718952D02*
X181239438Y-100623714D01*
X181239438Y-100623714D02*
X181287057Y-100576095D01*
X181287057Y-100576095D02*
X181382295Y-100528476D01*
X181382295Y-100528476D02*
X181477533Y-100528476D01*
X181477533Y-100528476D02*
X181620390Y-100576095D01*
X181620390Y-100576095D02*
X182191819Y-101147523D01*
X182191819Y-101147523D02*
X182191819Y-100528476D01*
X181620390Y-99957047D02*
X181572771Y-100052285D01*
X181572771Y-100052285D02*
X181525152Y-100099904D01*
X181525152Y-100099904D02*
X181429914Y-100147523D01*
X181429914Y-100147523D02*
X181382295Y-100147523D01*
X181382295Y-100147523D02*
X181287057Y-100099904D01*
X181287057Y-100099904D02*
X181239438Y-100052285D01*
X181239438Y-100052285D02*
X181191819Y-99957047D01*
X181191819Y-99957047D02*
X181191819Y-99766571D01*
X181191819Y-99766571D02*
X181239438Y-99671333D01*
X181239438Y-99671333D02*
X181287057Y-99623714D01*
X181287057Y-99623714D02*
X181382295Y-99576095D01*
X181382295Y-99576095D02*
X181429914Y-99576095D01*
X181429914Y-99576095D02*
X181525152Y-99623714D01*
X181525152Y-99623714D02*
X181572771Y-99671333D01*
X181572771Y-99671333D02*
X181620390Y-99766571D01*
X181620390Y-99766571D02*
X181620390Y-99957047D01*
X181620390Y-99957047D02*
X181668009Y-100052285D01*
X181668009Y-100052285D02*
X181715628Y-100099904D01*
X181715628Y-100099904D02*
X181810866Y-100147523D01*
X181810866Y-100147523D02*
X182001342Y-100147523D01*
X182001342Y-100147523D02*
X182096580Y-100099904D01*
X182096580Y-100099904D02*
X182144200Y-100052285D01*
X182144200Y-100052285D02*
X182191819Y-99957047D01*
X182191819Y-99957047D02*
X182191819Y-99766571D01*
X182191819Y-99766571D02*
X182144200Y-99671333D01*
X182144200Y-99671333D02*
X182096580Y-99623714D01*
X182096580Y-99623714D02*
X182001342Y-99576095D01*
X182001342Y-99576095D02*
X181810866Y-99576095D01*
X181810866Y-99576095D02*
X181715628Y-99623714D01*
X181715628Y-99623714D02*
X181668009Y-99671333D01*
X181668009Y-99671333D02*
X181620390Y-99766571D01*
X182191819Y-113926904D02*
X181191819Y-113926904D01*
X182191819Y-113355476D02*
X181620390Y-113784047D01*
X181191819Y-113355476D02*
X181763247Y-113926904D01*
X102616095Y-105176819D02*
X102616095Y-104176819D01*
X102616095Y-104653009D02*
X103187523Y-104653009D01*
X103187523Y-105176819D02*
X103187523Y-104176819D01*
X103568476Y-104176819D02*
X104235142Y-104176819D01*
X104235142Y-104176819D02*
X103806571Y-105176819D01*
X101777895Y-78864619D02*
X101777895Y-77864619D01*
X101777895Y-78340809D02*
X102349323Y-78340809D01*
X102349323Y-78864619D02*
X102349323Y-77864619D01*
X103349323Y-78864619D02*
X102777895Y-78864619D01*
X103063609Y-78864619D02*
X103063609Y-77864619D01*
X103063609Y-77864619D02*
X102968371Y-78007476D01*
X102968371Y-78007476D02*
X102873133Y-78102714D01*
X102873133Y-78102714D02*
X102777895Y-78150333D01*
X182397495Y-79652019D02*
X182397495Y-78652019D01*
X182397495Y-79128209D02*
X182968923Y-79128209D01*
X182968923Y-79652019D02*
X182968923Y-78652019D01*
X183397495Y-78747257D02*
X183445114Y-78699638D01*
X183445114Y-78699638D02*
X183540352Y-78652019D01*
X183540352Y-78652019D02*
X183778447Y-78652019D01*
X183778447Y-78652019D02*
X183873685Y-78699638D01*
X183873685Y-78699638D02*
X183921304Y-78747257D01*
X183921304Y-78747257D02*
X183968923Y-78842495D01*
X183968923Y-78842495D02*
X183968923Y-78937733D01*
X183968923Y-78937733D02*
X183921304Y-79080590D01*
X183921304Y-79080590D02*
X183349876Y-79652019D01*
X183349876Y-79652019D02*
X183968923Y-79652019D01*
X120777095Y-111486819D02*
X120777095Y-110486819D01*
X120777095Y-110963009D02*
X121348523Y-110963009D01*
X121348523Y-111486819D02*
X121348523Y-110486819D01*
X121729476Y-110486819D02*
X122348523Y-110486819D01*
X122348523Y-110486819D02*
X122015190Y-110867771D01*
X122015190Y-110867771D02*
X122158047Y-110867771D01*
X122158047Y-110867771D02*
X122253285Y-110915390D01*
X122253285Y-110915390D02*
X122300904Y-110963009D01*
X122300904Y-110963009D02*
X122348523Y-111058247D01*
X122348523Y-111058247D02*
X122348523Y-111296342D01*
X122348523Y-111296342D02*
X122300904Y-111391580D01*
X122300904Y-111391580D02*
X122253285Y-111439200D01*
X122253285Y-111439200D02*
X122158047Y-111486819D01*
X122158047Y-111486819D02*
X121872333Y-111486819D01*
X121872333Y-111486819D02*
X121777095Y-111439200D01*
X121777095Y-111439200D02*
X121729476Y-111391580D01*
X165227095Y-96339819D02*
X165227095Y-95339819D01*
X165227095Y-95816009D02*
X165798523Y-95816009D01*
X165798523Y-96339819D02*
X165798523Y-95339819D01*
X166703285Y-95673152D02*
X166703285Y-96339819D01*
X166465190Y-95292200D02*
X166227095Y-96006485D01*
X166227095Y-96006485D02*
X166846142Y-96006485D01*
X91948095Y-120884819D02*
X91948095Y-119884819D01*
X91948095Y-120361009D02*
X92519523Y-120361009D01*
X92519523Y-120884819D02*
X92519523Y-119884819D01*
X93471904Y-119884819D02*
X92995714Y-119884819D01*
X92995714Y-119884819D02*
X92948095Y-120361009D01*
X92948095Y-120361009D02*
X92995714Y-120313390D01*
X92995714Y-120313390D02*
X93090952Y-120265771D01*
X93090952Y-120265771D02*
X93329047Y-120265771D01*
X93329047Y-120265771D02*
X93424285Y-120313390D01*
X93424285Y-120313390D02*
X93471904Y-120361009D01*
X93471904Y-120361009D02*
X93519523Y-120456247D01*
X93519523Y-120456247D02*
X93519523Y-120694342D01*
X93519523Y-120694342D02*
X93471904Y-120789580D01*
X93471904Y-120789580D02*
X93424285Y-120837200D01*
X93424285Y-120837200D02*
X93329047Y-120884819D01*
X93329047Y-120884819D02*
X93090952Y-120884819D01*
X93090952Y-120884819D02*
X92995714Y-120837200D01*
X92995714Y-120837200D02*
X92948095Y-120789580D01*
X193167095Y-120884819D02*
X193167095Y-119884819D01*
X193167095Y-120361009D02*
X193738523Y-120361009D01*
X193738523Y-120884819D02*
X193738523Y-119884819D01*
X194643285Y-119884819D02*
X194452809Y-119884819D01*
X194452809Y-119884819D02*
X194357571Y-119932438D01*
X194357571Y-119932438D02*
X194309952Y-119980057D01*
X194309952Y-119980057D02*
X194214714Y-120122914D01*
X194214714Y-120122914D02*
X194167095Y-120313390D01*
X194167095Y-120313390D02*
X194167095Y-120694342D01*
X194167095Y-120694342D02*
X194214714Y-120789580D01*
X194214714Y-120789580D02*
X194262333Y-120837200D01*
X194262333Y-120837200D02*
X194357571Y-120884819D01*
X194357571Y-120884819D02*
X194548047Y-120884819D01*
X194548047Y-120884819D02*
X194643285Y-120837200D01*
X194643285Y-120837200D02*
X194690904Y-120789580D01*
X194690904Y-120789580D02*
X194738523Y-120694342D01*
X194738523Y-120694342D02*
X194738523Y-120456247D01*
X194738523Y-120456247D02*
X194690904Y-120361009D01*
X194690904Y-120361009D02*
X194643285Y-120313390D01*
X194643285Y-120313390D02*
X194548047Y-120265771D01*
X194548047Y-120265771D02*
X194357571Y-120265771D01*
X194357571Y-120265771D02*
X194262333Y-120313390D01*
X194262333Y-120313390D02*
X194214714Y-120361009D01*
X194214714Y-120361009D02*
X194167095Y-120456247D01*
X159258095Y-111486819D02*
X159258095Y-110486819D01*
X159258095Y-110963009D02*
X159829523Y-110963009D01*
X159829523Y-111486819D02*
X159829523Y-110486819D01*
X160448571Y-110915390D02*
X160353333Y-110867771D01*
X160353333Y-110867771D02*
X160305714Y-110820152D01*
X160305714Y-110820152D02*
X160258095Y-110724914D01*
X160258095Y-110724914D02*
X160258095Y-110677295D01*
X160258095Y-110677295D02*
X160305714Y-110582057D01*
X160305714Y-110582057D02*
X160353333Y-110534438D01*
X160353333Y-110534438D02*
X160448571Y-110486819D01*
X160448571Y-110486819D02*
X160639047Y-110486819D01*
X160639047Y-110486819D02*
X160734285Y-110534438D01*
X160734285Y-110534438D02*
X160781904Y-110582057D01*
X160781904Y-110582057D02*
X160829523Y-110677295D01*
X160829523Y-110677295D02*
X160829523Y-110724914D01*
X160829523Y-110724914D02*
X160781904Y-110820152D01*
X160781904Y-110820152D02*
X160734285Y-110867771D01*
X160734285Y-110867771D02*
X160639047Y-110915390D01*
X160639047Y-110915390D02*
X160448571Y-110915390D01*
X160448571Y-110915390D02*
X160353333Y-110963009D01*
X160353333Y-110963009D02*
X160305714Y-111010628D01*
X160305714Y-111010628D02*
X160258095Y-111105866D01*
X160258095Y-111105866D02*
X160258095Y-111296342D01*
X160258095Y-111296342D02*
X160305714Y-111391580D01*
X160305714Y-111391580D02*
X160353333Y-111439200D01*
X160353333Y-111439200D02*
X160448571Y-111486819D01*
X160448571Y-111486819D02*
X160639047Y-111486819D01*
X160639047Y-111486819D02*
X160734285Y-111439200D01*
X160734285Y-111439200D02*
X160781904Y-111391580D01*
X160781904Y-111391580D02*
X160829523Y-111296342D01*
X160829523Y-111296342D02*
X160829523Y-111105866D01*
X160829523Y-111105866D02*
X160781904Y-111010628D01*
X160781904Y-111010628D02*
X160734285Y-110963009D01*
X160734285Y-110963009D02*
X160639047Y-110915390D01*
X120777095Y-91039819D02*
X120777095Y-90039819D01*
X120777095Y-90516009D02*
X121348523Y-90516009D01*
X121348523Y-91039819D02*
X121348523Y-90039819D01*
X121872333Y-91039819D02*
X122062809Y-91039819D01*
X122062809Y-91039819D02*
X122158047Y-90992200D01*
X122158047Y-90992200D02*
X122205666Y-90944580D01*
X122205666Y-90944580D02*
X122300904Y-90801723D01*
X122300904Y-90801723D02*
X122348523Y-90611247D01*
X122348523Y-90611247D02*
X122348523Y-90230295D01*
X122348523Y-90230295D02*
X122300904Y-90135057D01*
X122300904Y-90135057D02*
X122253285Y-90087438D01*
X122253285Y-90087438D02*
X122158047Y-90039819D01*
X122158047Y-90039819D02*
X121967571Y-90039819D01*
X121967571Y-90039819D02*
X121872333Y-90087438D01*
X121872333Y-90087438D02*
X121824714Y-90135057D01*
X121824714Y-90135057D02*
X121777095Y-90230295D01*
X121777095Y-90230295D02*
X121777095Y-90468390D01*
X121777095Y-90468390D02*
X121824714Y-90563628D01*
X121824714Y-90563628D02*
X121872333Y-90611247D01*
X121872333Y-90611247D02*
X121967571Y-90658866D01*
X121967571Y-90658866D02*
X122158047Y-90658866D01*
X122158047Y-90658866D02*
X122253285Y-90611247D01*
X122253285Y-90611247D02*
X122300904Y-90563628D01*
X122300904Y-90563628D02*
X122348523Y-90468390D01*
X126819819Y-88622094D02*
X125819819Y-88622094D01*
X125819819Y-88622094D02*
X125819819Y-88383999D01*
X125819819Y-88383999D02*
X125867438Y-88241142D01*
X125867438Y-88241142D02*
X125962676Y-88145904D01*
X125962676Y-88145904D02*
X126057914Y-88098285D01*
X126057914Y-88098285D02*
X126248390Y-88050666D01*
X126248390Y-88050666D02*
X126391247Y-88050666D01*
X126391247Y-88050666D02*
X126581723Y-88098285D01*
X126581723Y-88098285D02*
X126676961Y-88145904D01*
X126676961Y-88145904D02*
X126772200Y-88241142D01*
X126772200Y-88241142D02*
X126819819Y-88383999D01*
X126819819Y-88383999D02*
X126819819Y-88622094D01*
X125819819Y-87717332D02*
X125819819Y-87098285D01*
X125819819Y-87098285D02*
X126200771Y-87431618D01*
X126200771Y-87431618D02*
X126200771Y-87288761D01*
X126200771Y-87288761D02*
X126248390Y-87193523D01*
X126248390Y-87193523D02*
X126296009Y-87145904D01*
X126296009Y-87145904D02*
X126391247Y-87098285D01*
X126391247Y-87098285D02*
X126629342Y-87098285D01*
X126629342Y-87098285D02*
X126724580Y-87145904D01*
X126724580Y-87145904D02*
X126772200Y-87193523D01*
X126772200Y-87193523D02*
X126819819Y-87288761D01*
X126819819Y-87288761D02*
X126819819Y-87574475D01*
X126819819Y-87574475D02*
X126772200Y-87669713D01*
X126772200Y-87669713D02*
X126724580Y-87717332D01*
X125422819Y-87637904D02*
X124422819Y-87637904D01*
X125422819Y-87066476D02*
X124851390Y-87495047D01*
X124422819Y-87066476D02*
X124994247Y-87637904D01*
D12*
%TO.C,D1*%
X128651000Y-84812000D02*
X128651000Y-84162000D01*
X127531000Y-84162000D02*
X129771000Y-84162000D01*
X129771000Y-84162000D02*
X129771000Y-79922000D01*
X127531000Y-83562000D02*
X129771000Y-83562000D01*
X127531000Y-83442000D02*
X129771000Y-83442000D01*
X127531000Y-83322000D02*
X129771000Y-83322000D01*
X127531000Y-79922000D02*
X127531000Y-84162000D01*
X129771000Y-79922000D02*
X127531000Y-79922000D01*
X128651000Y-79272000D02*
X128651000Y-79922000D01*
%TO.C,D2*%
X131572000Y-84638371D02*
X131572000Y-84752000D01*
X132898371Y-83312000D02*
G75*
G03*
X130245629Y-83312000I-1326371J0D01*
G01*
X130245629Y-83312000D02*
G75*
G03*
X132898371Y-83312000I1326371J0D01*
G01*
%TO.C,D4*%
X122809000Y-84638371D02*
X122809000Y-84752000D01*
X124135371Y-83312000D02*
G75*
G03*
X121482629Y-83312000I-1326371J0D01*
G01*
X121482629Y-83312000D02*
G75*
G03*
X124135371Y-83312000I1326371J0D01*
G01*
%TO.C,D5*%
X110871000Y-84638371D02*
X110871000Y-84752000D01*
X112197371Y-83312000D02*
G75*
G03*
X109544629Y-83312000I-1326371J0D01*
G01*
X109544629Y-83312000D02*
G75*
G03*
X112197371Y-83312000I1326371J0D01*
G01*
%TO.C,D6*%
X113919000Y-84812000D02*
X113919000Y-82892000D01*
X112799000Y-82892000D02*
X115039000Y-82892000D01*
X115039000Y-82892000D02*
X115039000Y-78652000D01*
X112799000Y-82292000D02*
X115039000Y-82292000D01*
X112799000Y-82172000D02*
X115039000Y-82172000D01*
X112799000Y-82052000D02*
X115039000Y-82052000D01*
X112799000Y-78652000D02*
X112799000Y-82892000D01*
X115039000Y-78652000D02*
X112799000Y-78652000D01*
X113919000Y-76732000D02*
X113919000Y-78652000D01*
%TO.C,D7*%
X116967000Y-84812000D02*
X116967000Y-84162000D01*
X115847000Y-84162000D02*
X118087000Y-84162000D01*
X118087000Y-84162000D02*
X118087000Y-79922000D01*
X115847000Y-83562000D02*
X118087000Y-83562000D01*
X115847000Y-83442000D02*
X118087000Y-83442000D01*
X115847000Y-83322000D02*
X118087000Y-83322000D01*
X115847000Y-79922000D02*
X115847000Y-84162000D01*
X118087000Y-79922000D02*
X115847000Y-79922000D01*
X116967000Y-79272000D02*
X116967000Y-79922000D01*
%TO.C,D8*%
X119888000Y-82098371D02*
X119888000Y-84752000D01*
X121214371Y-80772000D02*
G75*
G03*
X118561629Y-80772000I-1326371J0D01*
G01*
X118561629Y-80772000D02*
G75*
G03*
X121214371Y-80772000I1326371J0D01*
G01*
%TO.C,D9*%
X152019000Y-84812000D02*
X152019000Y-82892000D01*
X150899000Y-82892000D02*
X153139000Y-82892000D01*
X153139000Y-82892000D02*
X153139000Y-78652000D01*
X150899000Y-82292000D02*
X153139000Y-82292000D01*
X150899000Y-82172000D02*
X153139000Y-82172000D01*
X150899000Y-82052000D02*
X153139000Y-82052000D01*
X150899000Y-78652000D02*
X150899000Y-82892000D01*
X153139000Y-78652000D02*
X150899000Y-78652000D01*
X152019000Y-76732000D02*
X152019000Y-78652000D01*
%TO.C,D10*%
X154813000Y-84812000D02*
X154813000Y-84162000D01*
X153693000Y-84162000D02*
X155933000Y-84162000D01*
X155933000Y-84162000D02*
X155933000Y-79922000D01*
X153693000Y-83562000D02*
X155933000Y-83562000D01*
X153693000Y-83442000D02*
X155933000Y-83442000D01*
X153693000Y-83322000D02*
X155933000Y-83322000D01*
X153693000Y-79922000D02*
X153693000Y-84162000D01*
X155933000Y-79922000D02*
X153693000Y-79922000D01*
X154813000Y-79272000D02*
X154813000Y-79922000D01*
%TO.C,D11*%
X149098000Y-84812000D02*
X149098000Y-84162000D01*
X147978000Y-84162000D02*
X150218000Y-84162000D01*
X150218000Y-84162000D02*
X150218000Y-79922000D01*
X147978000Y-83562000D02*
X150218000Y-83562000D01*
X147978000Y-83442000D02*
X150218000Y-83442000D01*
X147978000Y-83322000D02*
X150218000Y-83322000D01*
X147978000Y-79922000D02*
X147978000Y-84162000D01*
X150218000Y-79922000D02*
X147978000Y-79922000D01*
X149098000Y-79272000D02*
X149098000Y-79922000D01*
%TO.C,D12*%
X146177000Y-82098371D02*
X146177000Y-84752000D01*
X147503371Y-80772000D02*
G75*
G03*
X144850629Y-80772000I-1326371J0D01*
G01*
X144850629Y-80772000D02*
G75*
G03*
X147503371Y-80772000I1326371J0D01*
G01*
%TO.C,D13*%
X143256000Y-84638371D02*
X143256000Y-84752000D01*
X144582371Y-83312000D02*
G75*
G03*
X141929629Y-83312000I-1326371J0D01*
G01*
X141929629Y-83312000D02*
G75*
G03*
X144582371Y-83312000I1326371J0D01*
G01*
%TO.C,D14*%
X140335000Y-84812000D02*
X140335000Y-84162000D01*
X139215000Y-84162000D02*
X141455000Y-84162000D01*
X141455000Y-84162000D02*
X141455000Y-79922000D01*
X139215000Y-83562000D02*
X141455000Y-83562000D01*
X139215000Y-83442000D02*
X141455000Y-83442000D01*
X139215000Y-83322000D02*
X141455000Y-83322000D01*
X139215000Y-79922000D02*
X139215000Y-84162000D01*
X141455000Y-79922000D02*
X139215000Y-79922000D01*
X140335000Y-79272000D02*
X140335000Y-79922000D01*
%TO.C,D15*%
X137414000Y-82098371D02*
X137414000Y-84752000D01*
X138740371Y-80772000D02*
G75*
G03*
X136087629Y-80772000I-1326371J0D01*
G01*
X136087629Y-80772000D02*
G75*
G03*
X138740371Y-80772000I1326371J0D01*
G01*
%TO.C,D16*%
X134493000Y-82098371D02*
X134493000Y-84752000D01*
X135819371Y-80772000D02*
G75*
G03*
X133166629Y-80772000I-1326371J0D01*
G01*
X133166629Y-80772000D02*
G75*
G03*
X135819371Y-80772000I1326371J0D01*
G01*
%TO.C,D17*%
X169164000Y-84812000D02*
X169164000Y-82892000D01*
X168044000Y-82892000D02*
X170284000Y-82892000D01*
X170284000Y-82892000D02*
X170284000Y-78652000D01*
X168044000Y-82292000D02*
X170284000Y-82292000D01*
X168044000Y-82172000D02*
X170284000Y-82172000D01*
X168044000Y-82052000D02*
X170284000Y-82052000D01*
X168044000Y-78652000D02*
X168044000Y-82892000D01*
X170284000Y-78652000D02*
X168044000Y-78652000D01*
X169164000Y-76732000D02*
X169164000Y-78652000D01*
%TO.C,D18*%
X172085000Y-82098371D02*
X172085000Y-84752000D01*
X173411371Y-80772000D02*
G75*
G03*
X170758629Y-80772000I-1326371J0D01*
G01*
X170758629Y-80772000D02*
G75*
G03*
X173411371Y-80772000I1326371J0D01*
G01*
%TO.C,D19*%
X166243000Y-84812000D02*
X166243000Y-84162000D01*
X165123000Y-84162000D02*
X167363000Y-84162000D01*
X167363000Y-84162000D02*
X167363000Y-79922000D01*
X165123000Y-83562000D02*
X167363000Y-83562000D01*
X165123000Y-83442000D02*
X167363000Y-83442000D01*
X165123000Y-83322000D02*
X167363000Y-83322000D01*
X165123000Y-79922000D02*
X165123000Y-84162000D01*
X167363000Y-79922000D02*
X165123000Y-79922000D01*
X166243000Y-79272000D02*
X166243000Y-79922000D01*
%TO.C,D20*%
X163449000Y-84812000D02*
X163449000Y-82892000D01*
X162329000Y-82892000D02*
X164569000Y-82892000D01*
X164569000Y-82892000D02*
X164569000Y-78652000D01*
X162329000Y-82292000D02*
X164569000Y-82292000D01*
X162329000Y-82172000D02*
X164569000Y-82172000D01*
X162329000Y-82052000D02*
X164569000Y-82052000D01*
X162329000Y-78652000D02*
X162329000Y-82892000D01*
X164569000Y-78652000D02*
X162329000Y-78652000D01*
X163449000Y-76732000D02*
X163449000Y-78652000D01*
%TO.C,D21*%
X157607000Y-84812000D02*
X157607000Y-82892000D01*
X156487000Y-82892000D02*
X158727000Y-82892000D01*
X158727000Y-82892000D02*
X158727000Y-78652000D01*
X156487000Y-82292000D02*
X158727000Y-82292000D01*
X156487000Y-82172000D02*
X158727000Y-82172000D01*
X156487000Y-82052000D02*
X158727000Y-82052000D01*
X156487000Y-78652000D02*
X156487000Y-82892000D01*
X158727000Y-78652000D02*
X156487000Y-78652000D01*
X157607000Y-76732000D02*
X157607000Y-78652000D01*
%TO.C,D22*%
X160528000Y-84638371D02*
X160528000Y-84752000D01*
X161854371Y-83312000D02*
G75*
G03*
X159201629Y-83312000I-1326371J0D01*
G01*
X159201629Y-83312000D02*
G75*
G03*
X161854371Y-83312000I1326371J0D01*
G01*
%TO.C,J1*%
X177486000Y-77343000D02*
X177486000Y-97723000D01*
X177486000Y-77343000D02*
X180146000Y-77343000D01*
X177486000Y-97723000D02*
X180146000Y-97723000D01*
X178816000Y-74743000D02*
X180146000Y-74743000D01*
X180146000Y-74743000D02*
X180146000Y-76073000D01*
X180146000Y-77343000D02*
X180146000Y-97723000D01*
%TO.C,SW1*%
X131606000Y-125854000D02*
X128926000Y-125854000D01*
X127146000Y-125704000D02*
X127146000Y-119764000D01*
X133386000Y-125704000D02*
X133386000Y-119764000D01*
X128926000Y-119614000D02*
X131606000Y-119614000D01*
X131680214Y-122734000D02*
G75*
G03*
X128851786Y-122734000I-1414214J0D01*
G01*
X128851786Y-122734000D02*
G75*
G03*
X131680214Y-122734000I1414214J0D01*
G01*
%TO.C,SW2*%
X131606000Y-117260332D02*
X128926000Y-117260332D01*
X127146000Y-117110332D02*
X127146000Y-111170332D01*
X133386000Y-117110332D02*
X133386000Y-111170332D01*
X128926000Y-111020332D02*
X131606000Y-111020332D01*
X131680214Y-114140332D02*
G75*
G03*
X128851786Y-114140332I-1414214J0D01*
G01*
X128851786Y-114140332D02*
G75*
G03*
X131680214Y-114140332I1414214J0D01*
G01*
%TO.C,SW3*%
X131606000Y-100073000D02*
X128926000Y-100073000D01*
X127146000Y-99923000D02*
X127146000Y-93983000D01*
X133386000Y-99923000D02*
X133386000Y-93983000D01*
X128926000Y-93833000D02*
X131606000Y-93833000D01*
X131680214Y-96953000D02*
G75*
G03*
X128851786Y-96953000I-1414214J0D01*
G01*
X128851786Y-96953000D02*
G75*
G03*
X131680214Y-96953000I1414214J0D01*
G01*
%TO.C,SW4*%
X131606000Y-108666666D02*
X128926000Y-108666666D01*
X127146000Y-108516666D02*
X127146000Y-102576666D01*
X133386000Y-108516666D02*
X133386000Y-102576666D01*
X128926000Y-102426666D02*
X131606000Y-102426666D01*
X131680214Y-105546666D02*
G75*
G03*
X128851786Y-105546666I-1414214J0D01*
G01*
X128851786Y-105546666D02*
G75*
G03*
X131680214Y-105546666I1414214J0D01*
G01*
%TO.C,SW5*%
X142020000Y-125854000D02*
X139340000Y-125854000D01*
X137560000Y-125704000D02*
X137560000Y-119764000D01*
X143800000Y-125704000D02*
X143800000Y-119764000D01*
X139340000Y-119614000D02*
X142020000Y-119614000D01*
X142094214Y-122734000D02*
G75*
G03*
X139265786Y-122734000I-1414214J0D01*
G01*
X139265786Y-122734000D02*
G75*
G03*
X142094214Y-122734000I1414214J0D01*
G01*
%TO.C,SW6*%
X142020000Y-117218000D02*
X139340000Y-117218000D01*
X137560000Y-117068000D02*
X137560000Y-111128000D01*
X143800000Y-117068000D02*
X143800000Y-111128000D01*
X139340000Y-110978000D02*
X142020000Y-110978000D01*
X142094214Y-114098000D02*
G75*
G03*
X139265786Y-114098000I-1414214J0D01*
G01*
X139265786Y-114098000D02*
G75*
G03*
X142094214Y-114098000I1414214J0D01*
G01*
%TO.C,SW7*%
X142020000Y-108582000D02*
X139340000Y-108582000D01*
X137560000Y-108432000D02*
X137560000Y-102492000D01*
X143800000Y-108432000D02*
X143800000Y-102492000D01*
X139340000Y-102342000D02*
X142020000Y-102342000D01*
X142094214Y-105462000D02*
G75*
G03*
X139265786Y-105462000I-1414214J0D01*
G01*
X139265786Y-105462000D02*
G75*
G03*
X142094214Y-105462000I1414214J0D01*
G01*
%TO.C,SW8*%
X142020000Y-99946000D02*
X139340000Y-99946000D01*
X137560000Y-99796000D02*
X137560000Y-93856000D01*
X143800000Y-99796000D02*
X143800000Y-93856000D01*
X139340000Y-93706000D02*
X142020000Y-93706000D01*
X142094214Y-96826000D02*
G75*
G03*
X139265786Y-96826000I-1414214J0D01*
G01*
X139265786Y-96826000D02*
G75*
G03*
X142094214Y-96826000I1414214J0D01*
G01*
%TO.C,SW9*%
X152053000Y-125727000D02*
X149373000Y-125727000D01*
X147593000Y-125577000D02*
X147593000Y-119637000D01*
X153833000Y-125577000D02*
X153833000Y-119637000D01*
X149373000Y-119487000D02*
X152053000Y-119487000D01*
X152127214Y-122607000D02*
G75*
G03*
X149298786Y-122607000I-1414214J0D01*
G01*
X149298786Y-122607000D02*
G75*
G03*
X152127214Y-122607000I1414214J0D01*
G01*
%TO.C,SW10*%
X152053000Y-117133332D02*
X149373000Y-117133332D01*
X147593000Y-116983332D02*
X147593000Y-111043332D01*
X153833000Y-116983332D02*
X153833000Y-111043332D01*
X149373000Y-110893332D02*
X152053000Y-110893332D01*
X152127214Y-114013332D02*
G75*
G03*
X149298786Y-114013332I-1414214J0D01*
G01*
X149298786Y-114013332D02*
G75*
G03*
X152127214Y-114013332I1414214J0D01*
G01*
%TO.C,SW11*%
X152053000Y-108539666D02*
X149373000Y-108539666D01*
X147593000Y-108389666D02*
X147593000Y-102449666D01*
X153833000Y-108389666D02*
X153833000Y-102449666D01*
X149373000Y-102299666D02*
X152053000Y-102299666D01*
X152127214Y-105419666D02*
G75*
G03*
X149298786Y-105419666I-1414214J0D01*
G01*
X149298786Y-105419666D02*
G75*
G03*
X152127214Y-105419666I1414214J0D01*
G01*
%TO.C,SW12*%
X152053000Y-99946000D02*
X149373000Y-99946000D01*
X147593000Y-99796000D02*
X147593000Y-93856000D01*
X153833000Y-99796000D02*
X153833000Y-93856000D01*
X149373000Y-93706000D02*
X152053000Y-93706000D01*
X152127214Y-96826000D02*
G75*
G03*
X149298786Y-96826000I-1414214J0D01*
G01*
X149298786Y-96826000D02*
G75*
G03*
X152127214Y-96826000I1414214J0D01*
G01*
%TO.C,SW13*%
X95792000Y-111542000D02*
X93112000Y-111542000D01*
X91332000Y-111392000D02*
X91332000Y-105452000D01*
X97572000Y-111392000D02*
X97572000Y-105452000D01*
X93112000Y-105302000D02*
X95792000Y-105302000D01*
X95866214Y-108422000D02*
G75*
G03*
X93037786Y-108422000I-1414214J0D01*
G01*
X93037786Y-108422000D02*
G75*
G03*
X95866214Y-108422000I1414214J0D01*
G01*
%TO.C,SW14*%
X104718000Y-102740000D02*
X102038000Y-102740000D01*
X100258000Y-102590000D02*
X100258000Y-96650000D01*
X106498000Y-102590000D02*
X106498000Y-96650000D01*
X102038000Y-96500000D02*
X104718000Y-96500000D01*
X104792214Y-99620000D02*
G75*
G03*
X101963786Y-99620000I-1414214J0D01*
G01*
X101963786Y-99620000D02*
G75*
G03*
X104792214Y-99620000I1414214J0D01*
G01*
%TO.C,SW15*%
X104718000Y-120393000D02*
X102038000Y-120393000D01*
X100258000Y-120243000D02*
X100258000Y-114303000D01*
X106498000Y-120243000D02*
X106498000Y-114303000D01*
X102038000Y-114153000D02*
X104718000Y-114153000D01*
X104792214Y-117273000D02*
G75*
G03*
X101963786Y-117273000I-1414214J0D01*
G01*
X101963786Y-117273000D02*
G75*
G03*
X104792214Y-117273000I1414214J0D01*
G01*
%TO.C,SW16*%
X110964000Y-105302000D02*
X113644000Y-105302000D01*
X115424000Y-105452000D02*
X115424000Y-111392000D01*
X109184000Y-105452000D02*
X109184000Y-111392000D01*
X113644000Y-111542000D02*
X110964000Y-111542000D01*
X113718214Y-108422000D02*
G75*
G03*
X110889786Y-108422000I-1414214J0D01*
G01*
X110889786Y-108422000D02*
G75*
G03*
X113718214Y-108422000I1414214J0D01*
G01*
%TO.C,SW17*%
X173008000Y-119885000D02*
X170328000Y-119885000D01*
X168548000Y-119735000D02*
X168548000Y-113795000D01*
X174788000Y-119735000D02*
X174788000Y-113795000D01*
X170328000Y-113645000D02*
X173008000Y-113645000D01*
X173082214Y-116765000D02*
G75*
G03*
X170253786Y-116765000I-1414214J0D01*
G01*
X170253786Y-116765000D02*
G75*
G03*
X173082214Y-116765000I1414214J0D01*
G01*
%TO.C,SW18*%
X186275000Y-105302000D02*
X188955000Y-105302000D01*
X190735000Y-105452000D02*
X190735000Y-111392000D01*
X184495000Y-105452000D02*
X184495000Y-111392000D01*
X188955000Y-111542000D02*
X186275000Y-111542000D01*
X189029214Y-108422000D02*
G75*
G03*
X186200786Y-108422000I-1414214J0D01*
G01*
X186200786Y-108422000D02*
G75*
G03*
X189029214Y-108422000I1414214J0D01*
G01*
%TO.C,D23*%
X92075000Y-101576000D02*
X92075000Y-100926000D01*
X90955000Y-100926000D02*
X93195000Y-100926000D01*
X93195000Y-100926000D02*
X93195000Y-96686000D01*
X90955000Y-100326000D02*
X93195000Y-100326000D01*
X90955000Y-100206000D02*
X93195000Y-100206000D01*
X90955000Y-100086000D02*
X93195000Y-100086000D01*
X90955000Y-96686000D02*
X90955000Y-100926000D01*
X93195000Y-96686000D02*
X90955000Y-96686000D01*
X92075000Y-96036000D02*
X92075000Y-96686000D01*
%TO.C,D24*%
X96520000Y-101576000D02*
X96520000Y-100926000D01*
X95400000Y-100926000D02*
X97640000Y-100926000D01*
X97640000Y-100926000D02*
X97640000Y-96686000D01*
X95400000Y-100326000D02*
X97640000Y-100326000D01*
X95400000Y-100206000D02*
X97640000Y-100206000D01*
X95400000Y-100086000D02*
X97640000Y-100086000D01*
X95400000Y-96686000D02*
X95400000Y-100926000D01*
X97640000Y-96686000D02*
X95400000Y-96686000D01*
X96520000Y-96036000D02*
X96520000Y-96686000D01*
%TO.C,D25*%
X110490000Y-101576000D02*
X110490000Y-100926000D01*
X109370000Y-100926000D02*
X111610000Y-100926000D01*
X111610000Y-100926000D02*
X111610000Y-96686000D01*
X109370000Y-100326000D02*
X111610000Y-100326000D01*
X109370000Y-100206000D02*
X111610000Y-100206000D01*
X109370000Y-100086000D02*
X111610000Y-100086000D01*
X109370000Y-96686000D02*
X109370000Y-100926000D01*
X111610000Y-96686000D02*
X109370000Y-96686000D01*
X110490000Y-96036000D02*
X110490000Y-96686000D01*
%TO.C,D26*%
X115189000Y-101576000D02*
X115189000Y-100926000D01*
X114069000Y-100926000D02*
X116309000Y-100926000D01*
X116309000Y-100926000D02*
X116309000Y-96686000D01*
X114069000Y-100326000D02*
X116309000Y-100326000D01*
X114069000Y-100206000D02*
X116309000Y-100206000D01*
X114069000Y-100086000D02*
X116309000Y-100086000D01*
X114069000Y-96686000D02*
X114069000Y-100926000D01*
X116309000Y-96686000D02*
X114069000Y-96686000D01*
X115189000Y-96036000D02*
X115189000Y-96686000D01*
%TO.C,D27*%
X177546000Y-118848000D02*
X177546000Y-118198000D01*
X176426000Y-118198000D02*
X178666000Y-118198000D01*
X178666000Y-118198000D02*
X178666000Y-113958000D01*
X176426000Y-117598000D02*
X178666000Y-117598000D01*
X176426000Y-117478000D02*
X178666000Y-117478000D01*
X176426000Y-117358000D02*
X178666000Y-117358000D01*
X176426000Y-113958000D02*
X176426000Y-118198000D01*
X178666000Y-113958000D02*
X176426000Y-113958000D01*
X177546000Y-113308000D02*
X177546000Y-113958000D01*
%TO.C,D28*%
X181737000Y-110720000D02*
X181737000Y-110070000D01*
X180617000Y-110070000D02*
X182857000Y-110070000D01*
X182857000Y-110070000D02*
X182857000Y-105830000D01*
X180617000Y-109470000D02*
X182857000Y-109470000D01*
X180617000Y-109350000D02*
X182857000Y-109350000D01*
X180617000Y-109230000D02*
X182857000Y-109230000D01*
X180617000Y-105830000D02*
X180617000Y-110070000D01*
X182857000Y-105830000D02*
X180617000Y-105830000D01*
X181737000Y-105180000D02*
X181737000Y-105830000D01*
%TO.C,D3*%
X125730000Y-82098371D02*
X125730000Y-84752000D01*
X127056371Y-80772000D02*
G75*
G03*
X124403629Y-80772000I-1326371J0D01*
G01*
X124403629Y-80772000D02*
G75*
G03*
X127056371Y-80772000I1326371J0D01*
G01*
%TD*%
M02*
