%TF.GenerationSoftware,KiCad,Pcbnew,7.0.11-7.0.11~ubuntu22.04.1*%
%TF.CreationDate,2024-09-19T14:01:14-04:00*%
%TF.ProjectId,colecovision_controller,636f6c65-636f-4766-9973-696f6e5f636f,rev?*%
%TF.SameCoordinates,Original*%
%TF.FileFunction,Copper,L2,Bot*%
%TF.FilePolarity,Positive*%
%FSLAX46Y46*%
G04 Gerber Fmt 4.6, Leading zero omitted, Abs format (unit mm)*
G04 Created by KiCad (PCBNEW 7.0.11-7.0.11~ubuntu22.04.1) date 2024-09-19 14:01:14*
%MOMM*%
%LPD*%
G01*
G04 APERTURE LIST*
%TA.AperFunction,ComponentPad*%
%ADD10R,1.600000X1.600000*%
%TD*%
%TA.AperFunction,ComponentPad*%
%ADD11O,1.600000X1.600000*%
%TD*%
%TA.AperFunction,ComponentPad*%
%ADD12R,1.700000X1.700000*%
%TD*%
%TA.AperFunction,ComponentPad*%
%ADD13O,1.700000X1.700000*%
%TD*%
%TA.AperFunction,ComponentPad*%
%ADD14C,1.700000*%
%TD*%
%TA.AperFunction,Conductor*%
%ADD15C,0.381000*%
%TD*%
%TA.AperFunction,Conductor*%
%ADD16C,0.533400*%
%TD*%
%TA.AperFunction,Conductor*%
%ADD17C,0.457200*%
%TD*%
G04 APERTURE END LIST*
D10*
%TO.P,D1,1,K*%
%TO.N,Net-(D1-K)*%
X128651000Y-85852000D03*
D11*
%TO.P,D1,2,A*%
%TO.N,/DIN_2*%
X128651000Y-78232000D03*
%TD*%
D10*
%TO.P,D2,1,K*%
%TO.N,Net-(D1-K)*%
X131572000Y-85852000D03*
D11*
%TO.P,D2,2,A*%
%TO.N,/DIN_4*%
X131572000Y-83312000D03*
%TD*%
D10*
%TO.P,D4,1,K*%
%TO.N,Net-(D3-K)*%
X122809000Y-85852000D03*
D11*
%TO.P,D4,2,A*%
%TO.N,/DIN_4*%
X122809000Y-83312000D03*
%TD*%
D10*
%TO.P,D5,1,K*%
%TO.N,Net-(D5-K)*%
X110871000Y-85852000D03*
D11*
%TO.P,D5,2,A*%
%TO.N,/DIN_4*%
X110871000Y-83312000D03*
%TD*%
D10*
%TO.P,D6,1,K*%
%TO.N,Net-(D6-K)*%
X113919000Y-85852000D03*
D11*
%TO.P,D6,2,A*%
%TO.N,/DIN_1*%
X113919000Y-75692000D03*
%TD*%
D10*
%TO.P,D7,1,K*%
%TO.N,Net-(D6-K)*%
X116967000Y-85852000D03*
D11*
%TO.P,D7,2,A*%
%TO.N,/DIN_2*%
X116967000Y-78232000D03*
%TD*%
D10*
%TO.P,D8,1,K*%
%TO.N,Net-(D6-K)*%
X119888000Y-85852000D03*
D11*
%TO.P,D8,2,A*%
%TO.N,/DIN_3*%
X119888000Y-80772000D03*
%TD*%
D10*
%TO.P,D9,1,K*%
%TO.N,Net-(D10-K)*%
X152019000Y-85852000D03*
D11*
%TO.P,D9,2,A*%
%TO.N,/DIN_1*%
X152019000Y-75692000D03*
%TD*%
D10*
%TO.P,D10,1,K*%
%TO.N,Net-(D10-K)*%
X154813000Y-85852000D03*
D11*
%TO.P,D10,2,A*%
%TO.N,/DIN_2*%
X154813000Y-78232000D03*
%TD*%
D10*
%TO.P,D11,1,K*%
%TO.N,Net-(D11-K)*%
X149098000Y-85852000D03*
D11*
%TO.P,D11,2,A*%
%TO.N,/DIN_2*%
X149098000Y-78232000D03*
%TD*%
D10*
%TO.P,D12,1,K*%
%TO.N,Net-(D11-K)*%
X146177000Y-85852000D03*
D11*
%TO.P,D12,2,A*%
%TO.N,/DIN_3*%
X146177000Y-80772000D03*
%TD*%
D10*
%TO.P,D13,1,K*%
%TO.N,Net-(D11-K)*%
X143256000Y-85852000D03*
D11*
%TO.P,D13,2,A*%
%TO.N,/DIN_4*%
X143256000Y-83312000D03*
%TD*%
D10*
%TO.P,D14,1,K*%
%TO.N,Net-(D14-K)*%
X140335000Y-85852000D03*
D11*
%TO.P,D14,2,A*%
%TO.N,/DIN_2*%
X140335000Y-78232000D03*
%TD*%
D10*
%TO.P,D15,1,K*%
%TO.N,Net-(D14-K)*%
X137414000Y-85852000D03*
D11*
%TO.P,D15,2,A*%
%TO.N,/DIN_3*%
X137414000Y-80772000D03*
%TD*%
D10*
%TO.P,D16,1,K*%
%TO.N,Net-(D16-K)*%
X134493000Y-85852000D03*
D11*
%TO.P,D16,2,A*%
%TO.N,/DIN_3*%
X134493000Y-80772000D03*
%TD*%
D10*
%TO.P,D17,1,K*%
%TO.N,Net-(D17-K)*%
X169164000Y-85852000D03*
D11*
%TO.P,D17,2,A*%
%TO.N,/DIN_1*%
X169164000Y-75692000D03*
%TD*%
D10*
%TO.P,D18,1,K*%
%TO.N,Net-(D17-K)*%
X172085000Y-85852000D03*
D11*
%TO.P,D18,2,A*%
%TO.N,/DIN_3*%
X172085000Y-80772000D03*
%TD*%
D10*
%TO.P,D19,1,K*%
%TO.N,Net-(D19-K)*%
X166243000Y-85852000D03*
D11*
%TO.P,D19,2,A*%
%TO.N,/DIN_2*%
X166243000Y-78232000D03*
%TD*%
D10*
%TO.P,D20,1,K*%
%TO.N,Net-(D20-K)*%
X163449000Y-85852000D03*
D11*
%TO.P,D20,2,A*%
%TO.N,/DIN_1*%
X163449000Y-75692000D03*
%TD*%
D10*
%TO.P,D21,1,K*%
%TO.N,Net-(D21-K)*%
X157607000Y-85852000D03*
D11*
%TO.P,D21,2,A*%
%TO.N,/DIN_1*%
X157607000Y-75692000D03*
%TD*%
D10*
%TO.P,D22,1,K*%
%TO.N,Net-(D21-K)*%
X160528000Y-85852000D03*
D11*
%TO.P,D22,2,A*%
%TO.N,/DIN_4*%
X160528000Y-83312000D03*
%TD*%
D12*
%TO.P,J1,1,Pin_1*%
%TO.N,/DIN_1*%
X178816000Y-76073000D03*
D13*
%TO.P,J1,2,Pin_2*%
%TO.N,/DIN_2*%
X178816000Y-78613000D03*
%TO.P,J1,3,Pin_3*%
%TO.N,/DIN_3*%
X178816000Y-81153000D03*
%TO.P,J1,4,Pin_4*%
%TO.N,/DIN_4*%
X178816000Y-83693000D03*
%TO.P,J1,5,Pin_5*%
%TO.N,/DIN_5*%
X178816000Y-86233000D03*
%TO.P,J1,6,Pin_6*%
%TO.N,/DIN_6*%
X178816000Y-88773000D03*
%TO.P,J1,7,Pin_7*%
%TO.N,unconnected-(J1-Pin_7-Pad7)*%
X178816000Y-91313000D03*
%TO.P,J1,8,Pin_8*%
%TO.N,/DIN_8*%
X178816000Y-93853000D03*
%TO.P,J1,9,Pin_9*%
%TO.N,unconnected-(J1-Pin_9-Pad9)*%
X178816000Y-96393000D03*
%TD*%
D14*
%TO.P,SW1,1,1*%
%TO.N,Net-(D1-K)*%
X128016000Y-125984000D03*
%TO.P,SW1,2,2*%
X128016000Y-119484000D03*
%TO.P,SW1,3,K*%
%TO.N,/DIN_5*%
X132516000Y-125984000D03*
%TO.P,SW1,4,A*%
X132516000Y-119484000D03*
%TD*%
%TO.P,SW2,1,1*%
%TO.N,Net-(D3-K)*%
X128016000Y-117390332D03*
%TO.P,SW2,2,2*%
X128016000Y-110890332D03*
%TO.P,SW2,3,K*%
%TO.N,/DIN_5*%
X132516000Y-117390332D03*
%TO.P,SW2,4,A*%
X132516000Y-110890332D03*
%TD*%
%TO.P,SW3,1,1*%
%TO.N,Net-(D5-K)*%
X128016000Y-100203000D03*
%TO.P,SW3,2,2*%
X128016000Y-93703000D03*
%TO.P,SW3,3,K*%
%TO.N,/DIN_5*%
X132516000Y-100203000D03*
%TO.P,SW3,4,A*%
X132516000Y-93703000D03*
%TD*%
%TO.P,SW4,1,1*%
%TO.N,Net-(D6-K)*%
X128016000Y-108796666D03*
%TO.P,SW4,2,2*%
X128016000Y-102296666D03*
%TO.P,SW4,3,K*%
%TO.N,/DIN_5*%
X132516000Y-108796666D03*
%TO.P,SW4,4,A*%
X132516000Y-102296666D03*
%TD*%
%TO.P,SW5,1,1*%
%TO.N,Net-(D10-K)*%
X138430000Y-125984000D03*
%TO.P,SW5,2,2*%
X138430000Y-119484000D03*
%TO.P,SW5,3,K*%
%TO.N,/DIN_5*%
X142930000Y-125984000D03*
%TO.P,SW5,4,A*%
X142930000Y-119484000D03*
%TD*%
%TO.P,SW6,1,1*%
%TO.N,Net-(D11-K)*%
X138430000Y-117348000D03*
%TO.P,SW6,2,2*%
X138430000Y-110848000D03*
%TO.P,SW6,3,K*%
%TO.N,/DIN_5*%
X142930000Y-117348000D03*
%TO.P,SW6,4,A*%
X142930000Y-110848000D03*
%TD*%
%TO.P,SW7,1,1*%
%TO.N,Net-(D14-K)*%
X138430000Y-108712000D03*
%TO.P,SW7,2,2*%
X138430000Y-102212000D03*
%TO.P,SW7,3,K*%
%TO.N,/DIN_5*%
X142930000Y-108712000D03*
%TO.P,SW7,4,A*%
X142930000Y-102212000D03*
%TD*%
%TO.P,SW8,1,1*%
%TO.N,Net-(D16-K)*%
X138430000Y-100076000D03*
%TO.P,SW8,2,2*%
X138430000Y-93576000D03*
%TO.P,SW8,3,K*%
%TO.N,/DIN_5*%
X142930000Y-100076000D03*
%TO.P,SW8,4,A*%
X142930000Y-93576000D03*
%TD*%
%TO.P,SW9,1,1*%
%TO.N,Net-(D17-K)*%
X148463000Y-125857000D03*
%TO.P,SW9,2,2*%
X148463000Y-119357000D03*
%TO.P,SW9,3,K*%
%TO.N,/DIN_5*%
X152963000Y-125857000D03*
%TO.P,SW9,4,A*%
X152963000Y-119357000D03*
%TD*%
%TO.P,SW10,1,1*%
%TO.N,Net-(D19-K)*%
X148463000Y-117263332D03*
%TO.P,SW10,2,2*%
X148463000Y-110763332D03*
%TO.P,SW10,3,K*%
%TO.N,/DIN_5*%
X152963000Y-117263332D03*
%TO.P,SW10,4,A*%
X152963000Y-110763332D03*
%TD*%
%TO.P,SW11,1,1*%
%TO.N,Net-(D20-K)*%
X148463000Y-108669666D03*
%TO.P,SW11,2,2*%
X148463000Y-102169666D03*
%TO.P,SW11,3,K*%
%TO.N,/DIN_5*%
X152963000Y-108669666D03*
%TO.P,SW11,4,A*%
X152963000Y-102169666D03*
%TD*%
%TO.P,SW12,1,1*%
%TO.N,Net-(D21-K)*%
X148463000Y-100076000D03*
%TO.P,SW12,2,2*%
X148463000Y-93576000D03*
%TO.P,SW12,3,K*%
%TO.N,/DIN_5*%
X152963000Y-100076000D03*
%TO.P,SW12,4,A*%
X152963000Y-93576000D03*
%TD*%
%TO.P,SW13,1,1*%
%TO.N,Net-(D23-K)*%
X92202000Y-111672000D03*
%TO.P,SW13,2,2*%
X92202000Y-105172000D03*
%TO.P,SW13,3,K*%
%TO.N,/DIN_8*%
X96702000Y-111672000D03*
%TO.P,SW13,4,A*%
X96702000Y-105172000D03*
%TD*%
%TO.P,SW14,1,1*%
%TO.N,Net-(D24-K)*%
X101128000Y-102870000D03*
%TO.P,SW14,2,2*%
X101128000Y-96370000D03*
%TO.P,SW14,3,K*%
%TO.N,/DIN_8*%
X105628000Y-102870000D03*
%TO.P,SW14,4,A*%
X105628000Y-96370000D03*
%TD*%
%TO.P,SW15,1,1*%
%TO.N,Net-(D25-K)*%
X101128000Y-120523000D03*
%TO.P,SW15,2,2*%
X101128000Y-114023000D03*
%TO.P,SW15,3,K*%
%TO.N,/DIN_8*%
X105628000Y-120523000D03*
%TO.P,SW15,4,A*%
X105628000Y-114023000D03*
%TD*%
%TO.P,SW16,1,1*%
%TO.N,Net-(D26-K)*%
X114554000Y-105172000D03*
%TO.P,SW16,2,2*%
X114554000Y-111672000D03*
%TO.P,SW16,3,K*%
%TO.N,/DIN_8*%
X110054000Y-105172000D03*
%TO.P,SW16,4,A*%
X110054000Y-111672000D03*
%TD*%
%TO.P,SW17,1,1*%
%TO.N,/DIN_8*%
X169418000Y-120015000D03*
%TO.P,SW17,2,2*%
X169418000Y-113515000D03*
%TO.P,SW17,3,K*%
%TO.N,Net-(D27-K)*%
X173918000Y-120015000D03*
%TO.P,SW17,4,A*%
X173918000Y-113515000D03*
%TD*%
%TO.P,SW18,1,1*%
%TO.N,/DIN_5*%
X189865000Y-105172000D03*
%TO.P,SW18,2,2*%
X189865000Y-111672000D03*
%TO.P,SW18,3,K*%
%TO.N,Net-(D28-K)*%
X185365000Y-105172000D03*
%TO.P,SW18,4,A*%
X185365000Y-111672000D03*
%TD*%
D10*
%TO.P,D23,1,K*%
%TO.N,Net-(D23-K)*%
X92075000Y-102616000D03*
D11*
%TO.P,D23,2,A*%
%TO.N,/DIN_3*%
X92075000Y-94996000D03*
%TD*%
D10*
%TO.P,D24,1,K*%
%TO.N,Net-(D24-K)*%
X96520000Y-102616000D03*
D11*
%TO.P,D24,2,A*%
%TO.N,/DIN_1*%
X96520000Y-94996000D03*
%TD*%
D10*
%TO.P,D25,1,K*%
%TO.N,Net-(D25-K)*%
X110490000Y-102616000D03*
D11*
%TO.P,D25,2,A*%
%TO.N,/DIN_2*%
X110490000Y-94996000D03*
%TD*%
D10*
%TO.P,D26,1,K*%
%TO.N,Net-(D26-K)*%
X115189000Y-102616000D03*
D11*
%TO.P,D26,2,A*%
%TO.N,/DIN_4*%
X115189000Y-94996000D03*
%TD*%
D10*
%TO.P,D27,1,K*%
%TO.N,Net-(D27-K)*%
X177546000Y-119888000D03*
D11*
%TO.P,D27,2,A*%
%TO.N,/DIN_6*%
X177546000Y-112268000D03*
%TD*%
D10*
%TO.P,D28,1,K*%
%TO.N,Net-(D28-K)*%
X181737000Y-111760000D03*
D11*
%TO.P,D28,2,A*%
%TO.N,/DIN_6*%
X181737000Y-104140000D03*
%TD*%
D10*
%TO.P,D3,1,K*%
%TO.N,Net-(D3-K)*%
X125730000Y-85852000D03*
D11*
%TO.P,D3,2,A*%
%TO.N,/DIN_3*%
X125730000Y-80772000D03*
%TD*%
D15*
%TO.N,/DIN_5*%
X189865000Y-105172000D02*
X189865000Y-96079919D01*
X180018081Y-86233000D02*
X178816000Y-86233000D01*
X189865000Y-96079919D02*
X180018081Y-86233000D01*
X189865000Y-105172000D02*
X189865000Y-111672000D01*
D16*
%TO.N,/DIN_8*%
X178816000Y-93853000D02*
X177613919Y-93853000D01*
X177613919Y-93853000D02*
X169418000Y-102048919D01*
X169418000Y-102048919D02*
X169418000Y-113515000D01*
%TO.N,/DIN_6*%
X181737000Y-104140000D02*
X181737000Y-94894400D01*
X181737000Y-94894400D02*
X181762400Y-94869000D01*
X181762400Y-91566595D02*
X178968805Y-88773000D01*
X181762400Y-94869000D02*
X181762400Y-91566595D01*
X178968805Y-88773000D02*
X178816000Y-88773000D01*
%TO.N,/DIN_8*%
X169418000Y-120015000D02*
X169418000Y-113515000D01*
X156707656Y-120015000D02*
X154867100Y-121855556D01*
X152146000Y-129082810D02*
X114187810Y-129082810D01*
X169418000Y-120015000D02*
X156707656Y-120015000D01*
X154867100Y-121855556D02*
X154867100Y-126645705D01*
X154867100Y-126645705D02*
X152429995Y-129082810D01*
X152429995Y-129082810D02*
X152146000Y-129082810D01*
%TO.N,/DIN_6*%
X177546000Y-108331000D02*
X181737000Y-104140000D01*
X177546000Y-112268000D02*
X177546000Y-108331000D01*
%TO.N,/DIN_2*%
X116967000Y-78232000D02*
X110204710Y-78232000D01*
X166624000Y-78613000D02*
X166243000Y-78232000D01*
X116967000Y-78232000D02*
X166243000Y-78232000D01*
X105994278Y-82442433D02*
X105994278Y-90373278D01*
X110204710Y-78232000D02*
X105994278Y-82442433D01*
X110490000Y-94869000D02*
X110490000Y-94996000D01*
X178816000Y-78613000D02*
X166624000Y-78613000D01*
X105994278Y-90373278D02*
X110490000Y-94869000D01*
X178689000Y-78486000D02*
X178816000Y-78613000D01*
%TO.N,/DIN_4*%
X110285930Y-83312000D02*
X108635899Y-84962031D01*
X110871000Y-83312000D02*
X178435000Y-83312000D01*
X115189000Y-93295070D02*
X115189000Y-94996000D01*
X160782000Y-83693000D02*
X160401000Y-83312000D01*
X178435000Y-83312000D02*
X178816000Y-83693000D01*
X108635899Y-86741969D02*
X115189000Y-93295070D01*
X122555000Y-83312000D02*
X122682000Y-83185000D01*
X108635899Y-84962031D02*
X108635899Y-86741969D01*
X110490000Y-83312000D02*
X110285930Y-83312000D01*
%TO.N,/DIN_3*%
X112344101Y-95885969D02*
X112344101Y-92786101D01*
X107315089Y-87757089D02*
X107315089Y-84123841D01*
X111379969Y-96850101D02*
X112344101Y-95885969D01*
X107315089Y-84123841D02*
X110666930Y-80772000D01*
X110666930Y-80772000D02*
X119888000Y-80772000D01*
X172466000Y-81153000D02*
X172085000Y-80772000D01*
X93929101Y-96850101D02*
X97409969Y-96850101D01*
X99794171Y-94465899D02*
X107215829Y-94465899D01*
X178816000Y-81153000D02*
X172466000Y-81153000D01*
X97409969Y-96850101D02*
X99794171Y-94465899D01*
X146177000Y-80772000D02*
X119888000Y-80772000D01*
X107215829Y-94465899D02*
X109600031Y-96850101D01*
X172085000Y-80772000D02*
X146177000Y-80772000D01*
X172085000Y-81153000D02*
X171831000Y-80899000D01*
X109600031Y-96850101D02*
X111379969Y-96850101D01*
X112344101Y-92786101D02*
X107315089Y-87757089D01*
X92075000Y-94996000D02*
X93929101Y-96850101D01*
%TO.N,/DIN_1*%
X96520000Y-90344880D02*
X96520000Y-94996000D01*
X113665000Y-76073000D02*
X109892092Y-76073000D01*
X169545000Y-76073000D02*
X169164000Y-75692000D01*
X178816000Y-76073000D02*
X169545000Y-76073000D01*
X96520000Y-89445092D02*
X96520000Y-90344880D01*
X109892092Y-76073000D02*
X96520000Y-89445092D01*
X169164000Y-75692000D02*
X113919000Y-75692000D01*
%TO.N,/DIN_8*%
X114187810Y-129082810D02*
X105628000Y-120523000D01*
X107703000Y-114023000D02*
X110054000Y-111672000D01*
X105628000Y-114023000D02*
X107703000Y-114023000D01*
X179094070Y-93853000D02*
X178816000Y-93853000D01*
X178816000Y-93853000D02*
X179197000Y-93853000D01*
X105628000Y-96370000D02*
X105628000Y-102870000D01*
X103326000Y-105172000D02*
X105628000Y-102870000D01*
X105628000Y-120523000D02*
X103723899Y-122427101D01*
X110054000Y-111672000D02*
X110054000Y-105172000D01*
X105628000Y-114023000D02*
X105628000Y-120523000D01*
X103723899Y-122427101D02*
X100214031Y-122427101D01*
X96702000Y-105172000D02*
X96702000Y-111672000D01*
X100214031Y-122427101D02*
X96702000Y-118915070D01*
X96702000Y-118915070D02*
X96702000Y-111672000D01*
X96702000Y-105172000D02*
X103326000Y-105172000D01*
D17*
%TO.N,/DIN_5*%
X142930000Y-125984000D02*
X142930000Y-93576000D01*
D15*
X175260000Y-87884000D02*
X176911000Y-86233000D01*
D17*
X144262601Y-127316601D02*
X151503399Y-127316601D01*
D15*
X176911000Y-86233000D02*
X177613919Y-86233000D01*
X154591000Y-91948000D02*
X167894000Y-91948000D01*
D17*
X151503399Y-127316601D02*
X152963000Y-125857000D01*
X142930000Y-125984000D02*
X144262601Y-127316601D01*
X132516000Y-125984000D02*
X133975601Y-127443601D01*
D15*
X152963000Y-93576000D02*
X154591000Y-91948000D01*
X171958000Y-87884000D02*
X175260000Y-87884000D01*
D17*
X133975601Y-127443601D02*
X141470399Y-127443601D01*
D15*
X177613919Y-86233000D02*
X178816000Y-86233000D01*
D17*
X152963000Y-93576000D02*
X152963000Y-125857000D01*
D15*
X167894000Y-91948000D02*
X171958000Y-87884000D01*
D17*
X132516000Y-93703000D02*
X132516000Y-125984000D01*
X141470399Y-127443601D02*
X142930000Y-125984000D01*
D16*
%TO.N,Net-(D23-K)*%
X92202000Y-105172000D02*
X92202000Y-111672000D01*
X92075000Y-105045000D02*
X92202000Y-105172000D01*
X92075000Y-102616000D02*
X92075000Y-105045000D01*
%TO.N,Net-(D24-K)*%
X96774000Y-102362000D02*
X96520000Y-102616000D01*
X101128000Y-102870000D02*
X96774000Y-102870000D01*
X96774000Y-102870000D02*
X96520000Y-102616000D01*
X101128000Y-102870000D02*
X101128000Y-96370000D01*
%TO.N,Net-(D25-K)*%
X101128000Y-114023000D02*
X101128000Y-120523000D01*
X105782101Y-105990499D02*
X105782101Y-109575969D01*
X110490000Y-102616000D02*
X109156600Y-102616000D01*
X101335070Y-114023000D02*
X101128000Y-114023000D01*
X105782101Y-109575969D02*
X101335070Y-114023000D01*
X109156600Y-102616000D02*
X105782101Y-105990499D01*
X110490000Y-102386930D02*
X110490000Y-101981000D01*
%TO.N,Net-(D26-K)*%
X114681000Y-103124000D02*
X115189000Y-102616000D01*
X115189000Y-104537000D02*
X114554000Y-105172000D01*
X115189000Y-102616000D02*
X115189000Y-104537000D01*
X114554000Y-105172000D02*
X114554000Y-111672000D01*
%TO.N,Net-(D27-K)*%
X173918000Y-113515000D02*
X173918000Y-120015000D01*
X177419000Y-120015000D02*
X177546000Y-119888000D01*
X173918000Y-120015000D02*
X177419000Y-120015000D01*
%TO.N,Net-(D28-K)*%
X185277000Y-111760000D02*
X185365000Y-111672000D01*
X185365000Y-111672000D02*
X185365000Y-105172000D01*
X181737000Y-111760000D02*
X185277000Y-111760000D01*
D15*
%TO.N,Net-(D1-K)*%
X131094499Y-116405501D02*
X131094499Y-86329501D01*
D16*
X128016000Y-119484000D02*
X128016000Y-125984000D01*
D15*
X131445000Y-85979000D02*
X131699000Y-85725000D01*
X128016000Y-119484000D02*
X131094499Y-116405501D01*
X131572000Y-85852000D02*
X128651000Y-85852000D01*
X131094499Y-86329501D02*
X131572000Y-85852000D01*
%TO.N,Net-(D3-K)*%
X125476000Y-85979000D02*
X130199511Y-90702511D01*
X128016000Y-110890332D02*
X128016000Y-117390332D01*
X130199511Y-90702511D02*
X130199511Y-108706821D01*
X122809000Y-85852000D02*
X125730000Y-85852000D01*
X125349000Y-85852000D02*
X125476000Y-85979000D01*
X130199511Y-108706821D02*
X128016000Y-110890332D01*
%TO.N,Net-(D5-K)*%
X128016000Y-93703000D02*
X128016000Y-100203000D01*
X115951000Y-91313000D02*
X125626000Y-91313000D01*
X125626000Y-91313000D02*
X128016000Y-93703000D01*
X110490000Y-85852000D02*
X115951000Y-91313000D01*
D16*
%TO.N,Net-(D6-K)*%
X119888000Y-86106000D02*
X119888000Y-85852000D01*
D15*
X129437501Y-100875165D02*
X129437501Y-93020679D01*
X119888000Y-85852000D02*
X121259501Y-87223501D01*
X119888000Y-85852000D02*
X116967000Y-85852000D01*
X123640323Y-87223501D02*
X129437501Y-93020679D01*
X128016000Y-102296666D02*
X129437501Y-100875165D01*
X119507000Y-86233000D02*
X119761000Y-85979000D01*
X121259501Y-87223501D02*
X123640323Y-87223501D01*
X116967000Y-85852000D02*
X113919000Y-85852000D01*
X128016000Y-102296666D02*
X128016000Y-108796666D01*
X117221000Y-85852000D02*
X117094000Y-85979000D01*
%TO.N,Net-(D10-K)*%
X141508499Y-92893679D02*
X141508499Y-116405501D01*
X138430000Y-119484000D02*
X138430000Y-125984000D01*
X146924677Y-87477501D02*
X150393499Y-87477501D01*
X146924677Y-87477501D02*
X141508499Y-92893679D01*
X150393499Y-87477501D02*
X152019000Y-85852000D01*
X151892000Y-86106000D02*
X151765000Y-86233000D01*
X141508499Y-116405501D02*
X138430000Y-119484000D01*
X152019000Y-85852000D02*
X154813000Y-85852000D01*
%TO.N,Net-(D11-K)*%
X138430000Y-110848000D02*
X140746489Y-108531511D01*
X143129000Y-85852000D02*
X143256000Y-85852000D01*
X146177000Y-85852000D02*
X149098000Y-85852000D01*
X148717000Y-85852000D02*
X148971000Y-86106000D01*
X140746489Y-108531511D02*
X140746489Y-88234511D01*
X143256000Y-85852000D02*
X146177000Y-85852000D01*
X138430000Y-117348000D02*
X138430000Y-110848000D01*
X140746489Y-88234511D02*
X143129000Y-85852000D01*
%TO.N,Net-(D14-K)*%
X139851501Y-100790499D02*
X138430000Y-102212000D01*
X139851501Y-88051855D02*
X139851501Y-100790499D01*
X137541000Y-85979000D02*
X137414000Y-85852000D01*
X138430000Y-108712000D02*
X138430000Y-102212000D01*
X140208000Y-87695356D02*
X139851501Y-88051855D01*
X140208000Y-86106000D02*
X140208000Y-87695356D01*
X140335000Y-85852000D02*
X137414000Y-85852000D01*
X140081000Y-85979000D02*
X140208000Y-86106000D01*
%TO.N,Net-(D16-K)*%
X134493000Y-89639000D02*
X134822000Y-89968000D01*
X134493000Y-85852000D02*
X134493000Y-89639000D01*
X134620000Y-89766000D02*
X134822000Y-89968000D01*
X134822000Y-89968000D02*
X138430000Y-93576000D01*
X138430000Y-93576000D02*
X138430000Y-100076000D01*
%TO.N,Net-(D17-K)*%
X171577000Y-86233000D02*
X171831000Y-85979000D01*
X169037000Y-86233000D02*
X164592000Y-90678000D01*
X153289000Y-90678000D02*
X151511010Y-92455990D01*
X164592000Y-90678000D02*
X153289000Y-90678000D01*
X151511010Y-92455990D02*
X151511010Y-116308990D01*
X148463000Y-119357000D02*
X148463000Y-125857000D01*
X151511010Y-116308990D02*
X148463000Y-119357000D01*
X169037000Y-86233000D02*
X171577000Y-86233000D01*
%TO.N,Net-(D19-K)*%
X148463000Y-110763332D02*
X148463000Y-117263332D01*
X150749000Y-91567000D02*
X150749000Y-108477332D01*
X162686990Y-89535010D02*
X152780990Y-89535010D01*
X166116000Y-86106000D02*
X162686990Y-89535010D01*
X150749000Y-108477332D02*
X148463000Y-110763332D01*
X152780990Y-89535010D02*
X150749000Y-91567000D01*
%TO.N,Net-(D20-K)*%
X161671000Y-87884000D02*
X163322000Y-86233000D01*
X156906644Y-87884000D02*
X161671000Y-87884000D01*
X148463000Y-102169666D02*
X149884501Y-100748165D01*
X148463000Y-102169666D02*
X148463000Y-108669666D01*
X149884501Y-90780499D02*
X151892000Y-88773000D01*
X149884501Y-100748165D02*
X149884501Y-90780499D01*
X156017644Y-88773000D02*
X156906644Y-87884000D01*
X151892000Y-88773000D02*
X156017644Y-88773000D01*
%TO.N,Net-(D21-K)*%
X148463000Y-93576000D02*
X148463000Y-100076000D01*
X151638000Y-87630000D02*
X148463000Y-90805000D01*
X148463000Y-90805000D02*
X148463000Y-93576000D01*
X157480000Y-86233000D02*
X156083000Y-87630000D01*
X156083000Y-87630000D02*
X151638000Y-87630000D01*
X157607000Y-85852000D02*
X160528000Y-85852000D01*
%TD*%
M02*
