M48
; DRILL file {KiCad 7.0.11-7.0.11~ubuntu22.04.1} date Sun 24 Nov 2024 12:20:41 PM EST
; FORMAT={-:-/ absolute / metric / decimal}
; #@! TF.CreationDate,2024-11-24T12:20:41-05:00
; #@! TF.GenerationSoftware,Kicad,Pcbnew,7.0.11-7.0.11~ubuntu22.04.1
; #@! TF.FileFunction,MixedPlating,1,2
FMAT,2
METRIC
; #@! TA.AperFunction,Plated,PTH,ComponentDrill
T1C0.800
; #@! TA.AperFunction,Plated,PTH,ComponentDrill
T2C1.000
; #@! TA.AperFunction,NonPlated,NPTH,ComponentDrill
T3C2.700
; #@! TA.AperFunction,NonPlated,NPTH,ComponentDrill
T4C4.300
%
G90
G05
T1
X92.075Y-94.996
X92.075Y-102.616
X96.52Y-94.996
X96.52Y-102.616
X110.49Y-94.996
X110.49Y-102.616
X110.871Y-83.312
X110.871Y-85.852
X113.919Y-75.692
X113.919Y-85.852
X115.189Y-94.996
X115.189Y-102.616
X116.967Y-78.232
X116.967Y-85.852
X119.888Y-80.772
X119.888Y-85.852
X122.809Y-83.312
X122.809Y-85.852
X125.73Y-80.772
X125.73Y-85.852
X128.651Y-78.232
X128.651Y-85.852
X131.572Y-83.312
X131.572Y-85.852
X134.493Y-80.772
X134.493Y-85.852
X137.414Y-80.772
X137.414Y-85.852
X140.335Y-78.232
X140.335Y-85.852
X143.256Y-83.312
X143.256Y-85.852
X146.177Y-80.772
X146.177Y-85.852
X149.098Y-78.232
X149.098Y-85.852
X152.019Y-75.692
X152.019Y-85.852
X154.813Y-78.232
X154.813Y-85.852
X157.607Y-75.692
X157.607Y-85.852
X160.528Y-83.312
X160.528Y-85.852
X163.449Y-75.692
X163.449Y-85.852
X166.243Y-78.232
X166.243Y-85.852
X169.164Y-75.692
X169.164Y-85.852
X172.085Y-80.772
X172.085Y-85.852
X177.546Y-112.268
X177.546Y-119.888
X181.737Y-104.14
X181.737Y-111.76
T2
X92.202Y-105.172
X92.202Y-111.672
X96.702Y-105.172
X96.702Y-111.672
X101.128Y-96.37
X101.128Y-102.87
X101.128Y-114.023
X101.128Y-120.523
X105.628Y-96.37
X105.628Y-102.87
X105.628Y-114.023
X105.628Y-120.523
X110.054Y-105.172
X110.054Y-111.672
X114.554Y-105.172
X114.554Y-111.672
X128.016Y-93.703
X128.016Y-100.203
X128.016Y-102.297
X128.016Y-108.797
X128.016Y-110.89
X128.016Y-117.39
X128.016Y-119.484
X128.016Y-125.984
X132.516Y-93.703
X132.516Y-100.203
X132.516Y-102.297
X132.516Y-108.797
X132.516Y-110.89
X132.516Y-117.39
X132.516Y-119.484
X132.516Y-125.984
X138.43Y-93.576
X138.43Y-100.076
X138.43Y-102.212
X138.43Y-108.712
X138.43Y-110.848
X138.43Y-117.348
X138.43Y-119.484
X138.43Y-125.984
X142.93Y-93.576
X142.93Y-100.076
X142.93Y-102.212
X142.93Y-108.712
X142.93Y-110.848
X142.93Y-117.348
X142.93Y-119.484
X142.93Y-125.984
X148.463Y-93.576
X148.463Y-100.076
X148.463Y-102.17
X148.463Y-108.67
X148.463Y-110.763
X148.463Y-117.263
X148.463Y-119.357
X148.463Y-125.857
X152.963Y-93.576
X152.963Y-100.076
X152.963Y-102.17
X152.963Y-108.67
X152.963Y-110.763
X152.963Y-117.263
X152.963Y-119.357
X152.963Y-125.857
X169.418Y-113.515
X169.418Y-120.015
X173.918Y-113.515
X173.918Y-120.015
X178.816Y-76.073
X178.816Y-78.613
X178.816Y-81.153
X178.816Y-83.693
X178.816Y-86.233
X178.816Y-88.773
X178.816Y-91.313
X178.816Y-93.853
X178.816Y-96.393
X185.365Y-105.172
X185.365Y-111.672
X189.865Y-105.172
X189.865Y-111.672
T3
X103.378Y-108.422
T4
X92.71Y-125.73
X97.79Y-82.677
X121.539Y-95.885
X121.539Y-116.332
X160.02Y-95.885
X160.02Y-116.332
X187.833Y-82.677
X193.929Y-125.73
M30
